<?xml version="1.0" encoding="UTF-8"?>
<!DOCTYPE svg PUBLIC "-//W3C//DTD SVG 1.1//EN" "http://www.w3.org/Graphics/SVG/1.1/DTD/svg11.dtd">
<!-- Creator: CorelDRAW 2020 (64 Bit) -->
<svg xmlns="http://www.w3.org/2000/svg" xml:space="preserve" width="1748px" height="1039px" version="1.1" style="shape-rendering:geometricPrecision; text-rendering:geometricPrecision; image-rendering:optimizeQuality; fill-rule:evenodd; clip-rule:evenodd"
viewBox="0 0 174800 103935"
 xmlns:xlink="http://www.w3.org/1999/xlink"
 xmlns:xodm="http://www.corel.com/coreldraw/odm/2003">
 <defs>
  <style type="text/css">
   <![CDATA[
    .fil0 {fill:none}
    .fil2 {fill:#0D6FAB}
    .fil3 {fill:#DB8135}
    .fil1 {fill:#0D6FAB;fill-rule:nonzero}
   ]]>
  </style>
 </defs>
 <g id="Camada_x0020_1">
  <metadata id="CorelCorpID_0Corel-Layer"/>
  <rect class="fil0" x="3478" y="2158" width="167647" height="99682"/>
  <g id="_95458982656">
   <path class="fil1" d="M11469 77522l1965 -1659c608,1415 1279,2423 2017,3042 733,613 1632,920 2688,920 1346,0 2428,-390 3244,-1175 812,-780 1217,-1820 1217,-3125 0,-811 -198,-1486 -588,-2022 -389,-540 -1357,-1233 -2900,-2075 -1993,-1086 -3329,-2069 -4010,-2948 -681,-879 -1018,-1945 -1018,-3192 0,-1908 613,-3472 1846,-4689 1226,-1222 2817,-1830 4766,-1830 1290,0 2424,280 3391,847 972,561 1824,1436 2568,2615l-1933 1654c-490,-941 -1062,-1638 -1711,-2096 -651,-453 -1399,-681 -2252,-681 -1180,0 -2131,353 -2864,1056 -734,707 -1098,1611 -1098,2719 0,1481 1134,2823 3395,4030 395,212 703,379 915,488 1596,904 2688,1803 3286,2698 593,894 889,2013 889,3363 0,2065 -634,3703 -1902,4914 -1269,1212 -2995,1820 -5179,1820 -1596,0 -2964,-395 -4097,-1186 -1138,-790 -2017,-1955 -2635,-3488l0 0zm30154 -2501l-11168 16 0 244c0,1497 381,2672 1144,3536 764,857 1804,1289 3125,1289 827,0 1581,-198 2272,-593 691,-395 1362,-1008 2013,-1841l1678 1368c-811,1055 -1705,1846 -2682,2371 -977,525 -2039,785 -3187,785 -2080,0 -3733,-630 -4960,-1882 -1222,-1253 -1835,-2948 -1835,-5080 0,-2323 711,-4253 2131,-5781 1425,-1529 3203,-2293 5345,-2293 1950,0 3462,592 4538,1777 1076,1187 1618,2855 1618,5003 0,296 0,520 -6,670 -5,151 -16,292 -26,411zm-2308 -1965c-20,-1259 -364,-2231 -1030,-2912 -665,-681 -1601,-1019 -2812,-1019 -1201,0 -2235,354 -3104,1066 -868,713 -1435,1664 -1700,2865l8646 0zm11605 6706c1351,0 2499,-556 3440,-1674 947,-1117 1421,-2505 1421,-4159 0,-1403 -369,-2532 -1103,-3390 -738,-858 -1700,-1289 -2891,-1289 -1544,0 -2807,541 -3795,1617 -983,1076 -1477,2449 -1477,4128 0,1408 411,2558 1227,3442 817,884 1877,1325 3178,1325l0 0zm5775 -12103l2392 0 -1404 11085c-26,223 -67,540 -119,956 -338,2766 -802,4638 -1404,5626 -629,1044 -1430,1804 -2397,2277 -972,473 -2236,707 -3790,707 -1862,0 -3349,-515 -4471,-1539 -1123,-1024 -1701,-2402 -1731,-4128l2396 -322c42,1278 437,2267 1196,2958 754,692 1814,1034 3177,1034 1227,0 2220,-426 2979,-1273 754,-848 1222,-2059 1393,-3624l244 -2127c-671,900 -1419,1571 -2245,2002 -828,437 -1773,655 -2829,655 -1757,0 -3202,-640 -4331,-1913 -1134,-1274 -1700,-2906 -1700,-4892 0,-2299 681,-4201 2049,-5714 1367,-1513 3073,-2267 5126,-2267 1238,0 2288,270 3140,816 853,546 1503,1352 1950,2434l379 -2751 0 0zm6941 0l2434 0 -806 6166c-21,166 -53,400 -95,702 -212,1555 -316,2579 -316,3077 0,755 260,1338 775,1753 519,416 1252,624 2193,624 1249,0 2158,-333 2725,-1003 572,-671 1003,-2138 1295,-4405l899 -6914 2407 0 -946 7081c-10,115 -26,276 -57,488 -338,2553 -947,4300 -1830,5247 -526,556 -1186,982 -1971,1278 -785,297 -1669,443 -2657,443 -1590,0 -2870,-395 -3826,-1181 -962,-790 -1440,-1835 -1440,-3135 0,-494 114,-1674 347,-3535l32 -213 837 -6473 0 0zm22996 2282c-266,-129 -536,-234 -806,-306 -276,-67 -551,-104 -827,-104 -1065,0 -1908,447 -2532,1341 -623,889 -1066,2277 -1320,4155l-883 6577 -2367 0 1831 -13945 2412 0 -379 2220c639,-946 1284,-1637 1939,-2069 655,-431 1372,-650 2158,-650 223,0 451,26 691,78 238,47 473,125 707,224l-624 2479 0 0zm3894 -8869c0,-447 166,-838 494,-1160 333,-327 728,-488 1185,-488 462,0 859,161 1181,478 317,322 478,713 478,1170 0,473 -161,879 -478,1201 -322,327 -719,488 -1181,488 -457,0 -852,-166 -1185,-494 -328,-332 -494,-733 -494,-1195l0 0zm-1996 20532l1845 -13945 2429 0 -1852 13945 -2422 0 0 0zm14047 -1654c1347,0 2496,-562 3438,-1689 945,-1129 1418,-2533 1418,-4207 0,-1414 -368,-2558 -1102,-3432 -738,-873 -1700,-1310 -2885,-1310 -1544,0 -2803,546 -3780,1638 -972,1092 -1461,2491 -1461,4201 0,1429 406,2590 1211,3473 806,884 1862,1326 3161,1326l0 0zm7025 -21961l2422 0 -3124 23615 -2428 0 337 -2081c-671,900 -1419,1565 -2245,1997 -828,431 -1773,644 -2839,644 -1778,0 -3224,-649 -4341,-1949 -1118,-1299 -1675,-2990 -1675,-5074 0,-2303 682,-4211 2038,-5720 1362,-1507 3073,-2261 5132,-2261 1242,0 2282,276 3124,822 842,550 1497,1377 1966,2490l1633 -12483 0 0zm10720 21961c1357,0 2506,-562 3447,-1689 941,-1129 1409,-2533 1409,-4207 0,-1414 -369,-2558 -1102,-3432 -739,-873 -1701,-1310 -2886,-1310 -1543,0 -2807,552 -3796,1648 -981,1098 -1475,2491 -1475,4191 0,1429 411,2590 1227,3473 816,884 1876,1326 3176,1326l0 0zm5771 -12291l2396 0 -1830 13945 -2443 0 338 -2081c-671,900 -1419,1565 -2245,1997 -828,431 -1769,644 -2824,644 -1789,0 -3239,-649 -4356,-1949 -1119,-1299 -1675,-2990 -1675,-5074 0,-2303 681,-4211 2038,-5720 1362,-1507 3073,-2261 5136,-2261 1238,0 2278,276 3120,822 842,550 1497,1377 1966,2490l379 -2813 0 0zm11849 12291c1346,0 2495,-562 3436,-1689 947,-1129 1420,-2533 1420,-4207 0,-1414 -369,-2558 -1102,-3432 -739,-873 -1701,-1310 -2886,-1310 -1545,0 -2802,546 -3780,1638 -972,1092 -1461,2491 -1461,4201 0,1429 406,2590 1211,3473 806,884 1862,1326 3162,1326l0 0zm7024 -21961l2423 0 -3125 23615 -2429 0 339 -2081c-671,900 -1419,1565 -2247,1997 -826,431 -1772,644 -2838,644 -1778,0 -3223,-649 -4342,-1949 -1117,-1299 -1673,-2990 -1673,-5074 0,-2303 681,-4211 2038,-5720 1362,-1507 3073,-2261 5132,-2261 1242,0 2281,276 3124,822 842,550 1497,1377 1966,2490l1632 -12483 0 0zm17266 17032l-11168 16 0 244c0,1497 379,2672 1145,3536 763,857 1803,1289 3123,1289 828,0 1582,-198 2273,-593 691,-395 1362,-1008 2011,-1841l1681 1368c-812,1055 -1707,1846 -2684,2371 -977,525 -2038,785 -3186,785 -2080,0 -3734,-630 -4961,-1882 -1221,-1253 -1834,-2948 -1834,-5080 0,-2323 711,-4253 2130,-5781 1425,-1529 3204,-2293 5346,-2293 1949,0 3462,592 4538,1777 1076,1187 1618,2855 1618,5003 0,296 0,520 -6,670 -6,151 -16,292 -26,411l0 0zm-2308 -1965c-21,-1259 -364,-2231 -1030,-2912 -666,-681 -1601,-1019 -2812,-1019 -1201,0 -2237,354 -3105,1066 -867,713 -1435,1664 -1699,2865l8646 0z"/>
   <path class="fil2" d="M56208 27641l-4127 10283 5710 0 -1564 -10327 -19 44zm-21861 23604l16929 -34849 12795 0 7139 34849 -11237 0 -827 -4644 -10901 0 -2508 4644 -11390 0 0 0zm42181 0l4905 -34849 11322 0 -4904 34849 -11323 0 0 0zm75298 -23648l-4143 10327 5709 0 -1566 -10327zm-21879 23648l16930 -34849 12794 0 7138 34849 -11237 0 -825 -4644 -10902 0 -2508 4644 -11390 0zm-25028 -16295l14185 0 9721 16100 -14188 0 -9718 -16100 0 0 0 0z"/>
   <path class="fil3" d="M106392 32476l14664 0 12735 -16030 -14663 0 -12736 16030 0 0zm-14662 18671l14662 0 12736 -16228 -14664 0 -12734 16228 0 0z"/>
   <path class="fil2" d="M97017 16250l13686 0 9376 16226 -13687 0 -9375 -16226zm-62334 1393l-1089 10250c-4174,-5756 -13844,-1785 -14604,5387 -966,9103 8342,11226 13409,5865l-1092 10274c-1512,744 -2990,1319 -4449,1709 -1417,382 -2882,597 -4349,629 -1814,37 -3456,-153 -4939,-570 -1443,-392 -2804,-1052 -4007,-1941 -2287,-1671 -3940,-3797 -4959,-6384 -1019,-2596 -1355,-5524 -1007,-8798 279,-2629 943,-5027 1999,-7202 1046,-2175 2496,-4149 4343,-5940 1746,-1709 3646,-2997 5703,-3874 2049,-867 4285,-1330 6703,-1380 129,-3 267,-6 398,-6 1292,0 2582,153 3837,451 1381,332 2744,847 4104,1531l-1 -1 0 0z"/>
  </g>
 </g>
</svg>
