<?xml version="1.0" encoding="UTF-8" standalone="no"?>
<svg
   version="1.0"
   viewBox="0 0 1448 600.00001"
   id="svg2"
   sodipodi:docname="Cargill.svg"
   width="1448"
   height="600"
   inkscape:version="1.4.3 (0d15f75, 2025-12-25)"
   xmlns:inkscape="http://www.inkscape.org/namespaces/inkscape"
   xmlns:sodipodi="http://sodipodi.sourceforge.net/DTD/sodipodi-0.dtd"
   xmlns="http://www.w3.org/2000/svg"
   xmlns:svg="http://www.w3.org/2000/svg">
  <defs
     id="defs2" />
  <sodipodi:namedview
     id="namedview2"
     pagecolor="#ffffff"
     bordercolor="#000000"
     borderopacity="0.25"
     inkscape:showpageshadow="2"
     inkscape:pageopacity="0.0"
     inkscape:pagecheckerboard="0"
     inkscape:deskcolor="#d1d1d1"
     inkscape:zoom="0.32239996"
     inkscape:cx="724.25567"
     inkscape:cy="463.70973"
     inkscape:window-width="1366"
     inkscape:window-height="697"
     inkscape:window-x="281"
     inkscape:window-y="1072"
     inkscape:window-maximized="1"
     inkscape:current-layer="svg2" />
  <g
     fill-rule="evenodd"
     id="g2"
     transform="matrix(3.3255788,0,0,3.0525346,9.3052671,9.3054673)">
    <path
       d="m 123.035,77.998 c 12.644,0 20.335,2.224 24.205,6.973 2.109,2.584 3.173,6.02 3.198,10.372 0.012,2.418 -0.295,5.117 -0.914,8.12 l -8.667,41.864 c -1.2,5.788 -1.924,10.22 -1.904,13.893 a 20.7,20.7 0 0 0 0.282,3.262 h -23.713 c -0.007,-0.257 -0.044,-0.506 -0.044,-0.77 -0.01,-1.736 0.124,-3.57 0.275,-5.467 l 0.249,-3.434 h -1.313 l -0.519,0.818 c -4.254,6.84 -13.918,11.073 -22.198,11.073 -6.863,0 -11.78,-1.756 -14.612,-5.237 -3.127,-3.833 -3.872,-9.838 -2.221,-17.839 3.234,-15.628 10.34,-22.242 28.162,-26.242 0.01,0 11.834,-2.696 11.834,-2.696 7.02,-1.55 10.404,-4.646 11.658,-10.699 0.684,-3.322 0.314,-5.889 -1.106,-7.64 -1.317,-1.61 -3.431,-2.425 -6.278,-2.425 -6.337,0 -9.71,3.273 -11.797,11.42 H 86.452 C 92.14,81.366 111.674,77.998 123.035,77.998 Z m -0.263,43.1 c 0,0 -0.477,0.436 -1.395,0.797 -1.498,0.577 -4.823,1.12 -6.878,1.636 -1.593,0.397 -3.39,0.856 -5.33,1.671 -5.169,2.19 -7.833,5.773 -9.204,12.362 -0.799,3.855 -0.331,7.008 1.369,9.095 1.268,1.564 3.146,2.384 5.41,2.384 9.243,0 12.141,-8.84 13.517,-15.501 l 2.577,-12.445 h -0.066 l -2.51,12.445 2.51,-12.445 z m 84.998,33.995 c -5.004,-6.142 -5.985,-15.803 -2.532,-33.013 7.535,-37.467 21.777,-44.082 34.168,-44.082 5.89,0 14.764,2.182 15.806,12.52 l 0.165,1.608 h 1.72 c 0,0 2.013,-9.725 2.454,-11.894 h 23.036 c -0.838,4.035 -17.108,82.25 -17.108,82.25 -4.062,19.649 -16.678,29.437 -39.823,29.437 -21.443,0 -24.624,-12.644 -25.106,-16.559 -0.183,-1.486 0.316,-5.873 0.316,-5.873 h 22.416 v 0.018 c 0.012,1.997 0.162,4.945 0.837,5.773 0.928,1.144 1.699,2.489 5.255,2.489 4.72,0 9.24,-1.362 11.444,-12.018 l 3.815,-18.457 h -1.84 l -0.509,0.868 c -4.59,7.948 -13.14,11.965 -22.155,11.965 -5.551,0 -9.599,-1.635 -12.358,-5.032 z m 22.873,-34.833 c -2.521,12.194 -2.411,16.883 0.055,19.91 1.225,1.511 3.057,2.235 5.589,2.235 7.002,0 10.424,-4.252 13.98,-21.415 2.541,-12.292 2.805,-20.1 0.374,-23.095 -1.194,-1.454 -2.943,-2.177 -5.354,-2.177 -7.235,0 -11.098,7.379 -14.644,24.542 z m 88.884,-40.028 c -0.82,3.97 -16.464,79.622 -17.015,82.25 h -24.938 c 0.826,-3.972 16.487,-79.623 17.033,-82.25 z m 45.799,-27.44 a 571848.93,571848.93 0 0 1 -22.696,109.69 h -24.94 c 0.832,-4.047 22.144,-107.028 22.703,-109.69 z m 39.986,0 c -0.846,4.036 -22.153,107.017 -22.716,109.69 h -24.928 c 0.842,-4.047 22.152,-107.028 22.703,-109.69 h 24.94 z M 211.321,77.998 c -8.172,0 -17.897,5.718 -22.646,14.912 l -0.492,0.95 h -1.826 c 0,0 2.196,-10.604 2.815,-13.628 h -2.136 v -0.01 h -23.72 c 0.168,1.027 0.275,2.102 0.282,3.275 0.015,2.638 -0.363,5.687 -1.02,9.347 -4.622,22.336 -13.796,66.62 -14.415,69.638 h 24.95 c 1.593,-7.726 9.376,-45.387 9.376,-45.387 2.348,-11.33 8.992,-16.604 20.888,-16.604 2.053,0 3.858,0.115 5.631,0.375 0.555,-2.671 4.04,-19.5 4.732,-22.868 z M 4.906,158.2 c -6.23,-7.646 -6.505,-21.703 -0.948,-48.534 8.873,-42.895 21.704,-57.37 50.841,-57.37 11.64,0 19.814,2.776 24.278,8.253 2.888,3.539 4.35,8.37 4.383,14.43 0.02,3.3 -0.384,6.972 -1.215,10.985 L 81.055,91.7 H 56.5 c 0,0 1.82,-11.707 1.805,-14.289 -0.017,-2.905 -0.13,-4.478 -1.24,-5.944 -1.152,-1.518 -2.864,-2.733 -5.548,-2.733 -10.851,0 -14.417,10.336 -20.598,40.204 -4.798,23.185 -6.514,33.826 -2.808,38.372 1.406,1.716 3.522,2.551 6.49,2.551 8.546,0 11.914,-7.327 16.208,-27.709 h 24.733 c -0.487,2.36 -1.298,6.26 -1.298,6.26 -5.2,25.135 -19.933,37.89 -43.795,37.89 -12.922,0 -21.039,-2.583 -25.544,-8.102 z m 405.7,-105.466 h 7.484 l -0.25,1.19 h -3.082 l -2.214,10.724 h -1.322 l 2.217,-10.723 h -3.075 z m 16.539,0 h 2.322 l -2.47,11.914 h -1.316 l 2.033,-9.817 c 0.102,-0.51 0.234,-1.001 0.309,-1.508 h -0.03 c -0.287,0.7 -0.489,1.143 -0.698,1.603 l -4.507,9.722 h -1.57 l -0.457,-9.866 a 28.87,28.87 0 0 1 -0.043,-1.459 h -0.032 c -0.105,0.507 -0.182,1.03 -0.29,1.542 l -2.024,9.783 h -1.317 l 2.464,-11.914 h 2.337 l 0.409,9.296 c 0.024,0.506 -0.013,0.998 -0.113,1.763 h 0.035 c 0.207,-0.604 0.407,-1.193 0.669,-1.78 l 4.289,-9.28 z"
       fill="#161413"
       id="path1" />
    <path
       d="m 321.662,70.527 c 1.96,-45.206 -52.55,-79.144 -103.424,-68.59 -50.848,10.548 -75.426,54.82 -81.85,68.497 h 8.317 c 11.132,-18.723 22.403,-33.257 41.613,-38.671 12.203,-3.441 21.791,-2.652 45.393,10.516 10.87,6.067 35.471,24.305 61.9,27.948 11.482,1.585 28.051,0.3 28.051,0.3 z"
       fill="#00812e"
       id="path2" />
  </g>
</svg>
