<?xml version="1.0" encoding="UTF-8" standalone="no"?>
<svg
   width="1000"
   height="225"
   viewBox="0 0 1000 225"
   version="1.1"
   id="svg1"
   sodipodi:docname="centra_car.svg"
   inkscape:version="1.4.3 (0d15f75, 2025-12-25)"
   xmlns:inkscape="http://www.inkscape.org/namespaces/inkscape"
   xmlns:sodipodi="http://sodipodi.sourceforge.net/DTD/sodipodi-0.dtd"
   xmlns="http://www.w3.org/2000/svg"
   xmlns:svg="http://www.w3.org/2000/svg">
  <defs
     id="defs1" />
  <sodipodi:namedview
     id="namedview1"
     pagecolor="#ffffff"
     bordercolor="#000000"
     borderopacity="0.25"
     inkscape:showpageshadow="2"
     inkscape:pageopacity="0.0"
     inkscape:pagecheckerboard="0"
     inkscape:deskcolor="#d1d1d1"
     inkscape:zoom="1.1"
     inkscape:cx="559.09091"
     inkscape:cy="124.09091"
     inkscape:window-width="1920"
     inkscape:window-height="1009"
     inkscape:window-x="-8"
     inkscape:window-y="-8"
     inkscape:window-maximized="1"
     inkscape:current-layer="svg1" />
  <g
     id="g206"
     transform="translate(717.55523,17.622524)">
    <path
       style="fill:#23abde"
       d="m -178.9033,158.99491 c -138.65193,-175.708343 -138.65193,-175.708343 0,0 z m -13.67392,1.25 c -124.97801,-176.958343 -124.97801,-176.958343 0,0 z m -0.58329,-6.83333 c 0.95377,-3.4877 0,0 0,0 z M -282.427,116.3118 c 0.72187,-0.28888 1.58437,-0.25335 1.91666,0.0789 0.3323,0.33229 -0.25833,0.56864 -1.3125,0.52522 -1.16494,-0.048 -1.40189,-0.28494 -0.60416,-0.60416 z m 155,0 c 0.72187,-0.28888 1.58437,-0.25335 1.91666,0.0789 0.3323,0.33229 -0.25833,0.56864 -1.3125,0.52522 -1.16494,-0.048 -1.40189,-0.28494 -0.60416,-0.60416 z m -146.0625,-4.02262 c 1.2375,-0.23836 3.2625,-0.23836 4.5,0 1.2375,0.23835 0.225,0.43337 -2.25,0.43337 -2.475,0 -3.4875,-0.19502 -2.25,-0.43337 z m 9.44495,-2.79427 c 0.0204,-1.65 0.2445,-2.20394 0.49804,-1.23097 0.25354,0.97297 0.23687,2.32297 -0.0371,3 -0.27392,0.67703 -0.48136,-0.11903 -0.46098,-1.76903 z m -25.116,-0.0833 c 0.048,-1.16495 0.28494,-1.4019 0.60416,-0.60417 0.28887,0.72187 0.25335,1.58437 -0.0789,1.91667 -0.33229,0.33229 -0.56864,-0.25834 -0.52521,-1.3125 z m 15.67105,-3.1224 c 1.2375,-0.23836 3.2625,-0.23836 4.5,0 1.2375,0.23835 0.225,0.43337 -2.25,0.43337 -2.475,0 -3.4875,-0.19502 -2.25,-0.43337 z m -8.9375,-3.97738 c 0.72187,-0.28888 1.58437,-0.25335 1.91666,0.0789 0.3323,0.33229 -0.25833,0.56864 -1.3125,0.52522 -1.16494,-0.048 -1.40189,-0.28494 -0.60416,-0.60416 z m 67,0 c 0.72187,-0.28888 1.58437,-0.25335 1.91666,0.0789 0.3323,0.33229 -0.25833,0.56864 -1.3125,0.52522 -1.16494,-0.048 -1.40189,-0.28494 -0.60416,-0.60416 z m 88,0 c 0.72187,-0.28888 1.58437,-0.25335 1.91666,0.0789 0.3323,0.33229 -0.25833,0.56864 -1.3125,0.52522 -1.16494,-0.048 -1.40189,-0.28494 -0.60416,-0.60416 z m -64.5805,-11.316891 c 0,-1.925 0.2058,-2.7125 0.45732,-1.75 0.25153,0.9625 0.25153,2.5375 0,3.5 -0.25152,0.9625 -0.45732,0.175 -0.45732,-1.75 z m -50.86739,-15.492231 c -0.97676,-2.545391 1.59105,-14.741611 4.27578,-20.308537 3.5075,-7.27296 11.3417,-14.819736 19.29786,-18.589865 5.98151,-2.834415 7.44602,-3.109367 16.56175,-3.109367 9.11573,0 10.58023,0.274952 16.56175,3.109367 12.41409,5.882575 20.6648,16.876844 23.00025,30.648402 1.2403,7.313749 0.85876,9.742231 -1.53062,9.742231 -1.11078,0 -1.53138,-1.060531 -1.53138,-3.861328 0,-3.581886 -0.18134,-3.826663 -2.50575,-3.382324 -2.58055,0.493303 -5.86176,-1.352686 -4.96977,-2.79596 0.44999,-0.728107 -4.54364,-1.98826 -13.02448,-3.286755 -1.65,-0.25263 -5.7,-1.621866 -9,-3.042745 -8.55558,-3.68377 -17.70065,-3.57016 -31.43184,0.39048 -11.26762,3.250048 -12.86718,3.978632 -8.73483,3.978632 2.76661,0 3.81224,1.904536 1.16667,2.125 -0.825,0.06875 -2.0625,0.18125 -2.75,0.25 -1.62396,0.162396 -2.23855,4.536453 -0.83467,5.940335 0.59657,0.596566 1.08467,1.669665 1.08467,2.384665 0,1.809796 -4.9317,1.641569 -5.63539,-0.192231 z m 57.71166,-26.486975 -1.3534,-2.652753 -1.39675,2.642221 -3.24487,1.999397 3.05308,1.870135 1.36567,2.673665 1.61983,-2.82955 2.7562,-1.693186 z M -208.90195,64.2542 c -4.67588,-0.224147 -7.57911,-0.845392 -8.36262,-1.78947 -1.64893,-1.986829 0.6381,-2.767964 8.43499,-2.880976 5.99097,-0.08684 14.59008,2.602542 14.59008,4.56306 0,0.466469 -1.6875,0.758712 -3.75,0.649428 -2.0625,-0.109283 -6.9731,-0.353202 -10.91245,-0.542042 z"
       id="path208"
       sodipodi:nodetypes="sssscccsscccssccsssscsccccscccsssscsscccsscccssccssssssssssssssssssssssscccccccccssssss" />
    <path
       style="fill:#f28b20"
       d="m -261.53446,76.366616 c -1.14232,-1.142321 -0.77915,-8.353326 0.79935,-15.871707 4.56469,-21.741498 22.80914,-40.439952 44.49561,-45.602854 7.04981,-1.67835 19.95019,-1.67835 27,0 16.22075,3.861678 32.02709,16.422995 39.30756,31.237761 4.10815,8.359549 6.95953,19.905801 6.49155,26.286666 l -0.29911,4.078427 h -8 -8 l -0.66388,-7 c -1.53781,-16.214677 -9.90226,-28.255727 -24.451,-35.198455 -26.88216,-12.828298 -57.45065,5.033502 -60.23824,35.198455 l -0.64688,7 -7.54496,0.288374 c -4.14973,0.158605 -7.86223,-0.02889 -8.25,-0.416667 z"
       id="path207" />
    <path
       style="fill:#1e1e1e"
       d="m -229.85886,165.14158 c -2.87785,-1.80676 -5.38064,-6.40927 -5.38064,-9.89476 0,-0.79731 0.70977,-2.94539 1.57727,-4.77351 2.96088,-6.23958 11.72799,-8.11353 15.97957,-3.41559 2.46783,2.72692 1.0646,3.59406 -1.67929,1.03774 -8.23874,-7.67555 -18.47642,6.31082 -10.68785,14.60137 2.80683,2.98774 8.3322,3.09586 11.39035,0.22287 1.21493,-1.14136 2.47082,-1.6515 2.79087,-1.13364 0.9879,1.59846 -3.01708,4.35407 -7.04331,4.84612 -2.6992,0.32987 -4.74722,-0.10957 -6.94697,-1.4906 z m 23.7289,0.14311 c -3.13818,-2.54114 -3.13658,-7.03972 0.003,-9.58233 1.89462,-1.53418 3.51742,-1.8299 8.18781,-1.49208 l 5.82486,0.42134 -0.64073,-2.56836 c -1.43578,-5.75532 -6.24027,-7.45389 -12.89895,-4.56025 -1.3407,0.58262 -1.70248,0.48947 -1.20777,-0.31099 0.38844,-0.62852 2.44341,-1.61053 4.56658,-2.18224 4.43268,-1.19359 8.41079,-0.11086 9.8734,2.68726 1.18767,2.27216 2.10233,19.36676 0.99976,18.68534 -0.44986,-0.27803 -0.81792,-1.22369 -0.81792,-2.10148 0,-1.41143 -0.22228,-1.39481 -1.92239,0.14377 -2.99534,2.71075 -9.13745,3.15212 -11.96807,0.86002 z m 11.68205,-2.6344 c 4.7204,-4.28898 0.41691,-8.66748 -7.12785,-7.25208 -5.91374,1.10943 -7.41695,6.99258 -2.39174,9.3606 2.8709,1.35285 6.62525,0.52128 9.51959,-2.10852 z m 14.16113,-6.40742 c -0.14023,-6.19204 -0.11522,-11.25112 0.29728,-11.25 0.4125,10e-4 0.75,0.91551 0.75,2.03198 0,2.01743 0.0177,2.01683 2.87688,-0.097 1.58229,-1.16983 3.71979,-1.93965 4.75,-1.71071 1.44931,0.32208 1.05228,0.77346 -1.7548,1.995 -1.99536,0.86831 -4.02036,2.18716 -4.5,2.93078 -0.47965,0.74361 -1.0744,4.95312 -1.39095,9.35203 l -0.23153,7.998 -0.34416,0.002 -0.19599,0.0838 z m -108.55646,-33.67733 c -10.59193,-4.61076 -10.44794,-21.72631 0.22028,-26.18377 7.15268,-2.988583 15.99862,-0.705118 19.49778,5.0331 1.03301,1.69402 1.87988,3.41754 1.88194,3.83004 0.002,0.4125 -2.02126,0.75 -4.49626,0.75 -2.475,0 -4.5,-0.39541 -4.5,-0.87868 0,-0.48327 -1.26726,-1.4036 -2.81613,-2.04516 -8.43866,-3.495406 -13.99515,8.76393 -5.78532,12.76421 2.20032,1.07212 3.33633,1.09787 5.67616,0.12868 1.60891,-0.66643 2.92529,-1.6071 2.92529,-2.09037 0,-0.48327 2.025,-0.87868 4.5,-0.87868 2.475,0 4.49832,0.3375 4.49626,0.75 -0.002,0.4125 -0.84893,2.13602 -1.88194,3.83003 -3.49312,5.72832 -12.68121,8.0538 -19.71806,4.9906 z m 32.85997,-0.21529 c -9.7991,-4.83076 -9.69777,-21.07075 0.16066,-25.748879 7.09053,-3.364678 16.18862,-1.190553 20.11882,4.807699 0.90441,1.3803 1.88811,4.32679 2.186,6.54774 l 0.54163,4.0381 h -11.13167 c -6.12242,0 -11.13167,0.38025 -11.13167,0.84501 0,3.13941 9.84102,5.83927 11.5,3.15499 0.73518,-1.18955 9.5,-1.36216 9.5,-0.18709 0,1.09792 -4.97762,5.67434 -7.68426,7.0649 -3.13121,1.6087 -10.275,1.34322 -14.05951,-0.52247 z m 13.74377,-16.28391 c 0,-3.71689 -7.85645,-5.41631 -11.17126,-2.41644 -3.01342,2.72711 -2.15053,3.34501 4.67126,3.34501 3.575,0 6.5,-0.41786 6.5,-0.92857 z m 14,3.48893 V 94.994909 h 3.53138 c 2.20134,0 3.7461,0.559543 4.10148,1.485629 0.50429,1.314172 0.81488,1.314172 2.69112,0 1.16657,-0.817096 4.08052,-1.485629 6.47545,-1.485629 3.47944,0 4.94178,0.587361 7.27749,2.923077 2.68248,2.682474 2.92308,3.508164 2.92308,10.031384 0,5.39601 0.36133,7.24696 1.5,7.68391 0.985,0.37798 1.5,1.93948 1.5,4.54807 0,3.954 -0.0151,3.96932 -3.25,3.2953 -5.53704,-1.15369 -7.13375,-3.58142 -7.58285,-11.52938 -0.3503,-6.19938 -0.70289,-7.25728 -2.89822,-8.69572 -2.22923,-1.46065 -2.78419,-1.47828 -5.13416,-0.16314 -2.49154,1.39437 -2.66195,1.9891 -3.13477,10.94051 l -0.5,9.46599 -3.75,0.31036 -3.75,0.31037 z m 42.02607,13.1332 c -4.5368,-1.55874 -5.99332,-4.6949 -6.01133,-12.94356 -0.0133,-6.07842 -0.21373,-6.75 -2.01474,-6.75 -1.66077,0 -2,-0.66667 -2,-3.93045 0,-3.314673 0.3525,-3.980512 2.25,-4.25 1.7245,-0.244918 2.32318,-1.078605 2.56336,-3.569551 0.28688,-2.975418 0.60371,-3.25 3.75,-3.25 3.26092,0 3.43664,0.178958 3.43664,3.5 0,3.222223 0.23809,3.5 3,3.5 2.83333,0 3,0.222223 3,4 0,3.791691 -0.15872,4.000001 -3.04772,4.000001 h -3.04772 l 0.29772,6.25 c 0.28532,5.98979 0.41221,6.26317 3.04772,6.56642 2.4803,0.28539 2.75,0.7022 2.75,4.25 0,3.42932 -0.28843,3.92634 -2.25,3.87714 -1.2375,-0.031 -3.81327,-0.59355 -5.72393,-1.25 z m 11.97393,-0.0231 c 0,-0.79765 0.89472,-5.79871 1.98827,-11.11344 1.83747,-8.93025 1.86667,-9.84875 0.38499,-12.110083 -1.47348,-2.248819 -1.47067,-2.649314 0.0348,-4.946918 2.07481,-3.166565 5.51581,-3.226681 8.83098,-0.154283 1.96727,1.823204 4.15859,2.496978 9.83747,3.024775 4.01851,0.373481 7.52155,0.894218 7.78452,1.157191 0.26298,0.262974 -0.53609,2.643568 -1.77571,5.290198 -2.73281,5.83465 -2.47902,10.29002 0.6647,11.66925 1.77567,0.77903 2.25,1.80295 2.25,4.85699 0,3.11796 -0.30734,3.75192 -1.58179,3.26287 -0.86998,-0.33385 -2.4796,-0.60699 -3.57692,-0.60699 -1.09733,0 -3.37013,-1.37499 -5.05067,-3.05553 -2.92124,-2.92125 -3.03279,-3.33875 -2.53823,-9.5 l 0.5173,-6.44447 h -3.31395 c -3.19332,0 -3.35344,0.1911 -4.39904,5.25 -0.59681,2.8875 -1.42624,7.275 -1.84319,9.75 -0.72672,4.31382 -0.91232,4.51284 -4.4858,4.81036 -2.73273,0.22753 -3.72771,-0.0767 -3.72771,-1.13992 z m 39.18982,-0.69608 c -8.19637,-4.99719 -8.19637,-19.95154 0,-24.948726 3.9456,-2.405567 8.80915,-2.594648 12.85984,-0.499955 2.64459,1.367574 2.95034,1.367574 2.95034,0 0,-1.113293 1.08119,-1.52568 4,-1.52568 h 4 v 9.950311 c 0,8.01789 0.30604,10.12158 1.57587,10.83221 1.07349,0.60076 1.47199,1.97149 1.25,4.29969 -0.29964,3.14269 -0.56735,3.39241 -3.32587,3.10254 -1.65,-0.17338 -3.9,-0.89014 -5,-1.59279 -1.67924,-1.07264 -2.48115,-0.98283 -5,0.55999 -3.92609,2.40476 -9.18982,2.33453 -13.31018,-0.17759 z m 14.06018,-8.12779 c 5.31314,-6.27905 -3.07434,-14.918986 -9.54328,-9.83052 -1.98133,1.55852 -2.70672,3.0282 -2.70672,5.48395 0,6.70001 7.88977,9.49948 12.25,4.34657 z"
       id="path206"
       sodipodi:nodetypes="ssssssssssccscssssssssccssssscsssssscccsssscssssssscsssssscssssssssssccsssssssssssssccccssssssssssscssssssssssssssssssscssssssssssscsssssssssss" />
  </g>
  <g
     id="g175"
     transform="translate(306.81818,-12.727273)" />
</svg>
