<?xml version="1.0" encoding="UTF-8" standalone="no"?>
<!-- Created with Inkscape (http://www.inkscape.org/) -->

<svg
   version="1.1"
   id="svg1"
   width="1448"
   height="600"
   viewBox="0 0 1448 600"
   sodipodi:docname="CMO.svg"
   inkscape:version="1.4.3 (0d15f75, 2025-12-25)"
   xmlns:inkscape="http://www.inkscape.org/namespaces/inkscape"
   xmlns:sodipodi="http://sodipodi.sourceforge.net/DTD/sodipodi-0.dtd"
   xmlns="http://www.w3.org/2000/svg"
   xmlns:svg="http://www.w3.org/2000/svg">
  <defs
     id="defs1" />
  <sodipodi:namedview
     id="namedview1"
     pagecolor="#ffffff"
     bordercolor="#000000"
     borderopacity="0.25"
     inkscape:showpageshadow="2"
     inkscape:pageopacity="0.0"
     inkscape:pagecheckerboard="0"
     inkscape:deskcolor="#d1d1d1"
     inkscape:zoom="0.34181432"
     inkscape:cx="759.18412"
     inkscape:cy="332.05163"
     inkscape:window-width="1366"
     inkscape:window-height="697"
     inkscape:window-x="281"
     inkscape:window-y="1072"
     inkscape:window-maximized="1"
     inkscape:current-layer="g1" />
  <g
     inkscape:groupmode="layer"
     inkscape:label="Image"
     id="g1">
    <g
       id="g15"
       transform="matrix(5.4261401,0,0,4.7268048,-2074.4015,-446.68675)">
      <path
         style="fill:#fd831c"
         d="m 397.67745,219.68252 c -4.12006,-0.60057 -7.55132,-3.08747 -9.27433,-6.72185 -0.95292,-2.01001 -1.12927,-6.14609 -0.36633,-8.59181 1.05466,-3.3809 4.10829,-6.39959 7.58309,-7.49633 2.60377,-0.82183 6.92302,-0.78527 9.57303,0.081 1.74645,0.57091 1.88925,0.68278 2.01236,1.57636 0.16629,1.2071 0.0639,2.71403 -0.19124,2.81427 -0.10646,0.0418 -0.61116,-0.10738 -1.12154,-0.33158 -2.24956,-0.98813 -3.36794,-1.23831 -5.65437,-1.26484 -2.10395,-0.0244 -2.66304,0.0841 -4.08481,0.79254 -5.98805,2.98391 -6.12457,11.82122 -0.22944,14.85283 2.67242,1.37432 6.92871,1.34597 9.80203,-0.0653 0.65379,-0.32112 1.27701,-0.58321 1.38495,-0.58244 0.10793,7.8e-4 0.19099,0.78092 0.18457,1.73366 -0.0116,1.71922 -0.0198,1.73577 -1.09032,2.20269 -2.47415,1.0791 -5.53005,1.43773 -8.52765,1.00078 z m 21.92758,0.16482 c -2.28922,-0.32115 -3.6354,-0.87298 -5.33665,-2.18764 -3.08567,-2.38447 -4.43677,-5.30407 -4.42746,-9.56727 0.005,-2.41712 0.0987,-2.8779 0.974,-4.80391 2.32528,-5.11662 7.70522,-7.78336 13.74198,-6.81165 2.8756,0.46287 4.86436,1.44623 6.79751,3.36105 1.88588,1.86801 2.86461,3.87504 3.25992,6.68493 0.80883,5.74931 -2.33393,10.95265 -7.70366,12.7546 -1.81553,0.60925 -5.1634,0.87041 -7.30564,0.56989 z m 6.8446,-4.2135 c 2.69168,-1.48816 3.92941,-3.69724 3.97235,-7.08975 0.0391,-3.08919 -0.55332,-4.71577 -2.36338,-6.48902 -3.21269,-3.14736 -9.15669,-2.97794 -11.89739,0.33911 -1.58682,1.92051 -2.04273,3.18971 -2.0606,5.73648 -0.0253,3.59965 1.17889,6.01387 3.66959,7.35723 1.82813,0.986 2.43848,1.11713 4.87206,1.04673 1.89064,-0.0547 2.56607,-0.2145 3.80737,-0.90078 z m 104.28404,5.00265 c -3.45692,-0.47536 -5.60848,-1.75764 -6.9412,-4.13679 -0.74033,-1.32165 -0.76658,-1.53035 -0.80506,-6.40219 -0.0219,-2.76981 -0.0597,-6.7359 -0.0841,-8.81354 l -0.0443,-3.77753 1.93578,0.0143 1.93579,0.0143 -0.0468,6.94623 c -0.0262,3.89153 0.0861,7.60873 0.25545,8.45273 0.56994,2.84104 2.66936,4.45537 5.82364,4.47803 2.94759,0.0212 5.20113,-1.51854 5.89383,-4.02688 0.17099,-0.61918 0.32588,-4.30181 0.35457,-8.4305 l 0.051,-7.33105 2.00748,0.0144 2.00748,0.0144 -0.0504,7.49099 c -0.0552,8.19571 -0.33003,10.15331 -1.67824,11.9529 -2.13149,2.84508 -6.0838,4.16319 -10.61494,3.54013 z m 45.26251,0.3339 c -1.21767,-0.13195 -2.70552,-0.53584 -3.65075,-0.99103 -2.1059,-1.01414 -4.52972,-3.45187 -5.50324,-5.53484 -0.71373,-1.52712 -0.7776,-1.95546 -0.75661,-5.07427 0.0205,-3.05028 0.10207,-3.57751 0.77995,-5.04364 1.86087,-4.02472 5.48949,-6.44376 10.34212,-6.89462 6.87714,-0.63896 12.75391,3.93597 13.3802,10.41619 0.38986,4.0338 -0.61599,7.07844 -3.21209,9.7228 -1.60383,1.63363 -4.34528,3.07617 -6.29125,3.31041 -2.50135,0.30109 -3.04347,0.31058 -5.08833,0.089 z m 5.0661,-3.66203 c 2.16076,-0.6459 4.4173,-2.92698 5.05306,-5.10801 1.00844,-3.45957 0.37702,-6.40903 -1.87367,-8.75214 -5.19165,-5.40484 -14.03661,-1.87801 -14.1151,5.62825 -0.0117,1.11915 0.19324,2.60962 0.48039,3.4936 1.31296,4.04194 5.8724,6.10825 10.45532,4.7383 z m -115.42588,2.4787 c -0.62953,-0.21062 -1.56251,-0.61172 -2.07328,-0.89134 -0.91269,-0.49964 -0.92843,-0.54392 -0.91476,-2.57422 0.008,-1.1362 0.0739,-2.06539 0.14734,-2.06486 0.0734,5.2e-4 0.74819,0.40993 1.49956,0.90979 4.25317,2.8295 9.35952,2.13505 9.38248,-1.27597 0.01,-1.47954 -0.71177,-2.12081 -4.53296,-4.02764 -1.88652,-0.9414 -3.85263,-2.08588 -4.36911,-2.54328 -3.16058,-2.79904 -2.52539,-7.71078 1.25141,-9.67678 2.43655,-1.26833 6.89153,-1.2099 9.37829,0.12302 l 1.1301,0.60574 -0.0139,2.06741 c -0.008,1.13708 -0.0727,2.06699 -0.14457,2.06648 -0.0719,-5.2e-4 -0.60475,-0.33823 -1.18419,-0.75048 -3.63182,-2.58386 -8.4181,-1.94734 -8.43876,1.12225 -0.007,1.00482 1.51041,2.20126 4.53833,3.57891 3.511,1.59745 5.27951,2.99428 6.04957,4.77818 1.48647,3.44352 -0.38539,7.52575 -3.93777,8.58764 -1.73271,0.51795 -6.17503,0.49802 -7.76776,-0.0349 z m -27.31184,-11.48244 0.0768,-11.40388 1.79239,0.0139 1.79239,0.0139 5.4037,6.75031 c 2.97204,3.71268 5.97962,7.47174 6.68351,8.35347 l 1.27979,1.60316 0.13208,-8.30559 0.13208,-8.30559 1.85962,0.0134 1.85963,0.0134 -0.0768,11.40388 -0.0768,11.40388 -1.79235,-0.0201 -1.79234,-0.0201 -5.12002,-6.28919 c -2.816,-3.45905 -5.82402,-7.15254 -6.68448,-8.20774 l -1.56447,-1.91855 -0.13121,8.16605 -0.13121,8.16605 -1.85955,-0.0134 -1.85956,-0.0134 z m 49.18858,3.38933 c 0.0451,-4.60209 0.0306,-8.98499 -0.0323,-9.73979 l -0.11426,-1.37235 -3.70285,0.094 -3.70286,0.094 0.012,-1.78518 0.012,-1.78518 9.60724,0.069 9.60725,0.069 -0.01,1.48103 c -0.005,0.81456 -0.0106,1.58099 -0.0114,1.70317 -7.5e-4,0.12219 -1.71143,0.21814 -3.8015,0.21324 l -3.80012,-0.009 -0.0652,9.68241 -0.0652,9.68241 -2.00749,-0.0147 -2.00748,-0.0147 z m 15.33791,-2.95841 0.077,-11.43636 5.23299,0.15689 c 4.53257,0.13588 5.40881,0.24069 6.54651,0.78302 2.34311,1.11694 3.6667,3.25737 3.64891,5.90078 -0.0177,2.62262 -1.49349,4.82381 -3.83883,5.72558 -0.96938,0.37272 -1.17931,-0.0479 2.90476,5.82025 l 3.10792,4.46561 -2.21053,0.0766 c -2.03019,0.0703 -2.2503,0.0204 -2.69805,-0.61181 -0.26813,-0.37862 -1.52346,-2.22876 -2.78962,-4.11144 -3.09356,-4.59989 -2.95468,-4.46451 -4.59179,-4.47626 l -1.38946,-0.01 -0.0309,4.59117 -0.0309,4.59118 -2.00748,-0.0144 -2.00749,-0.0144 z m 9.58018,-1.45558 c 0.4957,-0.28968 1.15148,-1.04323 1.45731,-1.67456 0.50464,-1.04177 0.51935,-1.25745 0.1591,-2.33353 -0.59929,-1.79014 -1.39692,-2.23345 -4.47503,-2.48713 l -2.6514,-0.21852 -0.0255,3.78896 -0.0255,3.78897 2.32989,-0.16875 c 1.42792,-0.10342 2.67879,-0.37265 3.23115,-0.69544 z m 41.169,3.52741 0.0655,-9.72908 -3.72878,0.062 -3.72878,0.062 0.0119,-1.76359 0.0119,-1.76358 9.46385,0.068 9.46386,0.068 -0.0116,1.7191 -0.0116,1.7191 -3.72779,-0.0851 -3.72779,-0.0851 -0.0656,9.74313 -0.0656,9.74313 -2.00749,-0.0144 -2.00748,-0.0144 z m 40.7347,-1.41011 0.077,-11.43163 5.37649,0.14205 c 5.11224,0.13506 5.45626,0.18128 6.99931,0.9404 2.04593,1.00651 3.05433,2.48695 3.26977,4.80038 0.0837,0.89832 0.0612,2.11517 -0.0499,2.7041 -0.25542,1.35423 -1.63391,2.96656 -3.24845,3.79951 l -1.2501,0.64493 3.41129,4.99288 3.41128,4.99288 -2.35382,-0.103 -2.35383,-0.10299 -3.00092,-4.46484 -3.00093,-4.46483 -1.64358,-0.10064 -1.64358,-0.10064 -0.031,4.60595 -0.031,4.60596 -2.00749,-0.0144 -2.00748,-0.0144 z m 9.72172,-1.36293 c 1.72785,-0.90719 2.47959,-2.84603 1.78673,-4.60824 -0.51677,-1.31437 -1.4917,-1.70773 -4.57636,-1.84643 l -2.72007,-0.12232 -0.10375,3.23863 c -0.0571,1.78125 -0.0329,3.43324 0.0536,3.67109 0.12842,0.35297 0.58402,0.39879 2.47879,0.24928 1.2768,-0.10075 2.66328,-0.36266 3.08106,-0.58201 z m 8.55627,12.80679 c 6e-4,-0.0892 7.4245,-16.42542 9.97554,-21.95115 0.27069,-0.58632 0.52008,-0.66276 2.12474,-0.65123 1.08954,0.008 1.81722,0.13888 1.81595,0.32705 -10e-4,0.1727 1.22596,3.21406 2.72694,6.75857 3.98938,9.42081 6.58668,15.6256 6.58595,15.73345 -3.5e-4,0.0521 -0.98027,0.0487 -2.17759,-0.008 l -2.17697,-0.10215 -1.1828,-2.97069 -1.1828,-2.97068 -4.89714,-0.11605 -4.89714,-0.11605 -1.25638,3.1081 -1.25638,3.1081 -2.10136,-0.0151 c -1.15575,-0.008 -2.101,-0.0689 -2.10056,-0.13467 z m 15.16017,-9.3246 c -0.089,-0.20429 -0.85186,-2.15229 -1.69537,-4.32888 -0.8435,-2.1766 -1.59126,-4.01779 -1.66168,-4.09155 -0.0704,-0.0738 -0.36386,0.50034 -0.65207,1.27577 -0.28821,0.77544 -1.09431,2.72264 -1.79132,4.32712 -0.69702,1.60448 -1.26763,2.96669 -1.26804,3.02714 -4.1e-4,0.0604 1.62622,0.12159 3.61473,0.13587 2.78878,0.02 3.5785,-0.059 3.45375,-0.34547 z m -24.92411,-65.24181 c -7.48776,-2.73161 -7.90907,-13.32296 -0.66349,-16.67937 2.14212,-0.99231 5.50063,-0.92129 7.45566,0.15766 1.96321,1.08346 3.5123,2.74445 4.34562,4.65952 0.60718,1.39538 0.68191,1.91975 0.55701,3.9084 -0.11633,1.85238 -0.31402,2.60429 -1.02165,3.88587 -2.10556,3.8134 -6.63682,5.54042 -10.67315,4.06792 z"
         id="path18" />
      <path
         style="fill:#005081"
         d="m 425.54335,179.13529 c 0.19771,-0.0807 0.52035,-0.0784 0.71696,0.005 0.19661,0.0836 0.0348,0.14966 -0.35949,0.14683 -0.39433,-0.003 -0.55519,-0.0712 -0.35747,-0.15198 z m 10.62895,0.0702 c 0.2076,-0.0841 0.45488,-0.0718 0.54951,0.0273 0.0946,0.0991 -0.0752,0.1679 -0.37745,0.15287 -0.33399,-0.0166 -0.40147,-0.0873 -0.17206,-0.1802 z m -9.46354,-0.31561 c -0.0482,-0.0495 -1.23918,-0.17793 -2.64659,-0.28552 -9.38572,-0.7175 -20.06338,-5.09858 -27.11603,-11.1258 -1.59911,-1.36661 -2.14153,-1.70092 -1.78911,-1.10269 0.37852,0.64252 -0.0903,0.21963 -1.71932,-1.55096 -0.93465,-1.01586 -1.47471,-1.66991 -1.20013,-1.45344 0.6691,0.52749 0.63888,0.068 -0.0461,-0.70055 -2.54563,-2.85616 -5.64176,-8.42176 -7.05154,-12.67583 -1.7124,-5.16725 -2.09866,-7.85088 -2.04615,-14.21642 0.061,-7.39744 0.72882,-10.70722 3.47904,-17.24282 0.25933,-0.61626 0.38393,-1.26913 0.27689,-1.45082 -0.11206,-0.19022 -0.0655,-0.24663 0.10981,-0.13299 0.17264,0.11192 0.70589,-0.47351 1.23188,-1.35243 0.51011,-0.85238 1.43428,-2.24024 2.05371,-3.08413 1.15555,-1.57428 1.38029,-2.04909 0.79613,-1.68196 -0.20767,0.13051 -0.25373,0.0793 -0.12267,-0.13635 0.11542,-0.18992 0.30677,-0.28248 0.42523,-0.20568 0.26877,0.17425 4.72573,-4.35973 4.50891,-4.58681 -0.0869,-0.091 0.0648,-0.34946 0.33696,-0.57437 0.32749,-0.27058 0.42123,-0.28419 0.27707,-0.0402 -0.11982,0.20279 -0.10119,0.36955 0.0414,0.37058 0.36652,0.003 1.25048,-1.04111 1.05506,-1.24578 -0.0891,-0.0933 0.0692,-0.14801 0.35177,-0.12154 0.28258,0.0265 0.51794,-0.10736 0.52302,-0.2974 0.005,-0.19004 0.12747,-0.45576 0.27197,-0.59049 0.15265,-0.14232 0.17525,-0.0904 0.0539,0.12382 -0.29377,0.51888 0.039,0.46068 0.93156,-0.16291 3.44107,-2.40413 11.1998,-5.491233 15.71683,-6.253534 6.00568,-1.013529 6.89357,-1.082963 13.19962,-1.032229 6.71397,0.05402 11.6191,0.406193 14.83482,1.065108 4.02778,0.82531 8.6896,2.146289 10.89455,3.087095 l 2.34209,0.99932 0.002,10.92813 c 10e-4,7.9952 -0.0881,11.01197 -0.33284,11.24047 -0.24229,0.22619 -0.2767,0.20838 -0.12477,-0.0646 0.14742,-0.26483 -0.58284,-0.76942 -2.45598,-1.69703 -11.64608,-5.76736 -25.85464,-6.12019 -32.93092,-0.81776 -0.9618,0.7207 -1.68357,1.42097 -1.60393,1.55614 0.17376,0.29496 -1.11005,1.58511 -1.33886,1.34548 -0.29205,-0.30588 -1.98008,2.04369 -2.97309,4.13825 -1.33637,2.81882 -1.7163,5.03743 -1.58176,9.23675 0.0821,2.56148 0.27922,4.00163 0.74097,5.41256 0.62645,1.91422 2.75095,5.65541 3.2134,5.65873 0.13359,9.6e-4 0.14709,-0.16556 0.03,-0.37006 -0.14464,-0.25263 -0.0582,-0.24038 0.26962,0.0382 0.52234,0.44388 0.65999,0.78485 0.19519,0.48352 -0.54626,-0.35415 -0.28484,0.34315 0.37033,0.98779 0.78968,0.77697 1.28217,0.86499 0.73275,0.13095 -0.35302,-0.47164 -0.34295,-0.48246 0.10589,-0.11379 0.2728,0.22407 0.43361,0.51005 0.35737,0.6355 -0.20586,0.33875 0.63621,0.97556 0.99328,0.75116 0.16927,-0.10638 0.27112,-0.0171 0.22633,0.19829 -0.0451,0.21664 0.1416,0.37516 0.41761,0.35468 0.27448,-0.0204 0.42619,0.0829 0.33712,0.22946 -0.29608,0.48719 3.97577,2.33883 6.84595,2.96738 4.99715,1.09435 12.65795,0.77617 18.68718,-0.77616 2.60944,-0.67185 6.66662,-2.10483 8.25362,-2.91514 0.58726,-0.29985 1.1374,-0.54469 1.22255,-0.54407 0.0852,6.1e-4 0.11866,5.29947 0.0745,11.77524 l -0.0804,11.77413 -1.99878,0.85099 c -1.09934,0.46805 -1.93434,0.9604 -1.85557,1.09411 0.0788,0.13371 -0.0776,0.15375 -0.34758,0.0445 -0.36779,-0.14881 -0.43324,-0.0928 -0.26113,0.22368 0.16913,0.31094 0.14214,0.33818 -0.10239,0.10332 -0.2379,-0.22849 -0.88075,-0.13913 -2.26688,0.31513 -1.06414,0.34874 -3.00825,0.86468 -4.32026,1.14653 -1.312,0.28186 -2.26209,0.59245 -2.11131,0.6902 0.15078,0.0977 -0.45563,0.1793 -1.34758,0.18121 -0.89194,0.002 -3.09498,0.15853 -4.89564,0.34803 -2.82753,0.29756 -9.86461,0.37807 -10.12038,0.11578 z m -31.69227,-12.93826 c 0.002,-0.24478 -1.91916,-2.25652 -2.15615,-2.25822 -0.13168,-9.5e-4 0.26105,0.53507 0.87274,1.19114 1.08523,1.16397 1.28166,1.32729 1.28341,1.06708 z m 23.96219,-43.48298 c -0.19136,-0.20041 -1.01607,0.53248 -1.01858,0.90518 -0.001,0.16821 0.25847,0.0657 0.57689,-0.22779 0.31842,-0.2935 0.51718,-0.59833 0.44169,-0.67739 z m 182.38287,57.62693 c 0.2076,-0.0841 0.45488,-0.0718 0.54951,0.0273 0.0946,0.0991 -0.0752,0.1679 -0.37745,0.15287 -0.33399,-0.0166 -0.40147,-0.0873 -0.17206,-0.1802 z m 7.72519,0.0617 c 0.19772,-0.0808 0.52035,-0.0784 0.71696,0.005 0.19661,0.0836 0.0348,0.14966 -0.35949,0.14683 -0.39432,-0.003 -0.55519,-0.0712 -0.35747,-0.15198 z m -6.23583,-0.29824 c -0.23628,-0.0494 -1.71905,-0.25871 -3.29504,-0.46513 -4.8524,-0.63556 -10.22084,-2.30786 -14.25016,-4.43903 -1.06747,-0.5646 -2.08511,-0.93588 -2.26144,-0.82507 -0.18085,0.11366 -0.23992,0.0687 -0.13553,-0.10303 0.10178,-0.16748 -0.35881,-0.678 -1.02354,-1.13448 -0.66473,-0.45648 -1.94819,-1.41505 -2.85213,-2.13016 -1.75542,-1.38871 -2.23249,-1.62115 -1.60404,-0.78153 0.35472,0.47391 0.34421,0.48344 -0.11592,0.10506 -0.27831,-0.22886 -0.43426,-0.48922 -0.34655,-0.57856 0.2199,-0.22398 -3.31959,-3.92802 -3.5907,-3.75764 -0.12,0.0754 -0.31051,-0.0196 -0.42336,-0.21118 -0.12815,-0.21752 -0.0814,-0.26805 0.12449,-0.13456 0.57883,0.37526 0.36742,-0.0292 -1.2516,-2.39445 -3.67584,-5.37011 -5.58728,-10.09975 -7.06589,-17.48368 -0.098,-0.48946 -0.21867,-3.77419 -0.26812,-7.29939 -0.0796,-5.67397 -0.0173,-6.78717 0.54282,-9.70108 1.07718,-5.60383 3.46467,-11.44709 6.13912,-15.02519 1.19494,-1.59869 1.40846,-2.02636 0.83029,-1.66301 -0.21249,0.13354 -0.25352,0.079 -0.11367,-0.15115 0.12037,-0.19807 0.29174,-0.28379 0.38082,-0.19049 0.19539,0.20463 1.21812,-0.69382 1.22066,-1.07234 0.001,-0.14727 -0.16018,-0.16883 -0.35817,-0.0479 -0.23819,0.14548 -0.22371,0.0489 0.0428,-0.28559 0.22152,-0.278 0.47174,-0.43323 0.55603,-0.34494 0.20786,0.21768 1.79316,-1.35271 1.63558,-1.62019 -0.0688,-0.11671 0.15392,-0.46129 0.49484,-0.76572 0.34092,-0.30444 0.52441,-0.38758 0.40775,-0.18477 -0.3897,0.67751 0.14728,0.38272 1.64877,-0.90513 1.6431,-1.40932 4.42741,-3.3569 5.8905,-4.12031 0.51963,-0.27113 0.88316,-0.59758 0.80783,-0.72544 -0.0753,-0.12786 0.14694,-0.22056 0.49391,-0.206 0.34697,0.0145 0.61024,-0.10698 0.58505,-0.27008 -0.0252,-0.16311 0.23397,-0.31805 0.57591,-0.34432 0.34195,-0.0263 2.10942,-0.57124 3.92772,-1.21104 5.49516,-1.933571 6.99713,-2.152184 15.07163,-2.193683 7.37195,-0.03789 9.83652,0.230814 14.32934,1.562275 1.73773,0.51498 6.72823,2.586618 7.21781,2.996228 0.19407,0.16237 0.55532,0.21664 0.80278,0.12059 0.24745,-0.096 0.37423,-0.0501 0.28173,0.10213 -0.22357,0.36788 0.91235,0.99137 1.32905,0.72949 0.18779,-0.11801 0.2471,-0.0745 0.13956,0.10249 -0.10338,0.17011 0.63467,0.86909 1.65036,1.56302 1.01055,0.69042 1.98797,1.44539 2.17203,1.67773 0.48635,0.6139 0.98085,0.52358 0.51812,-0.0946 -0.35473,-0.47391 -0.34421,-0.48344 0.11592,-0.10506 0.27831,0.22886 0.43498,0.48848 0.34815,0.57692 -0.19664,0.2003 2.14756,2.73125 2.53227,2.73402 0.1544,0.001 -0.0942,-0.4339 -0.55236,-0.96668 -0.45819,-0.53278 -0.22532,-0.37006 0.51751,0.36161 1.29528,1.27583 1.95581,2.17034 0.77885,1.05474 -0.31348,-0.29714 -0.57082,-0.41335 -0.57186,-0.25825 -0.002,0.35047 2.24677,2.67684 2.45838,2.54281 0.0848,-0.0537 0.2395,0.002 0.34384,0.12401 0.10434,0.12191 0.029,0.12461 -0.16734,0.006 -0.60601,-0.36602 -0.40732,0.0864 0.87691,1.99674 4.90294,7.29324 7.24979,15.43586 7.18697,24.9358 -0.0303,4.58361 -1.67361,12.50126 -3.3797,16.28394 -0.41587,0.92205 -0.75673,1.76473 -0.75745,1.87261 -0.003,0.37373 -2.4249,4.36845 -3.71618,6.12831 -0.71349,0.9724 -2.44533,2.95944 -3.84853,4.41565 -1.4032,1.45621 -2.52232,2.78098 -2.48693,2.94394 0.0354,0.16296 -0.12924,0.29508 -0.36584,0.29359 -0.2366,-10e-4 -1.43292,0.69249 -2.6585,1.54216 -5.35208,3.71051 -11.47204,6.0644 -18.31139,7.04303 -2.08229,0.29795 -8.35241,0.55409 -9.20415,0.37599 z m 2.85809,-25.67314 c -0.16236,-0.28362 -0.11585,-0.2907 0.19956,-0.0303 0.90939,0.75067 5.3769,-0.39342 8.31481,-2.12936 1.38521,-0.81848 4.32554,-3.50376 4.32857,-3.9531 0.001,-0.14889 -0.14781,-0.17668 -0.33069,-0.0617 -0.20768,0.13051 -0.25373,0.0793 -0.12267,-0.13634 0.11542,-0.18993 0.32383,-0.27143 0.46313,-0.18112 0.36372,0.23581 1.23887,-1.23387 0.98815,-1.65946 -0.13432,-0.22801 -0.0889,-0.27796 0.12613,-0.13858 0.42111,0.273 1.69141,-2.54675 2.10444,-4.67136 0.5541,-2.85023 0.2435,-8.40209 -0.46224,-8.26244 -0.18374,0.0364 -0.24465,-0.19592 -0.14835,-0.56576 0.11075,-0.42531 0.057,-0.56063 -0.1667,-0.42002 -0.20961,0.13173 -0.27031,0.0498 -0.16631,-0.22436 0.22572,-0.59515 -0.66879,-2.33959 -1.0703,-2.08725 -0.19824,0.12458 -0.23841,0.0666 -0.10544,-0.15221 0.25642,-0.42194 -0.59886,-1.90405 -0.96572,-1.67349 -0.1405,0.0883 -0.34779,0.004 -0.46064,-0.18775 -0.12815,-0.21752 -0.0814,-0.26805 0.12448,-0.13456 0.72017,0.46688 0.27152,-0.35639 -0.78054,-1.43231 -0.6125,-0.62639 -1.24599,-1.05571 -1.40775,-0.95405 -0.16176,0.10166 -0.38645,0.0281 -0.4993,-0.16346 -0.13649,-0.23169 -0.0708,-0.27381 0.19613,-0.12582 0.22072,0.12235 0.0806,-0.062 -0.31143,-0.40965 -3.66277,-3.24842 -10.4458,-4.33641 -15.25184,-2.44637 -0.43292,0.17025 -0.71832,0.42635 -0.63423,0.5691 0.0841,0.14275 -0.068,0.17018 -0.3379,0.061 -0.33076,-0.13382 -0.4246,-0.0862 -0.28778,0.14605 0.13286,0.22552 0.0489,0.28225 -0.24307,0.16413 -0.5159,-0.20874 -1.97454,0.66312 -1.74924,1.04556 0.0832,0.14116 -0.12834,0.17901 -0.47,0.0841 -0.48882,-0.13578 -0.5837,-0.0695 -0.44521,0.31116 0.0968,0.26605 0.032,0.5742 -0.14395,0.68479 -0.19374,0.12175 -0.23831,0.0667 -0.11301,-0.13943 0.39896,-0.6565 -0.23885,-0.3347 -1.18186,0.59629 -0.92095,0.9092 -1.30193,1.66879 -0.623,1.24211 0.20767,-0.13051 0.25373,-0.0793 0.12266,0.13634 -0.11541,0.18993 -0.31491,0.27721 -0.44331,0.19396 -0.33716,-0.21858 -0.96194,0.64081 -0.7399,1.01772 0.103,0.17484 0.0166,0.28003 -0.19198,0.23376 -0.20975,-0.0465 -0.36323,0.14626 -0.3434,0.43134 0.0197,0.2835 -0.0732,0.44475 -0.20651,0.35833 -0.29734,-0.19277 -1.16944,1.52716 -1.87102,3.68999 -0.3713,1.14463 -0.53164,2.5616 -0.55261,4.88365 -0.0252,2.79089 0.0812,3.61117 0.72487,5.58709 0.83566,2.56536 1.52498,3.85505 1.92583,3.60313 0.14501,-0.0911 0.24443,-0.0559 0.22094,0.0782 -0.11384,0.64999 0.11708,1.06635 1.29601,2.33677 0.76474,0.8241 1.41109,1.28951 1.61387,1.16207 0.19848,-0.12473 0.26113,-0.0857 0.15163,0.0945 -0.25327,0.41675 0.55165,1.07753 0.98263,0.80667 0.20693,-0.13004 0.2693,-0.0921 0.15576,0.0947 -0.4076,0.6707 3.42203,2.36937 6.21389,2.75623 2.65751,0.36825 2.80058,0.36667 2.57441,-0.0284 z m 15.78801,-14.20191 c 0.0161,-0.34496 0.0845,-0.41466 0.17447,-0.17771 0.0814,0.21442 0.0695,0.46982 -0.0265,0.56756 -0.096,0.0977 -0.16256,-0.0777 -0.14801,-0.38985 z m -31.48949,-2.12688 c 0.004,-0.57019 0.0644,-0.80303 0.13464,-0.51741 0.0702,0.28561 0.0671,0.75213 -0.007,1.03671 -0.074,0.28458 -0.1315,0.0509 -0.12766,-0.5193 z m 13.75633,-16.39561 c 0.2076,-0.0841 0.45488,-0.0718 0.54951,0.0273 0.0946,0.0991 -0.0752,0.16791 -0.37745,0.15287 -0.33399,-0.0166 -0.40147,-0.0873 -0.17206,-0.1802 z m -27.67386,-13.62246 c 0.001,-0.16292 -0.0549,-0.29662 -0.12447,-0.29712 -0.0695,-5e-4 -0.20712,0.13181 -0.3057,0.29403 -0.0986,0.16221 -0.0426,0.29591 0.12447,0.29711 0.16704,0.001 0.30461,-0.13111 0.3057,-0.29402 z m 35.88454,72.03659 c 0.2076,-0.0841 0.45488,-0.0718 0.54951,0.0273 0.0946,0.0991 -0.0752,0.1679 -0.37745,0.15287 -0.33399,-0.0166 -0.40147,-0.0873 -0.17206,-0.1802 z m -148.7978,-42.04069 0.2652,-39.395237 13.01461,0.09346 13.01461,0.09346 0.76267,1.047793 c 0.42022,0.577304 0.90355,0.959254 1.07642,0.850614 0.19178,-0.12052 0.23025,-0.0598 0.099,0.15625 -0.24395,0.40142 0.3433,1.29249 0.70287,1.06651 0.12952,-0.0814 0.32781,0.009 0.44067,0.20031 0.12814,0.21752 0.0814,0.26805 -0.12449,0.13456 -0.61416,-0.39816 -0.33642,0.1567 0.96666,1.93118 0.73627,1.00261 1.43412,1.68374 1.61111,1.57251 0.19036,-0.11964 0.22836,-0.0582 0.0973,0.1574 -0.25419,0.41826 2.01149,3.69732 2.39022,3.45931 0.13915,-0.0874 0.34534,-0.002 0.45819,0.18929 0.12815,0.21752 0.0814,0.26805 -0.12449,0.13456 -0.18132,-0.11755 -0.33051,-0.0889 -0.33154,0.0637 -0.002,0.31913 0.87923,1.14621 1.06505,0.99943 0.0681,-0.0538 0.20924,0.002 0.31358,0.1238 0.10434,0.12191 0.029,0.12461 -0.16734,0.006 -0.19637,-0.1186 -0.35788,-0.0908 -0.35891,0.0618 -0.002,0.36154 0.71945,0.98755 0.91228,0.79112 0.0819,-0.0834 0.32698,0.0861 0.54467,0.37676 0.35991,0.48046 0.35054,0.49119 -0.10332,0.11826 -0.83785,-0.68845 -0.56575,-0.0833 0.79694,1.77234 0.71438,0.97281 1.4104,1.69865 1.54671,1.61299 0.13632,-0.0857 0.34018,9.7e-4 0.45303,0.19253 0.12815,0.21752 0.0814,0.26805 -0.12449,0.13457 -0.18132,-0.11755 -0.33051,-0.0889 -0.33154,0.0637 -0.002,0.31583 0.85284,1.12209 1.11251,1.04914 0.0942,-0.0265 0.23535,0.0292 0.31358,0.12379 0.0782,0.0946 -0.0184,0.0749 -0.2148,-0.0437 -0.59104,-0.35697 -0.40946,0.11255 0.51806,1.33954 0.48276,0.63864 0.98703,1.09249 1.12058,1.00855 0.13356,-0.0839 0.33516,0.004 0.44801,0.19569 0.12815,0.21752 0.0814,0.26805 -0.12449,0.13456 -0.18131,-0.11755 -0.33051,-0.0889 -0.33153,0.0637 -0.002,0.31583 0.85283,1.1221 1.1125,1.04914 0.0942,-0.0265 0.23535,0.0292 0.31359,0.1238 0.0782,0.0946 -0.0184,0.0749 -0.21481,-0.0437 -0.19637,-0.1186 -0.35788,-0.0908 -0.35891,0.0618 -0.002,0.31583 0.85284,1.1221 1.11251,1.04914 0.0942,-0.0265 0.23535,0.0292 0.31358,0.1238 0.0782,0.0946 -0.0184,0.0749 -0.2148,-0.0437 -0.19638,-0.11861 -0.35789,-0.0908 -0.35892,0.0618 -0.002,0.32273 0.9042,1.16866 1.01758,0.94972 0.042,-0.0812 0.18314,-0.0255 0.31359,0.12379 0.14002,0.16022 0.0757,0.1732 -0.15692,0.0317 -0.22353,-0.13594 -0.34777,-0.11905 -0.28706,0.039 0.27014,0.70337 3.27475,4.84489 3.62906,5.00226 0.33987,0.15096 0.3402,0.10246 0.002,-0.33269 -0.34551,-0.44488 -0.3364,-0.48603 0.072,-0.32488 0.32978,0.13015 0.7335,-0.19231 1.36965,-1.09394 0.94716,-1.34242 1.12796,-1.80127 0.57211,-1.45194 -0.20135,0.12654 -0.25398,0.0797 -0.13342,-0.11865 0.10951,-0.18019 0.35588,-0.2664 0.5475,-0.19158 0.44047,0.172 1.74033,-1.83358 1.47753,-2.27969 -0.11751,-0.19946 -0.0661,-0.24795 0.12882,-0.12156 0.20135,0.13053 1.58836,-1.52193 3.65862,-4.35881 3.246,-4.44801 3.69221,-5.14849 3.00421,-4.71611 -0.20767,0.13051 -0.25372,0.0793 -0.12266,-0.13635 0.11542,-0.18992 0.32058,-0.27352 0.45591,-0.18578 0.2157,0.13983 7.8102,-9.89995 7.81309,-10.32874 6.1e-4,-0.0912 -0.14852,-0.0718 -0.3314,0.0431 -0.20767,0.13051 -0.25373,0.0793 -0.12266,-0.13634 0.11541,-0.18992 0.32042,-0.27363 0.45557,-0.18601 0.13515,0.0876 0.84848,-0.63823 1.58519,-1.61299 l 1.33947,-1.772288 13.4979,0.09694 13.49791,0.09694 -0.18547,0.924348 c -0.10201,0.5084 -0.30201,18.23567 -0.44444,39.39395 l -0.25898,38.46959 -13.04864,-0.0937 -13.04865,-0.0937 0.15064,-23.02996 c 0.098,-14.97801 0.0524,-22.8753 -0.13034,-22.58764 -0.25279,0.39791 -0.41165,0.21194 -0.31826,-0.37256 0.0884,-0.55313 -0.45807,-0.12137 -1.11918,0.88429 -0.91892,1.39784 -1.03738,1.68474 -0.57587,1.3947 0.24434,-0.15356 0.29865,-0.11525 0.16002,0.11286 -0.11541,0.18992 -0.32109,0.27319 -0.45706,0.18505 -0.13596,-0.0881 -0.58126,0.28563 -0.98956,0.83062 -0.78968,1.05406 -0.95902,1.54861 -0.41269,1.20527 0.21248,-0.13353 0.25351,-0.079 0.11366,0.15115 -0.12037,0.19807 -0.29035,0.28525 -0.37772,0.19374 -0.19924,-0.20866 -0.9324,0.39149 -0.93492,0.76531 -10e-4,0.15258 0.1601,0.18269 0.35805,0.0669 0.20911,-0.1223 0.25902,-0.0982 0.11911,0.0574 -0.13244,0.14736 -0.37756,0.26695 -0.54471,0.26575 -0.31217,-0.002 -6.27522,7.7618 -6.29203,8.19237 -0.005,0.13177 0.14029,0.14555 0.32317,0.0306 0.20767,-0.13051 0.25373,-0.0793 0.12266,0.13634 -0.11542,0.18992 -0.31776,0.27536 -0.44964,0.18986 -0.13189,-0.0855 -0.57695,0.2526 -0.98903,0.75134 -0.77265,0.93513 -1.00706,1.64828 -0.42064,1.27974 0.20767,-0.13051 0.25372,-0.0793 0.12266,0.13634 -0.11542,0.18992 -0.31916,0.27445 -0.45275,0.18784 -0.13359,-0.0866 -1.03205,0.87118 -1.99657,2.12842 -1.69064,2.20372 -2.13566,2.99617 -1.43543,2.55611 0.20767,-0.13051 0.25373,-0.0793 0.12267,0.13634 -0.11542,0.18992 -0.32349,0.27164 -0.46238,0.1816 -0.39117,-0.2536 -3.55089,4.17941 -3.30187,4.63243 0.11646,0.21188 0.10452,0.28326 -0.0265,0.15864 -0.13105,-0.12462 -0.54999,0.0717 -0.93098,0.43625 l -0.6927,0.66284 -0.81115,-1.0412 c -0.44612,-0.57266 -0.93869,-1.04212 -1.09459,-1.04324 -0.1559,-0.001 -0.39018,-0.12414 -0.52063,-0.27339 -0.13779,-0.15766 -0.0876,-0.181 0.11988,-0.0557 0.95578,0.57727 0.85566,0.43537 -13.80547,-19.56665 -2.24231,-3.05916 -4.18515,-5.4941 -4.31741,-5.41098 -0.13227,0.0831 -0.33282,-0.006 -0.44567,-0.19716 -0.12814,-0.21753 -0.0814,-0.26805 0.12449,-0.13457 0.55416,0.35927 0.37002,-0.287 -0.24894,-0.87369 -0.51031,-0.4837 -0.55962,-0.48973 -0.39919,-0.0488 0.10765,0.29587 0.045,0.5021 -0.15201,0.50068 -0.25343,-0.002 -0.35095,5.58985 -0.40031,22.95414 l -0.0652,22.95654 -13.12035,-0.0942 -13.12034,-0.0943 z m -6.33515,23.05959 c 0.04,-5.94631 0.0947,-8.37862 0.12144,-5.40513 0.0268,2.9735 -0.006,7.83866 -0.0728,10.81148 -0.0668,2.97282 -0.0887,0.53996 -0.0487,-5.40635 z m 178.49122,8.00218 c 3.4e-4,-0.051 0.42268,-0.48116 0.93852,-0.95597 l 0.93791,-0.86329 -0.84879,0.95662 c -0.79119,0.8917 -1.02918,1.09148 -1.02764,0.86264 z M 432.01809,154.59561 c 0.19771,-0.0808 0.52035,-0.0784 0.71696,0.005 0.19661,0.0836 0.0348,0.14966 -0.35949,0.14682 -0.39433,-0.003 -0.55519,-0.0712 -0.35747,-0.15197 z m 1.45188,0.004 c 0.2076,-0.0841 0.45488,-0.0718 0.54951,0.0273 0.0946,0.0991 -0.0752,0.1679 -0.37745,0.15287 -0.33399,-0.0166 -0.40147,-0.0873 -0.17206,-0.18021 z m 2.56317,0.0117 c 0.35537,-0.068 0.93611,-0.0639 1.29053,0.009 0.35442,0.0732 0.0637,0.12883 -0.64613,0.12373 -0.70979,-0.005 -0.99977,-0.065 -0.6444,-0.133 z m 4.32163,-0.25848 c 0.20759,-0.0841 0.45487,-0.0718 0.54951,0.0273 0.0946,0.0991 -0.0752,0.1679 -0.37745,0.15287 -0.33399,-0.0166 -0.40148,-0.0873 -0.17206,-0.1802 z m 2.00947,-0.28179 c 0.2076,-0.0841 0.45488,-0.0718 0.54952,0.0273 0.0946,0.0991 -0.0752,0.1679 -0.37746,0.15287 -0.33399,-0.0166 -0.40147,-0.0873 -0.17206,-0.1802 z m 205.20813,-10.64173 c 0.0161,-0.34496 0.0845,-0.41466 0.17447,-0.17771 0.0814,0.21442 0.0695,0.46982 -0.0265,0.56756 -0.096,0.0977 -0.16256,-0.0777 -0.148,-0.38985 z m -264.9859,-2.19921 c 0.0161,-0.34496 0.0845,-0.41466 0.17447,-0.17771 0.0814,0.21442 0.0695,0.46982 -0.0265,0.56756 -0.096,0.0977 -0.16256,-0.0777 -0.14801,-0.38985 z m 181.27459,0.58596 c 0.003,-0.40728 0.069,-0.57343 0.14714,-0.36922 0.0782,0.20422 0.0759,0.53745 -0.005,0.74051 -0.0809,0.20307 -0.1449,0.036 -0.14216,-0.37129 z m -150.28204,-3.32558 c 0.0161,-0.34496 0.0845,-0.41466 0.17447,-0.17771 0.0814,0.21442 0.0695,0.46982 -0.0265,0.56756 -0.096,0.0977 -0.16256,-0.0777 -0.14801,-0.38985 z m -31.16445,-2.56887 c 0.009,-1.46622 0.0618,-2.10303 0.1173,-1.41514 0.0555,0.6879 0.0481,1.88753 -0.0164,2.66586 -0.0645,0.77832 -0.10994,0.2155 -0.10094,-1.25072 z m 265.54978,2.49948 c 0.009,-1.14038 0.0637,-1.57023 0.12162,-0.95523 0.058,0.615 0.0506,1.54804 -0.0163,2.07341 -0.0669,0.52538 -0.1143,0.0222 -0.10535,-1.11818 z m -234.35342,-4.66988 c 0.0161,-0.34497 0.0845,-0.41466 0.17447,-0.17772 0.0814,0.21442 0.0695,0.46983 -0.0265,0.56757 -0.096,0.0977 -0.16256,-0.0777 -0.148,-0.38985 z m 234.03123,-0.68906 c 0.0161,-0.34497 0.0845,-0.41467 0.17447,-0.17772 0.0814,0.21442 0.0695,0.46983 -0.0265,0.56757 -0.096,0.0977 -0.16257,-0.0777 -0.14801,-0.38985 z m -83.73877,-0.89759 c 0.0161,-0.34496 0.0845,-0.41466 0.17447,-0.17771 0.0814,0.21441 0.0695,0.46982 -0.0265,0.56756 -0.096,0.0977 -0.16256,-0.0777 -0.14801,-0.38985 z M 457.06111,121.7951 c 0.006,-0.89602 0.0623,-1.26219 0.12495,-0.81371 0.0627,0.44848 0.0578,1.18159 -0.011,1.62913 -0.0687,0.44754 -0.12002,0.0806 -0.11399,-0.81542 z m 0.11956,-11.55169 c 0.0345,-5.13175 0.0877,-7.23082 0.11821,-4.6646 0.0305,2.56622 0.002,6.76492 -0.0628,9.33045 -0.065,2.56553 -0.0899,0.4659 -0.0554,-4.66585 z m -26.0425,7.31232 c 0.2076,-0.0841 0.45488,-0.0718 0.54951,0.0273 0.0946,0.0991 -0.0752,0.16791 -0.37745,0.15287 -0.33399,-0.0166 -0.40147,-0.0873 -0.17206,-0.1802 z m 6.57806,0.0534 c 0.19771,-0.0807 0.52034,-0.0784 0.71695,0.005 0.19661,0.0836 0.0349,0.14966 -0.35948,0.14683 -0.39433,-0.003 -0.55519,-0.0712 -0.35747,-0.15198 z m -45.18296,-8.81134 c 3.4e-4,-0.051 0.42268,-0.48116 0.93853,-0.95597 l 0.9379,-0.86329 -0.84879,0.95662 c -0.79119,0.8917 -1.02918,1.09148 -1.02764,0.86264 z m 139.44866,-9.681588 c 4.2e-4,-0.06151 0.22783,-0.293148 0.50536,-0.514754 0.45734,-0.365174 0.46741,-0.354625 0.10753,0.112611 -0.37797,0.490712 -0.61453,0.645929 -0.61289,0.402143 z m -88.94406,-2.506578 c 0.2076,-0.08408 0.45488,-0.07178 0.54951,0.02733 0.0946,0.09911 -0.0752,0.167902 -0.37745,0.15287 -0.33399,-0.01661 -0.40147,-0.08729 -0.17206,-0.180202 z m -25.23495,-0.477443 c 0.2076,-0.08408 0.45488,-0.07178 0.54951,0.02733 0.0946,0.09911 -0.0752,0.167902 -0.37745,0.152869 -0.33399,-0.01661 -0.40147,-0.08729 -0.17206,-0.180201 z m 2.00948,-0.281788 c 0.2076,-0.08408 0.45488,-0.07178 0.54951,0.02733 0.0946,0.09911 -0.0752,0.167902 -0.37745,0.152869 -0.33399,-0.01661 -0.40147,-0.08729 -0.17206,-0.180201 z m 18.64092,0.133869 c 0.2076,-0.08408 0.45488,-0.07178 0.54951,0.02733 0.0946,0.09911 -0.0752,0.167902 -0.37745,0.15287 -0.33399,-0.01661 -0.40147,-0.08729 -0.17206,-0.180202 z m -15.64015,-0.411464 c 0.27954,-0.0731 0.66666,-0.06538 0.86028,0.01715 0.19361,0.08253 -0.0351,0.142339 -0.50825,0.132904 -0.47315,-0.0094 -0.63156,-0.07696 -0.35203,-0.150058 z m 11.896,0.09453 c 0.19771,-0.08076 0.52034,-0.07844 0.71695,0.0051 0.19661,0.08359 0.0348,0.149659 -0.35948,0.146827 -0.39433,-0.0028 -0.55519,-0.07122 -0.35747,-0.151976 z m 166.33638,0.898323 c 0.19772,-0.08075 0.52035,-0.07844 0.71696,0.0051 0.19661,0.08359 0.0348,0.149659 -0.35949,0.146827 -0.39432,-0.0028 -0.55519,-0.07122 -0.35747,-0.151976 z m 9.17707,0.06591 c 0.19772,-0.08075 0.52035,-0.07844 0.71696,0.0051 0.19661,0.08359 0.0348,0.149659 -0.35949,0.146827 -0.39432,-0.0028 -0.55519,-0.07122 -0.35747,-0.151976 z"
         id="path17" />
      <path
         style="fill:#034173"
         d="m 424.02375,179.01541 c -17.55038,-1.6193 -32.57702,-12.02749 -38.44757,-26.63068 -2.42703,-6.03729 -3.14329,-10.5238 -2.88336,-18.06054 0.2307,-6.68888 1.17164,-10.96484 3.50705,-15.93732 3.07405,-6.54516 9.38463,-13.28128 15.84703,-16.91565 2.49978,-1.40584 7.04083,-3.170123 10.52698,-4.089932 10.28163,-2.712774 25.91615,-2.370382 37.06217,0.811652 2.5886,0.739011 6.83872,2.38734 7.25208,2.81259 0.24606,0.25313 0.20711,22.56575 -0.0394,22.56787 -0.0962,8.3e-4 -1.21585,-0.54845 -2.48809,-1.22062 -2.87754,-1.52031 -7.19511,-3.05542 -11.12887,-3.95687 -2.48293,-0.56898 -3.93098,-0.69841 -8.31212,-0.74295 -4.71454,-0.0479 -5.56141,0.0203 -7.60426,0.61291 -7.1844,2.084 -11.86623,6.85853 -13.27322,13.53603 -1.83773,8.72178 1.65677,16.69206 8.92647,20.35951 3.17497,1.60173 5.77399,2.26442 9.92847,2.53153 6.9517,0.44696 16.67124,-1.47776 22.36929,-4.42971 0.66643,-0.34525 1.31362,-0.62687 1.4382,-0.62582 0.12458,0.001 0.1756,5.49331 0.11338,12.20501 l -0.11314,12.2031 -1.26333,0.55382 c -5.20545,2.28197 -11.7061,3.9432 -17.61547,4.5016 -3.4487,0.32589 -9.76765,0.28673 -13.8023,-0.0855 z m 16.36603,-0.57397 c 3.22485,-0.46302 5.93545,-1.06379 8.904,-1.97345 1.10645,-0.33905 2.07934,-0.62448 2.16197,-0.63427 0.0826,-0.01 1.21394,-0.47672 2.51403,-1.03761 l 2.36378,-1.01979 0.0817,-11.77412 c 0.0449,-6.47577 0.012,-11.77462 -0.0731,-11.77523 -0.0851,-6.2e-4 -0.63529,0.24422 -1.22255,0.54407 -5.15832,2.63382 -13.39832,4.38665 -20.38561,4.33647 -10.6328,-0.0764 -18.03071,-4.5968 -20.65838,-12.62316 -0.45276,-1.38298 -0.65108,-2.84102 -0.73263,-5.38639 -0.1346,-4.20128 0.24566,-6.41967 1.58329,-9.23674 3.77865,-7.95786 12.21322,-11.79893 23.29426,-10.60812 5.88301,0.63221 11.23363,2.16234 15.79548,4.51708 l 2.67012,1.37826 -0.001,-10.95817 -10e-4,-10.95818 -2.34209,-0.99932 c -2.20495,-0.940805 -6.86676,-2.261783 -10.89455,-3.087095 -5.27884,-1.081656 -19.26569,-1.471404 -24.15837,-0.673181 -4.60048,0.750554 -5.49847,0.946261 -8.48219,1.848612 -7.37828,2.231374 -12.53239,5.318934 -17.34497,10.390454 -2.5123,2.64748 -5.89452,7.45891 -6.86335,9.76358 -2.78039,6.61403 -3.44288,9.8855 -3.50407,17.3035 -0.0408,4.94337 0.0426,6.20114 0.57827,8.72583 2.72229,12.83016 9.98717,22.45246 21.47858,28.44828 5.92235,3.09008 12.97517,5.19777 18.91151,5.65158 1.40741,0.10759 2.61799,0.25661 2.69018,0.33117 0.2751,0.2841 10.89805,-0.10074 13.63743,-0.49406 z m 159.01511,1.39634 c -12.4796,-1.85191 -22.58755,-8.15624 -28.82543,-17.97842 -3.19488,-5.03067 -5.10923,-10.01386 -6.13648,-15.97368 -0.74173,-4.30334 -0.59206,-14.2009 0.27528,-18.20283 1.82852,-8.43686 5.5355,-14.99197 11.61713,-20.54273 9.19114,-8.388834 20.97393,-11.801533 35.53486,-10.292102 16.69408,1.73056 30.08534,13.037292 34.50562,29.134362 1.25235,4.56059 1.59622,7.96756 1.38988,13.77053 -0.42273,11.88905 -3.83145,20.17022 -11.55909,28.08179 -3.63221,3.71865 -6.43065,5.79488 -10.70756,7.94415 -7.72469,3.88188 -17.27579,5.36755 -26.09421,4.05893 z m 12.65017,-0.35482 c 5.24429,-0.75039 9.21614,-2.01796 14.13578,-4.51127 6.18414,-3.13417 12.20702,-8.98328 16.03998,-15.57719 0.66566,-1.14514 1.21088,-2.17034 1.21161,-2.27822 7.2e-4,-0.10788 0.34158,-0.95056 0.75745,-1.87261 1.70609,-3.78268 3.34938,-11.70033 3.3797,-16.28394 0.10538,-15.93421 -7.13272,-29.3342 -19.84447,-36.73836 -1.59687,-0.93012 -6.19418,-2.886414 -8.13421,-3.461348 -4.49282,-1.331461 -6.95739,-1.600164 -14.32934,-1.562275 -5.52033,0.02837 -7.6989,0.152637 -9.46795,0.540049 -5.49757,1.203936 -10.6356,3.322934 -14.57353,6.010344 -8.85814,6.04515 -14.15195,14.14377 -16.19588,24.7769 -0.56012,2.91391 -0.62241,4.02711 -0.54282,9.70108 0.0494,3.5252 0.17011,6.80993 0.26812,7.29939 1.89009,9.43884 5.61929,16.98347 11.07986,22.41598 6.27861,6.24634 14.58201,10.25592 23.71651,11.45233 1.57599,0.20642 3.05876,0.41573 3.29504,0.46513 0.85174,0.1781 7.12186,-0.078 9.20415,-0.37599 z m -8.92057,-25.25335 c -5.80925,-0.86609 -10.64734,-5.07088 -12.54669,-10.90435 -1.03719,-3.18551 -1.05799,-7.84561 -0.0487,-10.90703 0.7629,-2.31401 2.93939,-5.77562 4.56677,-7.26325 4.13701,-3.78174 10.01345,-5.04053 15.56938,-3.3351 4.1774,1.28227 7.89551,4.53913 9.73043,8.5233 1.5492,3.36378 1.72564,4.13889 1.68726,7.412 -0.051,4.34968 -1.52418,8.13738 -4.40486,11.32541 -3.64341,4.03213 -9.09888,5.96226 -14.55362,5.14902 z m 8.2811,-1.26455 c 2.50417,-1.03007 4.29986,-2.28588 6.09923,-4.26548 4.56591,-5.02323 5.57093,-12.40606 2.51039,-18.44119 -4.90748,-9.67714 -17.78569,-11.85248 -25.12894,-4.2447 -3.25425,3.37147 -4.72443,7.03844 -4.7487,11.84434 -0.0158,3.13078 0.80144,6.32647 2.22128,8.68585 1.80307,2.99619 5.07686,5.61459 8.50953,6.80599 2.88483,1.00125 7.58488,0.8296 10.53721,-0.38481 z m -148.81143,-15.28243 0.26819,-39.839546 13.32268,0.09568 13.32268,0.09568 3.62103,4.987676 c 1.99157,2.74322 6.63841,9.1416 10.3263,14.21862 7.68467,10.57927 8.1287,11.22032 7.61779,10.99787 -0.2065,-0.0899 -0.83824,-0.85994 -1.40388,-1.7112 -0.56564,-0.85125 -4.0179,-5.65365 -7.67168,-10.672 -3.65379,-5.01835 -7.9663,-10.94778 -9.58336,-13.17652 l -2.94011,-4.052251 -13.02093,-0.09351 -13.02094,-0.09351 -0.2652,39.395241 -0.26521,39.39523 13.12034,0.0943 13.12035,0.0942 0.0652,-22.95654 c 0.0494,-17.36429 0.14688,-22.95596 0.40031,-22.95414 0.18428,10e-4 0.26211,-0.19806 0.17297,-0.44308 -0.0892,-0.24502 -0.10712,-0.4451 -0.04,-0.44462 0.1436,0.001 9.50734,12.71888 18.37253,24.95361 1.57769,2.17735 3.01533,3.90949 3.19474,3.84921 0.28184,-0.0947 6.83324,-8.64757 8.65871,-11.30397 0.35192,-0.5121 2.01799,-2.76621 3.70238,-5.00913 6.05838,-8.06728 8.12961,-10.86199 8.37088,-11.29482 0.13492,-0.24206 0.32495,-0.3567 0.42228,-0.25477 0.0973,0.10194 -0.45485,1.02995 -1.22706,2.06226 -0.77222,1.0323 -3.86277,5.19172 -6.86791,9.24315 -9.15274,12.33944 -12.67815,17.07782 -12.90161,17.3406 -0.25106,0.29523 -0.65733,-0.23841 -11.7788,-15.4718 -4.68892,-6.42254 -8.80595,-12.05877 -9.14896,-12.52495 l -0.62365,-0.84759 -0.17197,23.1779 -0.17196,23.17791 -13.62222,-0.0978 -13.62221,-0.0978 z m 69.8718,17.60843 c 0.0911,-14.35239 0.24895,-22.89684 0.42815,-23.17607 0.18656,-0.29069 0.23222,7.45135 0.13321,22.58766 l -0.15064,23.02996 13.04865,0.0937 13.04864,0.0937 0.25898,-38.46959 c 0.14243,-21.15828 0.3427,-38.88687 0.44503,-39.39687 l 0.18605,-0.92727 -13.58745,-0.0206 -13.58745,-0.0206 -9.31463,12.67053 c -5.12305,6.96879 -9.42508,12.80303 -9.56008,12.96498 -0.135,0.16196 -0.68719,0.92446 -1.22709,1.69445 -0.99207,1.41486 -1.36797,1.75521 -1.06955,0.96839 0.18748,-0.49431 18.51512,-25.52965 20.23341,-27.638593 l 1.13973,-1.398856 13.59749,0.09765 13.5975,0.09765 -0.27423,39.839499 -0.27424,39.8395 -13.60788,-0.0977 -13.60789,-0.0977 z"
         id="path16" />
    </g>
    <g
       id="g9"
       transform="translate(298.40763,-7.3139126)" />
  </g>
</svg>
