<?xml version="1.0" encoding="UTF-8" standalone="no"?>
<!-- Created with Inkscape (http://www.inkscape.org/) -->

<svg
   version="1.1"
   id="svg1"
   width="1448"
   height="663"
   viewBox="0 0 1448 663"
   sodipodi:docname="croasonho.svg"
   inkscape:version="1.4.3 (0d15f75, 2025-12-25)"
   xmlns:inkscape="http://www.inkscape.org/namespaces/inkscape"
   xmlns:sodipodi="http://sodipodi.sourceforge.net/DTD/sodipodi-0.dtd"
   xmlns="http://www.w3.org/2000/svg"
   xmlns:svg="http://www.w3.org/2000/svg">
  <defs
     id="defs1" />
  <sodipodi:namedview
     id="namedview1"
     pagecolor="#ffffff"
     bordercolor="#000000"
     borderopacity="0.25"
     inkscape:showpageshadow="2"
     inkscape:pageopacity="0.0"
     inkscape:pagecheckerboard="0"
     inkscape:deskcolor="#d1d1d1"
     inkscape:zoom="0.27867664"
     inkscape:cx="597.46666"
     inkscape:cy="500.58017"
     inkscape:window-width="1366"
     inkscape:window-height="697"
     inkscape:window-x="-8"
     inkscape:window-y="-8"
     inkscape:window-maximized="1"
     inkscape:current-layer="g1" />
  <g
     inkscape:groupmode="layer"
     inkscape:label="Image"
     id="g1">
    <g
       id="g203"
       transform="matrix(1.2752696,0,0,1.5920654,-109.17738,-138.22508)">
      <path
         style="fill:#f39c31"
         d="m 233.05252,353.82714 c -3.62168,-0.55 -12.74707,-2.46135 -20.27865,-4.24746 -19.06799,-4.52196 -26.84903,-4.33001 -52.2435,1.28878 -3.42566,0.75796 -4.98892,-3.78165 -7.24426,-21.03682 -2.71577,-20.7779 1.20751,-44.73109 9.57755,-58.47471 8.75879,-14.38194 29.77074,-32.45229 43.19089,-37.14432 15.47657,-5.411 23.27396,-6.77763 38.85074,-6.80928 15.89406,-0.0323 18.11975,0.37237 33.58284,6.10584 26.23898,9.729 44.02562,43.26438 38.20447,72.03168 -2.85622,14.11501 -14.46815,30.65733 -26.21147,37.34077 -2.6123,1.48673 -5.04596,3.05911 -5.40812,3.49416 -0.36217,0.43506 -4.96773,2.32257 -10.23458,4.19448 -10.50306,3.73294 -29.10414,5.18274 -41.78591,3.25688 z m 14.06742,-27.1081 c 8.62269,-2.78035 12.36114,-4.66958 17.21072,-8.69748 4.32764,-3.59438 4.80758,-9.5201 1.42879,-17.64107 -3.10729,-7.4684 -16.54818,-25.98681 -20.06523,-27.64519 -5.63282,-2.65602 -23.21666,3.10048 -26.37724,8.63523 -3.11618,5.457 -0.45253,23.08796 5.2903,35.01709 1.38537,2.87772 2.51886,5.74737 2.51886,6.37699 0,1.83792 6.99065,6.20598 10.00038,6.24867 1.51636,0.0215 6.0134,-1.0109 9.99342,-2.29424 z m -27.89565,-2.44466 c 0,-0.44609 -1.1883,-3.85798 -2.64067,-7.58198 -1.45237,-3.724 -3.34909,-12.74178 -4.21493,-20.03952 -0.94924,-8.00063 -2.15382,-13.26863 -3.034,-13.26863 -4.895,0 -8.54804,7.77775 -8.54804,18.19976 0,6.39972 2.69968,17.53691 5.11751,21.11169 1.94965,2.88255 13.32013,4.23016 13.32013,1.57868 z m -24.63021,-24.536 c 0.6905,-10.46054 0.55364,-11.41703 -1.63354,-11.41703 -5.53624,0 -7.46836,8.06691 -3.93412,16.42559 1.66506,3.93799 3.97651,7.38525 4.52388,6.74687 0.15958,-0.18612 0.62929,-5.47606 1.04378,-11.75543 z m 86.91265,-0.2958 c 3.60948,-4.78204 3.63634,-4.9461 1.46102,-8.92213 -8.07518,-14.75974 -20.52771,-25.5555 -27.56735,-23.89961 -4.42334,1.04047 -4.11272,2.50804 1.88167,8.8904 5.89536,6.27691 13.57372,17.94281 16.07266,24.41953 0.94139,2.43988 2.33336,4.42428 3.09326,4.40978 0.75991,-0.0145 3.03635,-2.21858 5.05874,-4.89797 z m 3.56628,-24.12453 c 0,-3.25693 -2.57527,-7.85746 -7.05758,-12.60788 -2.70602,-2.86788 -9.23251,-3.8009 -10.72766,-1.53362 -0.74178,1.12486 14.44301,16.54292 16.79751,17.05555 0.54325,0.11828 0.98773,-1.19304 0.98773,-2.91405 z m 132.76747,57.82828 c 0.95069,-0.35655 2.08658,-0.3127 2.5242,0.0974 0.43762,0.41014 -0.34022,0.70186 -1.72853,0.64826 -1.5342,-0.0592 -1.84627,-0.35169 -0.79567,-0.7457 z m 17.12066,0 c 0.95069,-0.35655 2.08658,-0.3127 2.5242,0.0974 0.43762,0.41014 -0.34022,0.70186 -1.72853,0.64826 -1.5342,-0.0592 -1.84626,-0.35169 -0.79567,-0.7457 z m 148.8181,0 c 0.95069,-0.35655 2.08658,-0.3127 2.5242,0.0974 0.43762,0.41014 -0.34022,0.70186 -1.72853,0.64826 -1.5342,-0.0592 -1.84627,-0.35169 -0.79567,-0.7457 z m 272.61367,0 c 0.95069,-0.35655 2.08658,-0.3127 2.5242,0.0974 0.43762,0.41014 -0.34021,0.70186 -1.72853,0.64826 -1.5342,-0.0592 -1.84626,-0.35169 -0.79567,-0.7457 z m -374.02069,-1.23428 c 0.95069,-0.35654 2.08658,-0.31269 2.5242,0.0974 0.43762,0.41013 -0.34022,0.70185 -1.72853,0.64826 -1.5342,-0.0592 -1.84627,-0.35169 -0.79567,-0.74571 z m 38.76843,-0.056 c 2.71626,-0.26628 7.16104,-0.26628 9.8773,0 2.71626,0.26629 0.49387,0.48416 -4.93865,0.48416 -5.43252,0 -7.65491,-0.21787 -4.93865,-0.48416 z m 56.05371,0.056 c 0.9507,-0.35654 2.08659,-0.31269 2.52421,0.0974 0.43761,0.41013 -0.34022,0.70185 -1.72853,0.64826 -1.5342,-0.0592 -1.84627,-0.35169 -0.79568,-0.74571 z m 29.22037,0.3699 c 0,-0.26028 1.46366,-0.73547 3.25258,-1.05597 1.78892,-0.3205 2.93922,-0.10754 2.55623,0.47325 -0.6744,1.02267 -5.80881,1.53774 -5.80881,0.58272 z m 44.44788,-0.41962 c 2.3541,-0.27379 6.20624,-0.27379 8.56034,0 2.35409,0.2738 0.42801,0.49781 -4.28017,0.49781 -4.70818,0 -6.63426,-0.22401 -4.28017,-0.49781 z m 53.54158,-1.88424 c -2.49483,-2.76162 -2.49394,-2.7654 0.15847,-0.67681 1.84628,1.45382 5.69735,2.23315 12.51126,2.53187 l 9.84396,0.43156 -10.00244,0.24525 c -8.92677,0.21887 -10.27223,-0.0534 -12.51125,-2.53187 z m 51.89868,1.93396 c 0.95069,-0.35654 2.08658,-0.31269 2.5242,0.0974 0.43762,0.41013 -0.34022,0.70185 -1.72853,0.64826 -1.5342,-0.0592 -1.84627,-0.35169 -0.79567,-0.74571 z m 123.79558,0 c 0.95069,-0.35654 2.08658,-0.31269 2.5242,0.0974 0.43762,0.41013 -0.34022,0.70185 -1.72853,0.64826 -1.5342,-0.0592 -1.84626,-0.35169 -0.79567,-0.74571 z m 43.79552,-2.1543 c -1.65255,-1.64861 -2.6916,-3.73144 -2.309,-4.62853 0.49616,-1.16334 0.72546,-1.06653 0.79962,0.33761 0.20253,3.83489 4.53607,5.9096 13.29926,6.36713 l 8.53479,0.4456 -8.66001,0.23782 c -7.64367,0.20991 -9.01264,-0.11396 -11.66466,-2.75963 z m 68.74853,2.14211 c 1.28138,-0.31294 3.05929,-0.29236 3.95093,0.0457 0.89163,0.33809 -0.15676,0.59414 -2.32977,0.56898 -2.17301,-0.0251 -2.90253,-0.30178 -1.62116,-0.61472 z m 36.7437,-0.26457 c 4.8306,-0.40232 9.2754,-1.19174 9.8773,-1.75425 0.6018,-0.56251 1.4316,-6.67217 1.8439,-13.57701 l 0.7497,-12.55426 0.238,12.03417 c 0.3051,15.4177 -0.9981,17.06638 -13.2609,16.77706 l -8.2311,-0.1942 z m 48.884,0 c 5.8308,-0.47715 9.3727,-1.37525 10.1864,-2.58291 0.7791,-1.15639 1.2549,-1.28853 1.2675,-0.35199 0.035,2.59551 -4.8013,4.06174 -12.7337,3.86061 l -7.6592,-0.1942 z m 48.3494,-0.17075 c -1.4427,-0.91498 -0.9099,-1.02949 1.9754,-0.42461 4.8425,1.01516 5.8936,1.7216 2.5242,1.69637 -1.3883,-0.0104 -3.4131,-0.58269 -4.4996,-1.27176 z m -638.27818,-2.20078 c 1.59419,-1.65094 2.17957,-4.59382 2.17957,-10.95733 0,-9.6403 1.85858,-12.74959 6.18668,-10.34992 2.08543,1.15625 1.97387,1.28049 -0.91878,1.0232 -3.19933,-0.28456 -3.30225,-0.0485 -3.63948,8.34707 -0.34461,8.57952 -2.1994,14.19415 -4.68902,14.19415 -0.7142,0 -0.31774,-1.01573 0.88103,-2.25717 z m 24.40015,0.0972 c -1.63815,-1.95763 -1.59156,-2.00128 0.49723,-0.46601 2.19375,1.61242 2.89139,2.62599 1.80748,2.62599 -0.27348,0 -1.3106,-0.97199 -2.30471,-2.15998 z m 151.62003,1.69397 c 0,-0.2563 1.03712,-1.22829 2.3047,-2.15998 2.0888,-1.53527 2.13538,-1.49162 0.49724,0.46601 -1.72046,2.05599 -2.80194,2.70982 -2.80194,1.69397 z m 311.95492,-1.69397 c -1.63815,-1.95763 -1.59157,-2.00128 0.49723,-0.46601 2.19375,1.61242 2.89139,2.62599 1.80747,2.62599 -0.27347,0 -1.31059,-0.97199 -2.3047,-2.15998 z m -361.89019,0.53156 c 2.09366,-1.50381 10.42604,-5.57993 10.42604,-5.10032 0,0.82522 -8.28928,5.4842 -9.76756,5.48985 -0.66397,0.003 -0.96029,-0.17275 -0.65848,-0.38953 z m 185.58362,-0.0376 c 0,-0.28524 1.55457,-1.47324 3.45459,-2.64 1.90002,-1.16677 3.05229,-1.51135 2.5606,-0.76573 -0.9396,1.42484 -6.01519,4.29858 -6.01519,3.40573 z m 367.43585,-0.0533 c 0,-0.26679 0.9197,-0.81586 2.0438,-1.22013 1.172,-0.4215 1.7007,-0.21458 1.2393,0.48508 -0.7734,1.17281 -3.2831,1.73471 -3.2831,0.73505 z m -768.53205,-2.66869 c -2.45487,-1.84325 -2.43871,-1.86604 0.40678,-0.57371 1.62975,0.74018 2.96319,1.60396 2.96319,1.9195 0,0.94449 -0.683,0.67174 -3.36997,-1.34579 z m 242.19066,-6e-5 c -0.43228,-1.05576 -0.21584,-3.11701 0.48098,-4.58057 1.08308,-2.27486 1.25091,-1.99683 1.15653,1.91593 -0.12116,5.02326 -0.45161,5.56098 -1.63751,2.66464 z m 102.24923,0.0383 c -0.91624,-1.03468 -1.41085,-2.12026 -1.09913,-2.41241 0.31172,-0.29215 1.29015,0.55441 2.17429,1.88124 1.912,2.86934 1.27434,3.18437 -1.07516,0.53117 z m -292.2379,-1.3073 c 0.0632,-1.43786 0.37526,-1.73033 0.79567,-0.74571 0.38043,0.89099 0.33365,1.95556 -0.10397,2.36569 -0.43762,0.41014 -0.74889,-0.31885 -0.6917,-1.61998 z m 385.80763,0.7682 c -1.06553,-0.63154 -1.59446,-1.46959 -1.1754,-1.86233 0.41906,-0.39274 1.51158,0.13248 2.42782,1.16716 1.89986,2.14544 1.53558,2.34764 -1.25242,0.69517 z m 164.68763,-0.7682 c 0.063,-1.43786 0.3752,-1.73033 0.7957,-0.74571 0.3804,0.89099 0.3336,1.95556 -0.104,2.36569 -0.4376,0.41014 -0.7489,-0.31885 -0.6917,-1.61998 z m 11.8528,0 c 0.063,-1.43786 0.3752,-1.73033 0.7956,-0.74571 0.3805,0.89099 0.3337,1.95556 -0.1039,2.36569 -0.4377,0.41014 -0.7489,-0.31885 -0.6917,-1.61998 z m 159.9084,1.17008 c 0.7243,-0.59749 3.389,-2.74832 5.9216,-4.77961 l 4.6046,-3.69326 -3.2877,3.50759 c -1.8082,1.92917 -4.4729,4.08 -5.9216,4.77961 -1.4486,0.69961 -2.0413,0.78316 -1.3169,0.18567 z m -201.0066,-2.61007 c -1.63815,-1.95762 -1.59157,-2.00128 0.49723,-0.466 1.26758,0.93168 2.3047,1.90367 2.3047,2.15998 0,1.01585 -1.08148,0.36201 -2.80193,-1.69398 z m 117.9611,-33.63395 c 0,-20.0261 0.1811,-28.21859 0.4025,-18.20554 0.2214,10.01304 0.2214,26.39803 0,36.41107 -0.2214,10.01305 -0.4025,1.82056 -0.4025,-18.20553 z m -551.65147,32.45291 c -0.7147,-1.75908 -0.56343,-1.90086 0.73723,-0.69094 0.90005,0.83725 1.30469,1.8332 0.89921,2.21321 -0.40548,0.38002 -1.14188,-0.305 -1.63644,-1.52227 z m 18.02372,-2.87965 c -4.15955,-4.81034 -3.71567,-5.9153 0.49312,-1.22754 1.90097,2.11731 3.23441,4.03071 2.96319,4.252 -0.27121,0.22129 -1.82655,-1.13971 -3.45631,-3.02446 z m 69.51421,2.89525 c 0.0603,-1.36802 5.16763,-7.01361 5.80346,-6.41505 0.28244,0.26588 -0.91766,2.04181 -2.66688,3.9465 -1.74921,1.9047 -3.16068,3.01554 -3.13658,2.46855 z m -238.67021,-5.00592 c -2.32037,-2.53224 -4.06035,-5.24567 -3.36378,-5.24567 0.2687,0 1.80301,1.66627 3.40959,3.70282 3.17434,4.02392 3.14463,5.0246 -0.0458,1.54285 z m 146.4382,0.57788 c -1.08651,-0.82697 -2.84179,-2.61444 -3.90063,-3.97214 -1.05884,-1.3577 -0.0217,-0.83722 2.30471,1.15663 3.79258,3.2504 4.88971,4.47627 3.90062,4.35835 -0.18108,-0.0216 -1.2182,-0.71587 -2.3047,-1.54284 z m 369.41128,-0.88645 c 1.31103,-1.3577 2.68001,-2.46855 3.04218,-2.46855 0.36217,0 -0.41417,1.11085 -1.7252,2.46855 -1.31103,1.3577 -2.68001,2.46854 -3.04218,2.46854 -0.36217,0 0.41417,-1.11084 1.7252,-2.46854 z m 158.95217,-0.61714 c 0.027,-2.03655 0.322,-2.72026 0.6559,-1.51935 0.3339,1.20091 0.3119,2.86718 -0.049,3.70282 -0.3608,0.83564 -0.634,-0.14692 -0.6071,-2.18347 z m 45.6693,0.92571 c -1.6381,-1.95763 -1.5915,-2.00129 0.4973,-0.46601 1.2676,0.93168 2.3047,1.90367 2.3047,2.15998 0,1.01585 -1.0815,0.36201 -2.802,-1.69397 z M 501.66112,317.8618 c -0.47744,-0.72402 -0.58563,-1.5811 -0.24042,-1.90464 0.34522,-0.32354 0.9786,0.26884 1.40752,1.31639 0.89052,2.17492 0.13151,2.55749 -1.1671,0.58825 z m 141.66922,0.69925 c 0,-0.67885 0.57449,-2.0674 1.27665,-3.08568 0.70215,-1.01828 1.27664,-1.29599 1.27664,-0.61714 0,0.67885 -0.57449,2.06741 -1.27664,3.08569 -0.70216,1.01827 -1.27665,1.29598 -1.27665,0.61713 z m -194.41916,-7.09707 -2.50882,-2.77712 2.96319,2.35128 c 2.78467,2.20962 3.56273,3.20296 2.50882,3.20296 -0.24991,0 -1.58334,-1.24971 -2.96319,-2.77712 z m 185.21156,1.99312 c -0.0284,-0.77063 0.81421,-3.27003 1.87236,-5.55423 1.05816,-2.28421 1.94711,-3.52259 1.97547,-2.75196 0.0284,0.77062 -0.81422,3.27002 -1.87237,5.55423 -1.05815,2.2842 -1.94711,3.52258 -1.97546,2.75196 z m 272.60246,0.16686 c 0,-0.67885 0.57449,-2.06741 1.27664,-3.08568 0.70216,-1.01828 1.27664,-1.29599 1.27664,-0.61714 0,0.67885 -0.57448,2.06741 -1.27664,3.08568 -0.70215,1.01828 -1.27664,1.29599 -1.27664,0.61714 z M 766.83866,310.9294 c 0.95069,-0.35655 2.08658,-0.3127 2.5242,0.0974 0.43762,0.41014 -0.34022,0.70186 -1.72853,0.64827 -1.5342,-0.0592 -1.84626,-0.3517 -0.79567,-0.74571 z m 14.57714,-3.12946 c 0.60629,-3.42748 0.79178,-3.60132 1.20646,-1.1307 0.26952,1.60571 -0.0529,3.42829 -0.71643,4.05017 -0.73063,0.68475 -0.92389,-0.4667 -0.49003,-2.91947 z m 30.75246,0.26979 c 0,-2.37598 0.27103,-3.34797 0.60228,-2.15998 0.33126,1.18799 0.33126,3.13197 0,4.31996 -0.33125,1.18799 -0.60228,0.21599 -0.60228,-2.15998 z m 10.97341,1.59607 c -0.7147,-1.75908 -0.56343,-1.90086 0.73724,-0.69094 0.90004,0.83725 1.30469,1.8332 0.89921,2.21321 -0.40548,0.38002 -1.14188,-0.305 -1.63645,-1.52227 z m -382.91263,0.0293 c 0.95069,-0.35655 2.08658,-0.3127 2.5242,0.0974 0.43762,0.41014 -0.34022,0.70186 -1.72853,0.64826 -1.5342,-0.0592 -1.84626,-0.35169 -0.79567,-0.7457 z m 150.05276,-0.0279 c 1.62975,-0.2942 4.29663,-0.2942 5.92638,0 1.62976,0.29419 0.29632,0.53489 -2.96319,0.53489 -3.25951,0 -4.59295,-0.2407 -2.96319,-0.53489 z m 169.97199,0.0279 c 0.95069,-0.35655 2.08658,-0.3127 2.5242,0.0974 0.43762,0.41014 -0.34022,0.70186 -1.72853,0.64826 -1.5342,-0.0592 -1.84626,-0.35169 -0.79567,-0.7457 z m 102.65704,-0.0298 c 1.6382,-0.29523 4.00875,-0.28402 5.2679,0.0249 1.25914,0.30893 -0.0812,0.55048 -2.97855,0.53678 -2.89735,-0.0137 -3.92755,-0.26646 -2.28935,-0.56169 z m 275.07317,-0.10337 c -0.3541,-0.53698 1.537,-0.78267 4.2024,-0.54599 8.1439,0.72316 9.1043,1.22884 2.6193,1.37914 -3.3979,0.0788 -6.4676,-0.29617 -6.8217,-0.83315 z m -612.72875,-2.06864 c -0.40776,-0.99588 -0.48723,-2.5233 -0.1766,-3.39425 0.31064,-0.87096 0.877,-0.0562 1.25858,1.81069 0.74506,3.64508 0.13043,4.54464 -1.08198,1.58356 z m 58.12175,0.59056 c -0.46138,-0.69966 0.0673,-0.90659 1.23926,-0.48509 2.28154,0.82054 2.69898,1.70522 0.80461,1.70522 -0.68159,0 -1.60133,-0.54906 -2.04387,-1.22013 z m 17.76983,0.75412 c 0,-0.2563 1.03712,-1.22829 2.30471,-2.15997 2.08879,-1.53528 2.13538,-1.49162 0.49723,0.466 -1.72046,2.05599 -2.80194,2.70982 -2.80194,1.69397 z m 151.45205,-0.76826 c -1.08651,-0.65806 -1.38283,-1.19648 -0.65849,-1.19648 0.72434,0 2.20593,0.53842 3.29244,1.19648 1.0865,0.65806 1.38282,1.19647 0.65848,1.19647 -0.72433,0 -2.20593,-0.53841 -3.29243,-1.19647 z m 400.46992,0.88501 c 0.3018,-0.19209 1.734,-1.16408 3.1827,-2.15998 2.4364,-1.67492 2.4984,-1.64872 0.8265,0.34926 -0.9941,1.18799 -2.4264,2.15998 -3.1827,2.15998 -0.7564,0 -1.1283,-0.15717 -0.8265,-0.34926 z m 35.4889,-0.26788 c 0,-0.67885 0.5745,-2.0674 1.2766,-3.08568 0.7022,-1.01828 1.2767,-1.29599 1.2767,-0.61714 0,0.67885 -0.5745,2.06741 -1.2767,3.08569 -0.7021,1.01827 -1.2766,1.29599 -1.2766,0.61713 z m -807.90999,-3.79098 c -0.48441,-1.80884 -0.62676,-3.52685 -0.31633,-3.81778 0.31043,-0.29094 0.96076,0.95099 1.44517,2.75983 0.48441,1.80885 0.62675,3.52685 0.31632,3.81778 -0.31043,0.29094 -0.96075,-0.95098 -1.44516,-2.75983 z m 496.55298,1.4996 c 4.32548,-3.00152 6.15982,-8.59712 5.52303,-16.84783 -0.31494,-4.08065 -0.099,-6.72019 0.47982,-5.86567 0.57884,0.85453 1.06151,4.66523 1.0726,8.46823 0.021,7.21186 -3.65381,14.5058 -7.88168,15.64381 -1.0865,0.29245 -0.7237,-0.33689 0.80623,-1.39854 z m 184.88711,0.13141 c 0,-1.07485 -0.7408,-2.23442 -1.6462,-2.57682 -1.2894,-0.48761 -1.2804,-0.64367 0.041,-0.71999 1.878,-0.10844 3.7109,3.27736 2.4261,4.48145 -0.4516,0.42329 -0.8212,-0.1098 -0.8212,-1.18464 z m -930.65335,-3.9167 c -22.7148,-6.71732 -29.57069,-33.36073 -10.59202,-41.1628 5.22275,-2.14706 14.91106,-1.87916 18.81857,0.52036 4.0156,2.4659 7.12971,7.79508 7.12971,12.20108 0,1.78744 -1.14546,7.50811 -2.54547,12.7126 -1.4,5.20448 -2.73344,11.12422 -2.96319,13.15496 -0.49007,4.33166 -2.30196,4.80523 -9.8476,2.5738 z m 998.64025,-0.14241 c -1.2708,-3.10382 -0.8959,-3.90469 0.6566,-1.40255 0.7687,1.2389 1.1202,2.51256 0.7811,2.83035 -0.3391,0.31778 -0.986,-0.32473 -1.4377,-1.4278 z m -582.81984,-1.28941 c 0.0632,-1.43786 0.37526,-1.73033 0.79567,-0.74571 0.38044,0.89099 0.33365,1.95555 -0.10397,2.36569 -0.43762,0.41014 -0.74888,-0.31885 -0.6917,-1.61998 z m 29.69065,0.0551 c -1.27085,-3.10382 -0.89595,-3.9047 0.65655,-1.40256 0.76871,1.23891 1.12022,2.51256 0.78114,2.83035 -0.33908,0.31779 -0.98604,-0.32472 -1.43769,-1.42779 z m 61.18058,-0.0551 c 0.0632,-1.43786 0.37525,-1.73033 0.79567,-0.74571 0.38043,0.89099 0.33365,1.95555 -0.10397,2.36569 -0.43762,0.41014 -0.74889,-0.31885 -0.6917,-1.61998 z m 39.89818,0.14357 c -0.40776,-0.99588 -0.43595,-2.5233 -0.0626,-3.39425 0.37331,-0.87096 0.72553,-0.2671 0.78272,1.3419 0.0995,2.80075 0.43755,2.90285 7.92854,2.39503 4.30351,-0.29174 7.52804,-0.0808 7.16563,0.46879 -0.36241,0.54957 -3.90207,0.99922 -7.8659,0.99922 -5.11927,0 -7.42173,-0.52452 -7.94835,-1.81069 z m 94.68353,0.95535 c 1.28137,-0.31294 3.05929,-0.29236 3.95092,0.0457 0.89164,0.33809 -0.15676,0.59414 -2.32977,0.56898 -2.173,-0.0252 -2.90252,-0.30178 -1.62115,-0.61472 z m -363.23488,-1.69532 c -0.47744,-0.72402 -0.58563,-1.58111 -0.24042,-1.90464 0.34522,-0.32354 0.9786,0.26883 1.40752,1.31639 0.89052,2.17492 0.13151,2.55748 -1.1671,0.58825 z m 121.87428,-1.7693 c 1.70119,-1.69712 3.3894,-3.08568 3.75157,-3.08568 0.36217,0 -0.7334,1.38856 -2.4346,3.08568 -1.70119,1.69713 -3.3894,3.08569 -3.75157,3.08569 -0.36217,0 0.7334,-1.38856 2.4346,-3.08569 z m 77.12767,1.48962 c 0.49456,-1.21727 1.23096,-1.90229 1.63644,-1.52228 0.40548,0.38002 8.3e-4,1.37597 -0.89921,2.21321 -1.30066,1.20992 -1.45194,1.06815 -0.73723,-0.69093 z m 201.57509,-1.53733 c -0.45166,-1.10308 -0.78362,-2.65444 -0.73771,-3.44749 0.0459,-0.79304 0.65128,-0.11155 1.34527,1.51442 0.69398,1.62597 1.02595,3.17734 0.7377,3.44749 -0.28824,0.27014 -0.89361,-0.41135 -1.34526,-1.51442 z m 10.13613,-6.74079 c 0,-4.41253 0.23903,-6.21765 0.53117,-4.01139 0.29214,2.20626 0.29214,5.81651 0,8.02278 -0.29214,2.20626 -0.53117,0.40114 -0.53117,-4.01139 z m 92.17477,-0.61714 c 0.007,-4.0731 0.25325,-5.59057 0.54636,-3.37215 0.29311,2.21843 0.28706,5.55097 -0.0134,7.40565 -0.3005,1.85468 -0.54032,0.0396 -0.53292,-4.0335 z m 215.67964,4.83424 c 0.063,-1.43786 0.3753,-1.73033 0.7957,-0.74571 0.3804,0.891 0.3336,1.95556 -0.104,2.3657 -0.4376,0.41013 -0.7489,-0.31886 -0.6917,-1.61999 z m -28.6827,-5.45137 c 0,-3.73368 0.2469,-5.2611 0.5486,-3.39426 0.3018,1.86684 0.3018,4.92167 0,6.78851 -0.3017,1.86684 -0.5486,0.33942 -0.5486,-3.39425 z m -691.70221,1.74855 c 0.0632,-1.43786 0.37526,-1.73033 0.79567,-0.74571 0.38043,0.89099 0.33365,1.95556 -0.10397,2.36569 -0.43762,0.41014 -0.74889,-0.31885 -0.6917,-1.61998 z m 167.4085,-1.13142 c 0.0268,-2.03655 0.322,-2.72026 0.65591,-1.51935 0.33391,1.20091 0.31195,2.86718 -0.0488,3.70282 -0.36075,0.83565 -0.63395,-0.14692 -0.60711,-2.18347 z m 172.80025,0.30857 -2.50882,-2.77712 2.96319,2.35128 c 1.62976,1.2932 2.96319,2.5429 2.96319,2.77712 0,0.98773 -1.05989,0.25852 -3.41756,-2.35128 z m -67.58632,-0.30857 c 0.13714,-2.33799 2.33205,-6.27486 2.40849,-4.31996 0.0398,1.01828 -0.50209,2.68455 -1.20424,3.70283 -0.70216,1.01827 -1.24407,1.29598 -1.20425,0.61713 z m 120.39042,-2.62257 c -2.36806,-1.88857 -2.85229,-2.63952 -1.20866,-1.87441 2.41407,1.12375 6.94206,5.18665 5.65008,5.06973 -0.26977,-0.0244 -2.26841,-1.46231 -4.44142,-3.19532 z m -85.65748,0.68904 c -0.47745,-0.72401 -0.58564,-1.5811 -0.24042,-1.90464 0.34521,-0.32354 0.9786,0.26884 1.40751,1.31639 0.89052,2.17493 0.13151,2.55749 -1.16709,0.58825 z m 413.02954,-1.87215 c 0.063,-1.43785 0.3753,-1.73032 0.7957,-0.7457 0.3804,0.89099 0.3336,1.95555 -0.104,2.36569 -0.4376,0.41014 -0.7489,-0.31885 -0.6917,-1.61999 z m -620.17978,-1.13141 c 1.20699,-1.3577 2.45163,-4.13482 2.76587,-6.17137 l 0.57134,-3.70282 0.19733,3.82009 c 0.13425,2.59909 -0.74979,4.57162 -2.76587,6.17137 -2.93957,2.33253 -2.9457,2.3316 -0.76867,-0.11727 z m -16.83355,-6.17137 0.15231,-7.40564 5.2679,-0.19258 5.2679,-0.19258 -4.60941,0.80972 c -4.47104,0.7854 -4.63375,1.0135 -5.42022,7.59822 l -0.8108,6.7885 z m 357.75116,6.17137 c 0,-0.67885 0.57449,-2.06741 1.27664,-3.08569 0.70216,-1.01827 1.27665,-1.29598 1.27665,-0.61713 0,0.67885 -0.57449,2.0674 -1.27665,3.08568 -0.70215,1.01828 -1.27664,1.29599 -1.27664,0.61714 z m 123.20129,-0.45864 c -0.50515,-0.76602 -0.29085,-1.39277 0.47624,-1.39277 0.76708,0 1.48954,-2.08284 1.60546,-4.62853 0.20578,-4.51909 0.22328,-4.53431 0.73981,-0.64374 0.59139,4.45435 -1.31291,8.95273 -2.82151,6.66504 z m -562.36787,-1.75457 c 0.49456,-1.21727 1.23096,-1.90229 1.63644,-1.52227 0.40548,0.38001 8.4e-4,1.37596 -0.89921,2.21321 -1.30066,1.20991 -1.45193,1.06814 -0.73723,-0.69094 z m 137.64311,-1.59247 c 0.0632,-1.43786 0.37526,-1.73033 0.79567,-0.74571 0.38044,0.89099 0.33365,1.95556 -0.10397,2.36569 -0.43762,0.41014 -0.74888,-0.31885 -0.6917,-1.61998 z m 135.58471,1.33713 c 0,-0.67885 0.48772,-1.95484 1.08382,-2.83554 0.85235,-1.2593 1.48087,-1.1428 2.94302,0.5455 1.4869,1.71686 1.50007,1.94407 0.0657,1.13457 -1.10332,-0.6227 -2.23582,-0.35765 -2.94302,0.68877 -0.63226,0.93554 -1.14957,1.14555 -1.14957,0.4667 z m 477.44753,-2.72388 c -0.7147,-1.75909 -0.5634,-1.90086 0.7372,-0.69094 0.9001,0.83724 1.3047,1.83319 0.8992,2.21321 -0.4054,0.38001 -1.1418,-0.30501 -1.6364,-1.52227 z m -581.52883,-1.59608 c 0.77531,-1.3577 1.70597,-2.46855 2.06814,-2.46855 0.36216,0 0.0241,1.11085 -0.75116,2.46855 -0.77531,1.3577 -1.70597,2.46855 -2.06814,2.46855 -0.36217,0 -0.0241,-1.11085 0.75116,-2.46855 z m 202.56711,1.6254 c 0.95069,-0.35655 2.08658,-0.3127 2.5242,0.0974 0.43762,0.41014 -0.34022,0.70186 -1.72853,0.64827 -1.5342,-0.0592 -1.84626,-0.3517 -0.79567,-0.74571 z m 319.05872,-1.11112 c 0.063,-1.43786 0.3752,-1.73032 0.7956,-0.7457 0.3805,0.89099 0.3337,1.95555 -0.1039,2.36569 -0.4377,0.41014 -0.7489,-0.31886 -0.6917,-1.61999 z M 413.478,278.44716 c 1.31103,-1.3577 2.68001,-2.46855 3.04218,-2.46855 0.36216,0 -0.41418,1.11085 -1.72521,2.46855 -1.31103,1.3577 -2.68001,2.46855 -3.04217,2.46855 -0.36217,0 0.41417,-1.11085 1.7252,-2.46855 z m 360.4855,0.54715 c -1.60984,-1.05677 -2.88533,-2.8619 -2.83442,-4.01139 0.0798,-1.80267 0.22488,-1.77466 1.05503,0.20374 0.52935,1.26155 2.41377,3.047 4.1876,3.96765 1.77383,0.92066 2.61621,1.6936 1.87196,1.71766 -0.74425,0.0241 -2.67033,-0.82089 -4.28017,-1.87766 z m 104.28129,-0.85572 -2.50882,-2.77712 2.96319,2.35128 c 1.62976,1.2932 2.9632,2.5429 2.9632,2.77712 0,0.98773 -1.0599,0.25852 -3.41757,-2.35128 z m 163.70001,2.00163 c -0.5107,-0.47862 -0.9286,-6.22079 -0.9286,-12.76038 0,-7.76653 -0.5709,-12.49022 -1.6462,-13.62034 -1.3959,-1.46708 -1.3028,-1.4871 0.6123,-0.13167 1.8069,1.27888 2.3336,3.98174 2.634,13.51749 l 0.3754,11.91898 9.5481,0.36264 9.548,0.36264 v -12.32397 c 0,-6.77818 0.4445,-12.58322 0.9878,-12.90008 0.5432,-0.31686 0.6914,5.34344 0.3292,12.57846 l -0.6585,13.15458 -9.9365,0.35593 c -5.4651,0.19576 -10.3543,-0.0357 -10.865,-0.51428 z m 91.2596,-2.3102 c 1.7012,-1.69713 3.3894,-3.08568 3.7516,-3.08568 0.3622,0 -0.7334,1.38855 -2.4346,3.08568 -1.7012,1.69713 -3.3894,3.08569 -3.7516,3.08569 -0.3621,0 0.7334,-1.38856 2.4346,-3.08569 z m -751.8883,-0.10285 c 0.0632,-1.43786 0.37526,-1.73033 0.79567,-0.74571 0.38044,0.89099 0.33365,1.95555 -0.10397,2.36569 -0.43762,0.41014 -0.74888,-0.31885 -0.6917,-1.61998 z m 255.49301,0 c 0.0632,-1.43786 0.37526,-1.73033 0.79567,-0.74571 0.38044,0.89099 0.33365,1.95555 -0.10397,2.36569 -0.43762,0.41014 -0.74888,-0.31885 -0.6917,-1.61998 z m -88.34125,-1.67572 c 0,-0.63878 0.58585,-1.50077 1.30189,-1.91551 0.74654,-0.43242 0.96733,0.063 0.51759,1.16143 -0.87551,2.13828 -1.81948,2.5295 -1.81948,0.75408 z m 553.16954,0.5443 c 0,-0.67885 0.5745,-2.06741 1.2766,-3.08569 0.7022,-1.01827 1.2767,-1.29598 1.2767,-0.61713 0,0.67885 -0.5745,2.0674 -1.2767,3.08568 -0.7021,1.01828 -1.2766,1.29599 -1.2766,0.61714 z m -655.78378,-2.20067 c 0.3018,-0.1921 1.73401,-1.16409 3.18268,-2.15998 2.43642,-1.67492 2.4984,-1.64873 0.82648,0.34926 -0.99411,1.18799 -2.42632,2.15998 -3.18269,2.15998 -0.75637,0 -1.12828,-0.15717 -0.82647,-0.34926 z M 595.632,273.90119 c 0.9507,-0.35655 2.08659,-0.3127 2.52421,0.0974 0.43761,0.41014 -0.34022,0.70186 -1.72853,0.64826 -1.5342,-0.0592 -1.84627,-0.35169 -0.79568,-0.7457 z m 38.43919,-1.6254 c -0.7753,-1.3577 -1.11333,-2.46855 -0.75116,-2.46855 0.36217,0 1.29283,1.11085 2.06814,2.46855 0.7753,1.3577 1.11332,2.46855 0.75116,2.46855 -0.36217,0 -1.29283,-1.11085 -2.06814,-2.46855 z m 234.17449,1.6254 c 0.95069,-0.35655 2.08658,-0.3127 2.5242,0.0974 0.43762,0.41014 -0.34022,0.70186 -1.72853,0.64826 -1.5342,-0.0592 -1.84626,-0.35169 -0.79567,-0.7457 z m 105.86991,-8.57134 c -0.21874,-8.27935 0.13754,-10.32753 2.03967,-11.7256 2.02351,-1.4873 2.1112,-1.46095 0.71869,0.21592 -0.87231,1.05044 -1.79016,6.32696 -2.03967,11.7256 l -0.45366,9.8157 z m 168.06071,8.57134 c 0.9507,-0.35655 2.0866,-0.3127 2.5242,0.0974 0.4377,0.41014 -0.3402,0.70186 -1.7285,0.64826 -1.5342,-0.0592 -1.8463,-0.35169 -0.7957,-0.7457 z m -713.22385,-1.27518 c 1.99192,-0.2828 5.25143,-0.2828 7.24336,0 1.99192,0.2828 0.36216,0.51419 -3.62168,0.51419 -3.98385,0 -5.61361,-0.23139 -3.62168,-0.51419 z m 353.6899,-1.19337 c 0.95069,-0.35655 2.08658,-0.3127 2.5242,0.0974 0.43762,0.41014 -0.34021,0.70186 -1.72853,0.64827 -1.5342,-0.0592 -1.84626,-0.3517 -0.79567,-0.74571 z m -331.25391,-7.17963 c 0.01,-3.39425 0.26565,-4.63632 0.56836,-2.76014 0.30271,1.87617 0.29462,4.65328 -0.018,6.17136 -0.3126,1.51808 -0.56028,-0.017 -0.55039,-3.41122 z m 101.77351,3.95816 c 0.49456,-1.21727 1.23096,-1.90229 1.63644,-1.52227 0.40548,0.38001 8.3e-4,1.37596 -0.89921,2.21321 -1.30066,1.20992 -1.45194,1.06814 -0.73723,-0.69094 z m 273.93065,-1.23428 c 0.49456,-1.21726 1.23096,-1.90228 1.63644,-1.52227 0.40548,0.38002 8.4e-4,1.37597 -0.89921,2.21321 -1.30066,1.20992 -1.45194,1.06815 -0.73723,-0.69094 z m 127.32048,-2.73916 c -3.83459,-5.54791 -2.95153,-5.53931 1.56904,0.0153 1.93367,2.37598 3.04113,4.31308 2.46101,4.30468 -0.58011,-0.008 -2.39364,-1.95238 -4.03005,-4.31996 z m 225.62822,-1.56804 c -4.6429,-5.21485 -4.7341,-5.43599 -0.8744,-2.1195 3.6565,3.14195 7.6647,8.11498 6.4336,7.9823 -0.2066,-0.0223 -2.7082,-2.66052 -5.5592,-5.8628 z m -555.64559,-2.16851 c -3.51067,-3.02787 -5.85645,-5.50522 -5.21285,-5.50522 0.6436,0 3.78752,2.4994 6.98649,5.55423 7.43281,7.0979 6.48241,7.07164 -1.77364,-0.049 z m 274.76362,1.03711 c -1.60388,-1.56173 -2.43653,-2.83951 -1.85034,-2.83951 1.28426,0 6.07566,4.79907 5.30713,5.31562 -0.29736,0.19987 -1.85292,-0.91438 -3.45679,-2.47611 z m 210.33957,1.63158 c 0,-0.25631 1.0371,-1.2283 2.3047,-2.15998 2.0888,-1.53528 2.1354,-1.49162 0.4972,0.466 -1.7204,2.05599 -2.8019,2.70983 -2.8019,1.69398 z m -716.434,-2.46855 c 0,-0.2563 1.03711,-1.22829 2.3047,-2.15998 2.0888,-1.53528 2.13538,-1.49162 0.49723,0.46601 -1.72045,2.05599 -2.80193,2.70982 -2.80193,1.69397 z m 169.14239,-1.86788 c 0.9396,-1.42484 6.01519,-4.29857 6.01519,-3.40573 0,0.28524 -1.55457,1.47324 -3.45459,2.64001 -1.90002,1.16676 -3.05229,1.51134 -2.5606,0.76572 z m 185.78218,-1.36894 c 1.31103,-1.3577 2.68001,-2.46854 3.04217,-2.46854 0.36217,0 -0.41417,1.11084 -1.7252,2.46854 -1.31103,1.35771 -2.68001,2.46855 -3.04218,2.46855 -0.36216,0 0.41418,-1.11084 1.72521,-2.46855 z m -79.67695,-0.87743 c 0,-0.70887 1.03712,-2.05114 2.30471,-2.98282 2.13186,-1.56693 2.15981,-1.50884 0.37266,0.77457 -1.06263,1.3577 -2.09974,2.69997 -2.30471,2.98283 -0.20496,0.28285 -0.37266,-0.0657 -0.37266,-0.77458 z m 224.55344,-0.3427 c -0.46139,-0.69966 0.0672,-0.90658 1.23925,-0.48508 2.28155,0.82053 2.69899,1.70521 0.80461,1.70521 -0.68158,0 -1.60132,-0.54906 -2.04386,-1.22013 z m -193.11404,-2.17412 c -1.63815,-1.95762 -1.59157,-2.00128 0.49723,-0.466 2.19375,1.61241 2.89139,2.62598 1.80747,2.62598 -0.27347,0 -1.31059,-0.97199 -2.3047,-2.15998 z m 313.60788,1.69397 c 0,-0.2563 1.0371,-1.22829 2.3047,-2.15997 2.0888,-1.53528 2.1354,-1.49162 0.4972,0.466 -1.7204,2.05599 -2.8019,2.70982 -2.8019,1.69397 z m -214.00834,-2.00254 c -2.1472,-0.86474 -2.22241,-1.0768 -0.40696,-1.14752 1.22484,-0.0477 2.59325,0.46867 3.04091,1.14752 0.93593,1.41927 0.89016,1.41927 -2.63395,0 z m -190.30278,-1.23427 c -2.71238,-0.81411 -2.82839,-1.00655 -0.65849,-1.09234 1.44867,-0.0573 3.52291,0.43428 4.60941,1.09234 2.30753,1.39759 0.70548,1.39759 -3.95092,0 z m -129.98655,-0.91988 c 6.37351,-0.22675 16.44836,-0.22559 22.38857,0.003 5.9402,0.22817 0.72552,0.41369 -11.58819,0.41227 -12.31371,-10e-4 -17.17388,-0.1881 -10.80038,-0.41484 z m 201.47214,0.0111 c 3.46245,-0.2551 8.7962,-0.25202 11.85277,0.007 3.05657,0.25885 0.22366,0.46757 -6.29536,0.46381 -6.51903,-0.004 -9.01986,-0.21556 -5.55741,-0.47065 z m 200.88115,0.0656 c 0.95069,-0.35655 2.08659,-0.3127 2.5242,0.0974 0.43762,0.41014 -0.34021,0.70186 -1.72852,0.64827 -1.5342,-0.0592 -1.84627,-0.3517 -0.79568,-0.74571 z m 48.64574,-0.0279 c 1.62976,-0.29419 4.29663,-0.29419 5.92639,0 1.62975,0.29419 0.29632,0.5349 -2.9632,0.5349 -3.25951,0 -4.59294,-0.24071 -2.96319,-0.5349 z m 10.61811,0.0279 c 0.95069,-0.35655 2.08658,-0.3127 2.5242,0.0974 0.43762,0.41014 -0.34022,0.70186 -1.72853,0.64827 -1.5342,-0.0592 -1.84627,-0.3517 -0.79567,-0.74571 z m 42.71935,-0.056 c 2.71626,-0.26629 7.16105,-0.26629 9.87731,0 2.71626,0.26629 0.49386,0.48416 -4.93866,0.48416 -5.43252,0 -7.65491,-0.21787 -4.93865,-0.48416 z m 38.82138,0.008 c 2.3379,-0.27266 6.4864,-0.27714 9.2188,-0.01 2.7324,0.26719 0.8196,0.49028 -4.2508,0.49576 -5.0703,0.005 -7.3059,-0.21314 -4.968,-0.48581 z m 48.7922,-0.0145 c 3.0976,-0.26073 7.8387,-0.25706 10.5358,0.008 2.6971,0.26521 0.1628,0.47854 -5.6319,0.47406 -5.7947,-0.004 -8.0015,-0.22148 -4.9039,-0.48222 z m 57.9944,0.0622 c 0.9507,-0.35655 2.0866,-0.3127 2.5242,0.0974 0.4376,0.41014 -0.3402,0.70186 -1.7285,0.64827 -1.5342,-0.0592 -1.8463,-0.3517 -0.7957,-0.74571 z M 417.12474,250.4378 c 1.28138,-0.31295 3.05929,-0.29237 3.95093,0.0457 0.89163,0.3381 -0.15677,0.59414 -2.32977,0.56899 -2.17301,-0.0252 -2.90253,-0.30178 -1.62116,-0.61472 z m 16.43712,0.0379 c 0.90542,-0.3424 2.38701,-0.3424 3.29243,0 0.90542,0.3424 0.16462,0.62255 -1.64622,0.62255 -1.81084,0 -2.55163,-0.28015 -1.64621,-0.62255 z m 147.50112,0 c 0.90542,-0.3424 2.38701,-0.3424 3.29243,0 0.90542,0.3424 0.16462,0.62255 -1.64622,0.62255 -1.81084,0 -2.55163,-0.28015 -1.64621,-0.62255 z m 21.1539,-0.0257 c 0.95069,-0.35655 2.08658,-0.3127 2.5242,0.0974 0.43762,0.41014 -0.34022,0.70186 -1.72853,0.64826 -1.5342,-0.0592 -1.84627,-0.35169 -0.79567,-0.7457 z m 185.69337,0 c 0.95069,-0.35655 2.08658,-0.3127 2.5242,0.0974 0.43762,0.41014 -0.34022,0.70186 -1.72853,0.64826 -1.5342,-0.0592 -1.84626,-0.35169 -0.79567,-0.7457 z m 67.16569,0 c 0.95069,-0.35655 2.08658,-0.3127 2.5242,0.0974 0.43762,0.41014 -0.34022,0.70186 -1.72853,0.64826 -1.5342,-0.0592 -1.84627,-0.35169 -0.79567,-0.7457 z m 280.51556,0 c 0.9507,-0.35655 2.0865,-0.3127 2.5242,0.0974 0.4376,0.41014 -0.3403,0.70186 -1.7286,0.64826 -1.5342,-0.0592 -1.8462,-0.35169 -0.7956,-0.7457 z m 18.4376,0 c 0.9507,-0.35655 2.0866,-0.3127 2.5242,0.0974 0.4376,0.41014 -0.3402,0.70186 -1.7285,0.64826 -1.5342,-0.0592 -1.8463,-0.35169 -0.7957,-0.7457 z m -382.00485,-1.2622 c 1.62975,-0.29419 4.29663,-0.29419 5.92638,0 1.62976,0.2942 0.29632,0.5349 -2.96319,0.5349 -3.25951,0 -4.59295,-0.2407 -2.96319,-0.5349 z"
         id="path204" />
      <path
         style="fill:#eb593f"
         d="m 413.73763,332.04903 c -6.9954,-1.58796 -18.0397,-6.6214 -21.37896,-9.74348 -13.37823,-12.50811 -16.22491,-34.94064 -6.63866,-52.31431 2.55077,-4.62289 11.05185,-12.52674 13.4733,-12.52674 0.97539,0 1.77343,-0.4457 1.77343,-0.99045 0,-0.54474 3.11135,-2.04058 6.91412,-3.32408 9.5856,-3.23531 30.14383,-3.2677 37.73515,-0.0595 l 5.39576,2.28036 v 7.80687 c 0,6.81689 -0.38973,8.04619 -3.0733,9.69412 -2.48287,1.52468 -3.89118,1.62004 -7.33045,0.4964 -9.76351,-3.18985 -25.08679,1.25417 -29.58621,8.58052 -3.31187,5.3927 -3.39579,15.79057 -0.16472,20.41214 4.30896,6.16334 11.34918,8.46709 24.40322,7.98539 10.0539,-0.37099 11.89422,-0.1106 14.44181,2.04338 2.53774,2.14564 2.82512,3.33134 2.19702,9.06453 -0.8731,7.9695 -2.6287,9.42755 -13.50651,11.21736 -10.14441,1.66913 -15.11207,1.5437 -24.655,-0.62255 z m 165.01692,-0.29797 c -12.88931,-3.15475 -20.12735,-8.62821 -27.23544,-20.59565 -3.35854,-5.65455 -3.6655,-7.25669 -3.6655,-19.13124 0,-12.04375 0.27772,-13.43975 3.9288,-19.74838 8.82578,-15.24987 20.82139,-21.59979 40.80409,-21.59979 24.08608,0 39.51015,10.50007 45.32712,30.85684 3.28484,11.49545 -0.74089,29.58434 -8.2799,37.20426 -1.90541,1.92585 -3.46437,3.83552 -3.46437,4.24371 0,1.41588 -13.46871,7.60327 -20.21581,9.28694 -8.85581,2.20988 -16.6652,2.06153 -27.19899,-0.51669 z m 27.29408,-26.81781 c 3.91253,-4.24191 4.31702,-5.42396 4.31702,-12.61572 0,-13.24956 -7.02563,-19.93226 -19.29775,-18.35581 -11.03618,1.41769 -15.74214,7.16374 -15.43592,18.84752 0.31238,11.91892 7.4527,18.24008 19.55161,17.30859 5.62766,-0.43327 7.1548,-1.16199 10.86504,-5.18458 z m 149.1842,26.47572 c -4.8232,-1.29629 -9.56649,-3.45027 -10.86504,-4.93393 -2.59192,-2.96138 -3.08161,-11.39241 -0.96478,-16.61048 1.48652,-3.66434 1.39428,-3.6645 16.92833,0.0306 4.61503,1.09779 11.43037,1.83044 15.14521,1.62811 6.17903,-0.33655 6.78819,-0.6419 7.15278,-3.58549 0.43291,-3.49515 -2.43172,-5.12378 -11.59281,-6.59086 -8.67445,-1.38914 -21.37258,-8.31664 -25.56351,-13.94623 -3.37569,-4.53449 -3.89057,-6.31345 -3.82141,-13.20322 0.0709,-7.05892 0.56419,-8.53567 4.34675,-13.01164 7.16083,-8.47353 12.75872,-10.45299 29.64758,-10.4836 14.49776,-0.0263 27.50163,2.58768 29.941,6.01855 0.53216,0.74846 0.97663,5.07252 0.98773,9.60901 0.0249,10.17368 -1.33189,10.88152 -13.88958,7.24641 -4.81595,-1.39409 -11.32078,-2.5347 -14.45518,-2.5347 -4.70543,0 -5.85834,0.47077 -6.61345,2.7005 -1.30206,3.84482 2.70889,6.45323 13.86212,9.01484 8.11643,1.86413 17.12318,6.42606 21.7901,11.03672 5.15198,5.08987 6.18351,18.86018 1.98992,26.56411 -5.12067,9.40704 -16.02766,13.71599 -34.15121,13.49188 -6.65836,-0.0823 -14.83684,-1.08665 -19.87455,-2.4406 z m 102.0655,1.78898 c -7.44036,-1.42701 -13.59579,-3.62853 -17.36204,-6.20961 -2.30576,-1.58018 -4.67631,-2.88491 -5.26789,-2.89941 -1.6146,-0.0396 -7.59075,-8.42359 -10.9419,-15.35056 -2.63137,-5.43914 -2.89454,-7.56711 -2.36599,-19.13124 0.55063,-12.04687 0.91182,-13.49086 4.87253,-19.47958 9.09342,-13.74952 20.59361,-19.38793 39.62563,-19.42799 15.93542,-0.0335 24.82653,2.93212 33.68738,11.23654 3.79798,3.55948 7.33413,7.75863 7.85811,9.33144 0.52398,1.57282 1.61361,3.25575 2.4214,3.73987 0.94743,0.5678 1.45673,6.04375 1.43493,15.42842 -0.0287,12.36169 -0.46359,15.38299 -2.89358,20.10245 -3.56158,6.91721 -11.469,15.07315 -17.30552,17.8494 -9.44458,4.49248 -24.34866,6.61589 -33.76306,4.81027 z m 16.41658,-24.27218 c 6.74409,-2.17697 10.58253,-8.26519 10.57647,-16.77556 -0.009,-12.61327 -8.2684,-19.77384 -20.93192,-18.14711 -9.41205,1.20905 -14.62146,7.35935 -14.62146,17.26229 0,14.97928 10.432,22.35541 24.97691,17.66038 z m 257.41349,22.82005 c -10.8088,-3.0083 -16.7088,-6.64868 -21.9746,-13.55868 -7.9179,-10.39013 -9.2689,-14.73536 -8.5888,-27.62448 1.2025,-22.78926 12.1756,-35.30688 34.3908,-39.23147 23.7577,-4.1971 43.0362,3.8443 52.5254,21.90932 3.7304,7.10163 4.3286,9.5233 4.3286,17.52343 0,25.20814 -16.3104,41.23673 -43.4602,42.70915 -6.3971,0.34694 -11.6682,-0.18175 -17.2212,-1.72727 z m 26.5252,-24.9853 c 4.3114,-3.79604 6.2522,-10.07566 5.5537,-17.96985 -0.9516,-10.75409 -9.2041,-16.44801 -21.3623,-14.73926 -8.7549,1.23043 -13.9085,7.88997 -13.9085,17.97276 0,6.57446 1.9655,10.83127 6.954,15.06138 3.8997,3.30673 4.8586,3.54882 11.9363,3.01358 5.5625,-0.42066 8.5638,-1.34618 10.8268,-3.33861 z m -691.01626,23.93687 c -3.33687,-0.83234 -3.77281,-5.65784 -3.77281,-41.76206 0,-27.60639 0.33646,-33.89881 1.87661,-35.09676 1.34093,-1.04299 9.14149,-1.35037 27.32722,-1.07683 23.70406,0.35654 25.88802,0.58463 31.82458,3.32372 12.20697,5.63222 17.66062,18.0878 14.0669,32.12738 -1.20545,4.70935 -2.95229,7.35421 -7.38812,11.18626 -3.19517,2.76025 -5.80939,5.53999 -5.80939,6.17719 0,2.38833 7.2422,12.2802 10.00555,13.66623 4.19867,2.10595 6.17976,6.8021 4.15275,9.84404 -1.39894,2.09939 -3.09866,2.43437 -12.3524,2.43437 h -10.73025 l -5.74438,-5.31755 c -3.1594,-2.92465 -7.16511,-8.17314 -8.90156,-11.66331 -5.75718,-11.57162 -10.67105,-9.73851 -10.67105,3.98082 0,11.56451 -1.53933,13.05553 -13.27344,12.85686 -4.65115,-0.0788 -9.42574,-0.38491 -10.61021,-0.68036 z m 42.54684,-44.41875 c 2.48846,-2.1106 3.1645,-7.27273 1.31087,-10.00953 -1.3174,-1.94507 -14.80365,-4.696 -17.77792,-3.62634 -1.67256,0.60152 -2.19614,2.36844 -2.19614,7.41135 0,3.64184 0.3951,6.99181 0.87799,7.44438 1.88045,1.76236 15.35906,0.83789 17.7852,-1.21986 z m 133.9094,42.24546 c -1.18795,-2.44354 -0.79292,-4.77926 2.13964,-12.6513 1.97812,-5.30997 4.10481,-10.76533 4.72598,-12.12303 0.62117,-1.3577 4.17056,-10.24447 7.88754,-19.74838 3.71697,-9.50391 8.33315,-20.33466 10.25818,-24.06834 l 3.50004,-6.7885 13.01107,-0.3552 c 10.42854,-0.28469 13.47054,0.0345 15.32593,1.60817 1.27317,1.07985 4.1999,6.79392 6.50385,12.69793 4.43758,11.37159 7.55266,19.01937 9.39979,23.07731 0.61802,1.3577 1.95421,4.69024 2.96932,7.40564 1.01512,2.7154 3.99642,10.38537 6.62511,17.04438 6.30138,15.96259 5.84508,16.89815 -8.24168,16.89815 -10.94268,0 -13.2827,-1.09001 -15.23596,-7.09708 -0.49665,-1.52741 -1.30755,-2.79416 -1.80199,-2.815 -1.97681,-0.0833 -27.34197,-0.12344 -28.79594,-0.0455 -0.85661,0.0459 -1.96382,1.33314 -2.46047,2.86055 -1.92778,5.92869 -4.33993,7.09708 -14.65205,7.09708 -8.99346,0 -9.80774,-0.2187 -11.15836,-2.99683 z M 693.613,302.4607 c 1.08435,-1.01626 -5.2341,-19.31323 -7.3562,-21.30208 -1.59322,-1.49316 -2.34629,-0.31003 -5.36447,8.42794 -1.93109,5.59073 -3.19958,10.92571 -2.81887,11.85552 0.68202,1.66571 13.92299,2.53366 15.53954,1.01862 z m 231.05514,26.80306 c -1.92283,-1.99127 -2.17958,-6.48074 -2.17958,-38.11135 0,-28.64334 0.35856,-36.13309 1.78288,-37.24093 2.6462,-2.05825 20.10168,-2.03952 22.26466,0.0239 0.96728,0.92276 3.77779,4.44231 6.24557,7.82123 2.46779,3.37892 5.22161,6.98917 6.11962,8.02278 0.898,1.0336 4.41742,5.39375 7.82092,9.68921 4.27208,5.39167 6.50813,7.32474 7.22149,6.24298 0.56832,-0.86182 1.07586,-7.92927 1.12786,-15.70544 0.0569,-8.51291 0.68301,-14.80301 1.57349,-15.8086 1.73789,-1.96253 20.39658,-2.32781 23.54495,-0.46095 1.6845,0.99881 1.9755,6.63903 1.9755,38.28926 0,31.65098 -0.291,37.29018 -1.9755,38.2876 -1.08646,0.64333 -6.20066,1.1782 -11.36484,1.1886 l -9.38942,0.0189 -4.53786,-5.24566 c -2.49582,-2.88512 -7.13129,-8.85592 -10.30105,-13.26845 -3.16975,-4.41253 -6.82917,-9.0995 -8.13204,-10.41549 -1.30286,-1.316 -2.36885,-2.84341 -2.36885,-3.39425 0,-0.55085 -0.88896,-1.00154 -1.97546,-1.00154 -1.64556,0 -1.97546,2.45875 -1.97546,14.72312 0,18.2414 -0.26612,18.60227 -13.71819,18.60227 -7.60755,0 -10.02772,-0.46457 -11.75869,-2.25717 z m 91.15756,0.21851 c -1.4162,-1.59739 -1.8952,-9.64093 -2.2128,-37.16077 -0.4851,-42.03214 -1.288,-39.79409 14.2765,-39.79409 6.7623,0 10.6487,0.54017 11.5978,1.61198 0.7851,0.88658 1.5985,7.13509 1.8075,13.88557 l 0.38,12.27361 h 10.5358 10.5358 l 0.329,-11.10846 c 0.5204,-17.57172 -0.1671,-16.6627 12.6025,-16.6627 6.7263,0 11.5114,0.56762 12.4861,1.48113 1.1571,1.08442 1.5804,11.14373 1.5804,37.55718 0,31.15072 -0.2826,36.34087 -2.0695,38.01564 -1.5304,1.43427 -4.7667,1.93957 -12.4225,1.93957 -12.4007,0 -12.3635,0.0498 -12.4491,-16.6627 l -0.057,-11.10846 -7.8469,-0.37784 c -13.9815,-0.67321 -13.8832,-0.76287 -13.8832,12.65593 0,14.75601 -0.6546,15.49307 -13.761,15.49307 -7.3381,0 -10.051,-0.48389 -11.4295,-2.03866 z"
         id="path203" />
    </g>
  </g>
</svg>
