<?xml version="1.0" encoding="UTF-8" standalone="no"?>
<!-- Created with Inkscape (http://www.inkscape.org/) -->

<svg
   version="1.1"
   id="svg1"
   width="1033"
   height="256"
   viewBox="0 0 1033 256"
   sodipodi:docname="eppendorf.svg"
   inkscape:version="1.4.3 (0d15f75, 2025-12-25)"
   xmlns:inkscape="http://www.inkscape.org/namespaces/inkscape"
   xmlns:sodipodi="http://sodipodi.sourceforge.net/DTD/sodipodi-0.dtd"
   xmlns="http://www.w3.org/2000/svg"
   xmlns:svg="http://www.w3.org/2000/svg">
  <defs
     id="defs1" />
  <sodipodi:namedview
     id="namedview1"
     pagecolor="#ffffff"
     bordercolor="#000000"
     borderopacity="0.25"
     inkscape:showpageshadow="2"
     inkscape:pageopacity="0.0"
     inkscape:pagecheckerboard="0"
     inkscape:deskcolor="#d1d1d1"
     inkscape:zoom="0.34181431"
     inkscape:cx="653.86378"
     inkscape:cy="308.64711"
     inkscape:window-width="1366"
     inkscape:window-height="697"
     inkscape:window-x="281"
     inkscape:window-y="1072"
     inkscape:window-maximized="1"
     inkscape:current-layer="g1" />
  <g
     inkscape:groupmode="layer"
     inkscape:label="Image"
     id="g1">
    <path
       style="fill:#1551ac"
       d="M 135.75572,152.67219 V 65.151047 l 26.25,0.0271 c 14.4375,0.0149 30.33575,0.42265 35.32945,0.90612 30.14355,2.91834 51.36942,21.87072 56.18291,50.165183 1.49573,8.79212 1.49728,10.33662 0.0194,19.38001 -2.22031,13.5863 -7.36836,23.88713 -16.15461,32.32413 -11.57582,11.11566 -25.84377,16.14774 -45.87712,16.18009 l -10.75,0.0174 v -15.8746 -15.8746 l 8.45433,-0.44374 c 15.92474,-0.83583 25.38836,-8.7398 27.13737,-22.66497 1.48671,-11.8368 -2.91066,-21.9716 -11.96101,-27.56699 -4.47705,-2.767953 -5.62562,-3.001393 -16.71233,-3.396683 l -11.90488,-0.42445 -0.25674,70.873013 -0.25674,70.87302 -19.75,0.27114 -19.75,0.27114 z m 127,-0.14135 V 64.868337 l 33.25,0.56135 c 29.97441,0.50605 33.98885,0.77258 40.75,2.70556 20.12296,5.75304 34.60037,20.20402 40.58989,40.515803 2.17662,7.38139 2.43415,24.58498 0.48651,32.5 -2.97356,12.08426 -10.63137,23.81981 -20.5884,31.55161 -10.17013,7.89727 -22.20097,11.40216 -39.238,11.43102 l -10.25,0.0174 v -16 -16 h 5.3185 c 12.18988,0 22.35478,-6.16391 26.65693,-16.16454 1.90185,-4.42096 2.18659,-6.52697 1.8219,-13.4752 -0.53798,-10.24988 -3.74848,-16.19887 -11.24247,-20.83205 -4.55564,-2.816533 -5.67151,-3.049393 -16.21683,-3.384153 l -11.32456,-0.35949 -0.25673,70.857723 -0.25674,70.85771 -19.75,0.27114 -19.75,0.27114 z M 61.665783,186.11359 C 35.235895,182.43035 16.32496,166.77914 9.1511746,142.65105 6.6504056,134.24004 6.6330356,114.88275 9.1189146,106.70333 13.375769,92.696787 20.726954,82.372497 31.692517,75.000107 c 11.375794,-7.6482 16.344925,-9.11439 32.563193,-9.60809 22.60696,-0.68818 35.78938,3.82768 48.5724,16.6393 10.40426,10.42753 15.14621,22.312543 16.50595,41.369733 l 0.69567,9.75 H 88.284323 46.538899 l 0.659274,2.75 c 0.3626,1.5125 1.873884,4.775 3.358408,7.25 7.176418,11.96453 28.943992,14.46379 42.820542,4.91647 2.33142,-1.60406 4.66618,-2.91647 5.18836,-2.91647 0.52217,0 5.955677,5.26069 12.074467,11.69043 l 11.12506,11.69043 -2.75464,2.89071 c -4.07408,4.27531 -14.66047,9.85644 -23.616037,12.45034 -9.10216,2.63636 -23.85593,3.61647 -33.72855,2.24063 z m 28.55823,-78.21254 c -0.36657,-1.2375 -1.88238,-3.825 -3.36847,-5.75 -8.73271,-11.311883 -29.184139,-11.118793 -36.951466,0.34888 -5.56389,8.21452 -6.922518,7.65112 18.450416,7.65112 h 22.536 z m 351.531707,78.66786 c -1.375,-0.24265 -5.2,-0.92774 -8.5,-1.52244 -7.53925,-1.35865 -19.24559,-6.70804 -26.24634,-11.99365 -14.74182,-11.13019 -23.25294,-31.4193 -21.96737,-52.36663 1.72669,-28.135173 18.81098,-49.355983 43.85951,-54.478983 8.37521,-1.71293 26.16873,-1.52232 34.24092,0.36679 15.28719,3.57761 28.8629,13.89211 35.85844,27.24437 4.71733,9.003893 6.66293,16.622083 7.42736,29.082683 l 0.62882,10.25 h -41.15067 c -45.76265,0 -42.96884,-0.48422 -39.2512,6.80294 4.25105,8.33275 11.99276,13.09763 22.67323,13.95496 7.92364,0.63603 14.87433,-1.05299 22.00601,-5.34746 3.11498,-1.87574 5.97642,-3.41044 6.35877,-3.41044 0.38234,0 5.57972,5.26227 11.54972,11.69394 l 10.85455,11.69395 -4.82208,4.24322 c -5.98536,5.26684 -15.14417,9.8486 -23.58429,11.79822 -6.59936,1.52441 -25.46417,2.77755 -29.93538,1.98853 z m 26,-77.46752 c 0,-1.91667 -2.78307,-6.41388 -5.66073,-9.147293 -7.86171,-7.46763 -23.21338,-8.05283 -30.95271,-1.1799 -2.51416,2.232713 -6.37755,8.362273 -6.38282,10.126853 -0.003,0.96135 4.96093,1.25 21.49626,1.25 14.34478,0 21.5,-0.34933 21.5,-1.04966 z m 338.51979,76.08893 c -22.31701,-4.8775 -36.66474,-17.36612 -43.12752,-37.53927 -2.05872,-6.42615 -2.58571,-10.16406 -2.67876,-19 -0.13993,-13.28885 1.29077,-20.43796 6.20381,-31.000003 6.36141,-13.67574 17.51309,-23.91628 31.90397,-29.29727 5.71508,-2.13696 8.85303,-2.56502 21.74849,-2.96676 12.92527,-0.40266 16.22346,-0.17773 23.17684,1.58063 11.66207,2.94909 18.74784,6.75654 26.85011,14.42756 12.22687,11.57608 17.76236,25.635043 17.81878,45.255843 0.0529,18.41104 -4.94219,31.98589 -15.78295,42.89212 -11.10714,11.17422 -24.77698,16.36847 -45.13256,17.14943 -9.50368,0.36461 -13.86813,0.0521 -20.98021,-1.50228 z m 29.19225,-33.58307 c 12.97978,-6.4681 17.85646,-26.03388 10.19547,-40.90544 -3.14916,-6.11318 -6.69135,-9.32459 -12.84184,-11.642623 -10.0403,-3.78406 -21.26337,-0.75929 -27.10527,7.305223 -11.37174,15.69823 -5.40829,41.42809 10.76806,46.45979 6.52618,2.02998 13.34503,1.59286 18.98358,-1.21695 z M 513.75572,124.52135 V 64.891657 l 36.25,0.5207 c 38.37776,0.55127 41.20138,0.87839 51.09941,5.92004 5.20493,2.65117 12.27989,9.31729 15.13577,14.26113 5.19891,8.99986 5.46323,11.65034 5.6265,56.421413 l 0.15184,41.63611 -19.08617,0.27143 -19.08617,0.27143 -0.29559,-37.27143 c -0.28072,-35.39611 -0.398,-37.44576 -2.33098,-40.73605 -3.33695,-5.68013 -7.47807,-7.425073 -18.69004,-7.875403 l -9.77457,-0.3926 v 43.116313 43.11631 h -19.5 -19.5 z m 164,58.93884 c -17.12992,-2.86748 -33.42876,-14.69424 -40.45457,-29.35463 -5.18076,-10.81045 -6.94751,-20.11898 -6.24137,-32.88411 1.49014,-26.937733 16.12501,-46.615823 39.784,-53.493683 3.71943,-1.08126 10.34893,-1.67696 20.45729,-1.83819 l 14.95465,-0.23853 0.27421,16.13272 0.27421,16.13272 -9.80506,0.39382 c -8.43495,0.33879 -10.44933,0.7714 -14.41582,3.095913 -5.15276,3.01973 -10.44242,10.17504 -11.43555,15.46887 -1.00802,5.37322 0.11294,17.4435 1.94834,20.97936 2.64205,5.08984 8.4688,10.08149 14.32637,12.27309 4.16358,1.55779 7.81629,2.02351 15.87081,2.02351 h 10.46249 v -68.000003 -68 h 19 19 v 84.000003 84 l -35.75,-0.13618 c -19.6625,-0.0749 -36.875,-0.32451 -38.25,-0.55468 z m 218.19556,-46.05914 c 0.30386,-46.660633 0.30894,-46.759973 2.66199,-51.963773 2.83114,-6.26109 10.35325,-13.59037 16.77148,-16.34154 5.17442,-2.21802 13.45497,-3.57083 23.62097,-3.85901 l 6.75,-0.19135 v 17.05283 17.05284 h -3.07693 c -2.06747,0 -4.03589,0.958973 -6,2.923073 l -2.92307,2.92308 -0.11849,38.32692 c -0.0652,21.07981 -0.0454,38.88943 0.0438,39.57693 0.12493,0.96203 -4.23743,1.25 -18.93595,1.25 H 895.6468 Z m 56.80444,-23.16091 c 0,-65.805293 0.11126,-70.268393 1.89456,-75.998143 5.12348,-16.46191 19.32268,-28.6984598 37.85978,-32.6267198 4.1322,-0.87566 12.65414,-1.43623 21.99574,-1.44687 l 15.25,-0.0174 v 17.8792798 17.87928 l -12.25,0.43339 c -13.4791,0.47687 -16.628,1.49752 -21.13124,6.8492 -3.0728,3.65184 -3.9925,6.66646 -4.0655,13.32542 l -0.053,4.86658 18.50004,0.13342 18.5,0.13343 0.2742,16.75 0.2742,16.75 h -18.5242 -18.52424 v 42.500003 42.5 h -20 -20.00004 z"
       id="path10" />
  </g>
</svg>
