<?xml version="1.0" encoding="UTF-8" standalone="no"?>
<!-- Created with Inkscape (http://www.inkscape.org/) -->

<svg
   version="1.1"
   id="svg1"
   width="1448"
   height="411"
   viewBox="0 0 1448 411"
   sodipodi:docname="eppendorf.svg"
   inkscape:version="1.4.3 (0d15f75, 2025-12-25)"
   xmlns:inkscape="http://www.inkscape.org/namespaces/inkscape"
   xmlns:sodipodi="http://sodipodi.sourceforge.net/DTD/sodipodi-0.dtd"
   xmlns="http://www.w3.org/2000/svg"
   xmlns:svg="http://www.w3.org/2000/svg">
  <defs
     id="defs1" />
  <sodipodi:namedview
     id="namedview1"
     pagecolor="#ffffff"
     bordercolor="#000000"
     borderopacity="0.25"
     inkscape:showpageshadow="2"
     inkscape:pageopacity="0.0"
     inkscape:pagecheckerboard="0"
     inkscape:deskcolor="#d1d1d1"
     inkscape:zoom="0.34181431"
     inkscape:cx="791.36535"
     inkscape:cy="176.99669"
     inkscape:window-width="1366"
     inkscape:window-height="697"
     inkscape:window-x="281"
     inkscape:window-y="1072"
     inkscape:window-maximized="1"
     inkscape:current-layer="g1" />
  <g
     inkscape:groupmode="layer"
     inkscape:label="Image"
     id="g1">
    <path
       style="fill:#1551ac;stroke-width:1.54754"
       d="M 187.59041,257.59818 V 108.24584 l 36.83957,0.0463 c 20.26176,0.0254 42.57355,0.72124 49.58177,1.54626 42.30382,4.98007 72.09246,37.32176 78.84777,85.60546 2.09912,15.0035 2.1013,17.63915 0.0272,33.07144 -3.11601,23.18463 -10.34084,40.7627 -22.67157,55.16021 -16.24564,18.96855 -36.26945,27.55565 -64.3845,27.61086 l -15.08668,0.0297 V 284.22646 257.1369 l 11.86491,-0.75723 c 22.34897,-1.42632 35.63033,-14.91422 38.08491,-38.67712 2.08647,-20.19916 -4.08485,-37.49391 -16.78622,-47.04229 -6.28315,-4.72343 -7.89507,-5.12179 -23.45429,-5.79634 l -16.70745,-0.72431 -0.36031,120.94278 -0.36031,120.94279 -27.71739,0.4627 -27.71739,0.46269 z m 178.23332,-0.24121 V 107.7634 l 46.66345,0.95793 c 42.06645,0.86356 47.70036,1.31839 57.18904,4.61696 28.2408,9.8174 48.55857,34.47759 56.96434,69.13907 3.05469,12.59613 3.41611,41.95357 0.68277,55.46032 -4.17313,20.62145 -14.92019,40.64783 -28.89401,53.84193 -14.27288,13.47646 -31.1571,19.45746 -55.06708,19.50671 l -14.38497,0.0297 v -27.30354 -27.30355 h 7.46405 c 17.10742,0 31.37296,-10.51854 37.41065,-27.58433 2.66908,-7.54424 3.06869,-11.13808 2.55688,-22.99504 -0.75501,-17.49113 -5.26066,-27.64291 -15.77782,-35.5493 -6.39344,-4.80634 -7.95946,-5.2037 -22.75889,-5.77496 l -15.89302,-0.61346 -0.3603,120.91669 -0.36031,120.91666 -27.71739,0.4627 -27.71739,0.46269 z M 83.611708,314.66498 C 46.519687,308.37963 19.979854,281.67129 9.9120779,240.49739 6.4024687,226.14424 6.3780915,193.11158 9.8668038,179.15363 15.840924,155.25186 26.157665,137.63375 41.546868,125.05298 c 15.964925,-13.05144 22.938663,-15.55345 45.699574,-16.39593 31.726878,-1.17436 50.227248,6.53183 68.167088,28.39449 14.60146,17.79428 21.25637,38.07572 23.16465,70.59627 l 0.97631,16.6381 h -58.586 -58.586032 l 0.925233,4.6928 c 0.508877,2.58104 2.629831,8.1484 4.71323,12.37192 10.071471,20.41713 40.620349,24.68204 60.094859,8.38981 3.27194,-2.73728 6.54857,-4.97687 7.28141,-4.97687 0.73282,0 8.35827,8.97722 16.94545,19.94939 l 15.61304,19.94938 -3.86589,4.93292 c -5.71761,7.29569 -20.57468,16.81973 -33.14303,21.24615 -12.77408,4.49887 -33.479699,6.1714 -47.335052,3.82357 z M 123.69067,181.1975 c -0.51445,-2.11175 -2.64175,-6.52725 -4.72735,-9.81221 -12.25559,-19.3034 -40.957371,-18.9739 -51.858131,0.59536 -7.80843,14.01784 -9.715145,13.05642 25.893535,13.05642 h 31.627296 z m 493.34381,134.24447 c -1.9297,-0.41408 -7.29775,-1.58316 -11.92901,-2.598 -10.58067,-2.3185 -27.00949,-11.44708 -36.83442,-20.46682 -20.68885,-18.99336 -32.63346,-53.61615 -30.82927,-89.36217 2.42325,-48.01187 26.39955,-84.22458 61.55296,-92.96683 11.75387,-2.92307 36.72551,-2.5978 48.05411,0.62591 21.45423,6.10509 40.50654,23.70649 50.32417,46.49175 6.62036,15.36488 9.35083,28.36511 10.42364,49.62877 l 0.8825,17.49133 h -57.75135 c -64.22385,0 -60.30298,-0.82631 -55.0856,11.60902 5.96598,14.21961 16.83078,22.35074 31.81988,23.81375 11.12013,1.08536 20.87482,-1.7969 30.8835,-9.12529 4.3716,-3.2009 8.38738,-5.81982 8.92398,-5.81982 0.53658,0 7.83064,8.97991 16.20901,19.95538 l 15.23341,19.95539 -6.76737,7.24093 c -8.39992,8.98772 -21.25351,16.80636 -33.09847,20.13333 -9.26162,2.60136 -35.73672,4.73981 -42.01167,3.39337 z m 36.48871,-132.19612 c 0,-3.27074 -3.9058,-10.9451 -7.94434,-15.6096 -11.03322,-12.74329 -32.57793,-13.74192 -43.4394,-2.01346 -3.52841,3.81006 -8.95033,14.26998 -8.95773,17.28119 -0.004,1.64051 6.96223,2.13309 30.16811,2.13309 20.13164,0 30.17336,-0.59613 30.17336,-1.79122 z m 475.08271,129.84359 c -31.3199,-8.32331 -51.4557,-29.63478 -60.5257,-64.05969 -2.8892,-10.96604 -3.6288,-17.34468 -3.7594,-32.42296 -0.1963,-22.67705 1.8115,-34.8768 8.7065,-52.90062 8.9277,-23.33727 24.5781,-40.81246 44.7744,-49.99496 8.0207,-3.64666 12.4245,-4.37714 30.5221,-5.06269 18.1395,-0.68713 22.7682,-0.3033 32.5267,2.6973 16.3667,5.03253 26.3109,11.52984 37.6818,24.62022 17.1593,19.75425 24.9279,43.74547 25.007,77.22781 0.074,31.41791 -6.9359,54.58301 -22.1499,73.19418 -15.5879,19.06849 -34.7723,27.93233 -63.3396,29.26501 -13.3376,0.6222 -19.4627,0.0889 -29.4439,-2.5636 z m 40.9688,-57.30855 c 18.2159,-11.03763 25.0599,-44.42607 14.3084,-69.80397 -4.4196,-10.43197 -9.3907,-15.91215 -18.0224,-19.8678 -14.0907,-6.45739 -29.8413,-1.29571 -38.0398,12.46615 -15.9593,26.78858 -7.5901,70.69586 15.112,79.28231 9.1589,3.4641 18.7286,2.71817 26.6418,-2.07669 z M 718.08014,209.55957 V 107.8032 l 50.87368,0.88856 c 53.85981,0.94072 57.82251,1.49895 71.71352,10.10238 7.30467,4.52414 17.23375,15.89969 21.24173,24.33621 7.29621,15.35801 7.66716,19.88097 7.89629,96.28154 l 0.2131,71.05083 -26.78576,0.46319 -26.78576,0.46319 -0.41484,-63.60264 c -0.39396,-60.40245 -0.55855,-63.90012 -3.27132,-69.51491 -4.68312,-9.69298 -10.49481,-12.67067 -26.22983,-13.43915 l -13.71775,-0.66996 v 73.57676 73.57676 H 745.44667 718.08014 Z M 948.2397,310.13703 c -24.04033,-4.89328 -46.91432,-25.07531 -56.77443,-50.09284 -7.27074,-18.44773 -9.75022,-34.33247 -8.75921,-56.1158 2.09128,-45.96848 22.63003,-79.54858 55.83334,-91.28545 5.21989,-1.84514 14.52381,-2.86169 28.71001,-3.13682 l 20.98753,-0.40704 0.38483,27.53002 0.38483,27.53003 -13.76054,0.67204 c -11.83771,0.57814 -14.66471,1.31638 -20.23133,5.28309 -7.23145,5.15308 -14.65502,17.36342 -16.04879,26.39719 -1.41467,9.16925 0.1585,29.76683 2.73432,35.80068 3.70789,8.68567 11.88522,17.20378 20.1058,20.94368 5.84322,2.65832 10.96948,3.45306 22.27329,3.45306 h 14.68318 V 140.6688 24.628734 h 26.66487 26.6648 V 167.97235 311.31596 l -50.172,-0.23239 c -27.59458,-0.12781 -51.75081,-0.55376 -53.6805,-0.94654 z m 306.2183,-78.59862 c 0.4264,-79.62504 0.4335,-79.79456 3.7358,-88.6747 3.9733,-10.68437 14.5299,-23.19158 23.5373,-27.88637 7.2619,-3.78499 18.8829,-6.09352 33.15,-6.58529 l 9.473,-0.32653 v 29.10017 29.10018 h -4.3182 c -2.9015,0 -5.664,1.63646 -8.4205,4.98814 l -4.1022,4.98816 -0.1663,65.4038 c -0.091,35.97209 -0.064,66.3637 0.061,67.5369 0.1754,1.64168 -5.9468,2.13309 -26.5749,2.13309 h -26.8027 z m 79.72,-39.52343 c 0,-112.29486 0.1561,-119.911013 2.6588,-129.688668 7.1904,-28.091782 27.1177,-48.973106 53.1329,-55.6765697 5.7992,-1.4942889 17.759,-2.4508856 30.8691,-2.4690425 l 21.402,-0.029693 V 34.66149 65.171972 l -17.1918,0.739568 c -18.9167,0.813765 -23.3359,2.555475 -29.6558,11.687965 -4.3124,6.231761 -5.6031,11.376124 -5.7056,22.739455 l -0.074,8.30468 25.9632,0.22767 25.9631,0.2277 0.3849,28.5834 0.3848,28.58339 h -25.9971 -25.9972 v 72.52505 72.52504 h -28.0682 -28.0683 z"
       id="path10" />
  </g>
</svg>
