<?xml version="1.0" encoding="UTF-8" standalone="no"?>
<!-- Created with Inkscape (http://www.inkscape.org/) -->

<svg
   version="1.1"
   id="svg1"
   width="1448"
   height="600"
   viewBox="0 0 1447.9999 600"
   sodipodi:docname="Mania de Churrasco.svg"
   inkscape:version="1.4.3 (0d15f75, 2025-12-25)"
   xmlns:inkscape="http://www.inkscape.org/namespaces/inkscape"
   xmlns:sodipodi="http://sodipodi.sourceforge.net/DTD/sodipodi-0.dtd"
   xmlns="http://www.w3.org/2000/svg"
   xmlns:svg="http://www.w3.org/2000/svg">
  <defs
     id="defs1" />
  <sodipodi:namedview
     id="namedview1"
     pagecolor="#ffffff"
     bordercolor="#000000"
     borderopacity="0"
     inkscape:showpageshadow="false"
     inkscape:pageopacity="0.0"
     inkscape:pagecheckerboard="0"
     inkscape:deskcolor="#d1d1d1"
     showborder="false"
     borderlayer="false"
     inkscape:clip-to-page="true"
     inkscape:zoom="0.34181432"
     inkscape:cx="738.70516"
     inkscape:cy="630.45926"
     inkscape:window-width="1366"
     inkscape:window-height="697"
     inkscape:window-x="281"
     inkscape:window-y="1072"
     inkscape:window-maximized="1"
     inkscape:current-layer="g1" />
  <g
     inkscape:groupmode="layer"
     inkscape:label="Image"
     id="g1">
    <g
       id="g176"
       transform="matrix(1.43469,0,0,1.7132027,44.859829,596.63247)">
      <path
         style="fill:#f2010a"
         d="m 177.45053,-30.631283 c -7.08545,-3.49261 -13.70058,-12.84676 -17.57054,-24.84567 -5.83769,-18.09995 -6.34617,-55.849007 -1.12959,-83.860467 2.00448,-10.76343 1.97214,-10.81835 -2.40702,-4.08837 -7.69268,11.82224 -21.42583,21.33922 -33.11213,22.9465 -11.01774,1.51533 -21.40262,-4.65623 -26.557602,-15.78272 -2.6335,-5.68414 -2.46958,-5.86728 -5.45782,6.09753 -2.96797,11.88368 -8.86843,24.08445 -14.13538,29.2287 -2.4014,2.345447 -6.84119,5.433197 -9.86619,6.861647 -4.7265,2.23192 -6.76685,2.58365 -14.50799,2.50103 -13.49124,-0.14401 -21.59892,-4.23043 -25.60197,-12.903847 -2.56924,-5.56681 -2.33906,-11.88825 0.74923,-20.57567 3.13643,-8.82283 4.19858,-20.81251 2.35141,-26.54303 -0.68811,-2.13472 -2.75411,-6.3563 -4.59112,-9.3813 -8.21281,-13.52403 -7.81466,-28.22264 1.04985,-38.75753 3.81646,-4.5356 5.93886,-4.41599 3.99956,0.2254 -0.79693,1.90733 -1.44897,6.16667 -1.44897,9.46521 0,5.28222 0.37006,6.4188 3.10359,9.53212 2.83468,3.22852 3.57244,3.5348 8.51469,3.5348 4.71447,0 5.8692,-0.41983 8.96957,-3.26111 3.12414,-2.86306 3.6248,-3.9925 4.10183,-9.25326 0.69387,-7.65208 -0.40501,-10.22275 -9.88033,-23.11369 -9.43373,-12.83436 -11.30935,-17.45684 -11.30935,-27.87195 0,-6.99221 0.40486,-8.81884 3.21387,-14.5 3.5817,-7.24393 15.07328,-21.5 17.33079,-21.5 2.56829,0 1.87584,12.96747 -1.01458,19 -1.63591,3.41427 -2.41701,6.84727 -2.46289,10.82469 -0.0633,5.4848 0.15078,6.02456 3.66812,9.25 5.77395,5.29475 12.3554,4.05969 16.81456,-3.15538 2.14016,-3.46286 2.20314,-4.16286 1.37418,-15.27425 -1.54502,-20.70952 -1.26356,-24.82111 2.20396,-32.19543 4.48674,-9.54192 11.93911,-14.88286 26.331512,-18.8712 8.89733,-2.46558 15.59028,-6.49333 19.68473,-11.84607 3.37912,-4.41759 4.35575,-4.45971 4.35575,-0.18782 0,4.17279 -2.35379,8.85586 -7.9422,15.80171 -5.95923,7.40675 -7.65673,10.43794 -8.50561,15.1883 -1.68565,9.43303 10.53873,18.4342 20.36095,14.99235 5.17653,-1.81392 9.52606,-6.38588 12.60747,-13.25218 2.27479,-5.06891 2.63275,-7.05475 2.30792,-12.80343 -0.35102,-6.21225 -0.23336,-6.72313 1.35286,-5.87422 2.43117,1.30112 6.3482,6.64456 8.74634,11.93137 4.69584,10.35215 1.04447,26.8086 -8.58277,38.68191 -4.19564,5.1745 -6.34496,10.13843 -6.34496,14.65394 0,2.69521 0.78327,4.11624 3.66211,6.64389 3.19594,2.80608 4.20266,3.15445 7.90866,2.73673 10.10085,-1.13851 14.22767,-8.07849 17.39034,-29.24491 3.52806,-23.61188 5.96289,-29.51092 16.02614,-38.82772 8.2898,-7.67489 13.68088,-10.07056 23.51275,-10.44855 l 8,-0.30757 -3.28182,1.68223 c -5.13368,2.63148 -7.59098,6.89257 -8.03982,13.94147 -0.84714,13.304 7.63721,20.42851 16.89668,14.18855 2.68883,-1.812 4.19414,-4.30136 7.44022,-12.30399 4.81514,-11.8709 7.17773,-15.4291 12.82414,-19.31393 6.01253,-4.13673 10.91767,-5.27781 21.1606,-4.9226 l 9,0.31211 -5.5,2.84663 c -6.87209,3.55679 -16.32997,12.69651 -18.9863,18.34761 -2.55806,5.44204 -2.56224,11.86649 -0.0137,21.0632 4.71045,16.99824 1.39243,29.07573 -12.43984,45.28065 -2.48807,2.91485 -5.29199,7.3113 -6.23093,9.76989 l -1.70718,4.47017 2.74474,2.36092 c 2.13355,1.83521 3.90136,2.35604 7.93897,2.33896 9.11213,-0.0385 17.82704,-5.4743 21.58118,-13.4609 2.45408,-5.22083 2.62225,-10.61328 0.59306,-19.01713 -2.91793,-12.08454 -1.21735,-18.61738 6.88204,-26.43764 4.96435,-4.79326 6.30603,-4.94973 4.62941,-0.53988 -2.13734,5.62164 -1.31429,16.35944 1.97667,25.78819 4.03525,11.56119 4.71836,18.46113 2.6334,26.59951 -3.3245,12.9768 -9.47377,20.91041 -29.24618,37.73259 -6.82415,5.80592 -14.48895,13.09895 -17.0329,16.20673 -9.79138,11.96153 -15.32244,28.51873 -15.32244,45.86765 0,17.173097 2.85868,23.917697 10.57617,24.952827 3.65466,0.4902 4.33541,0.22382 6.74439,-2.6391 3.69209,-4.3878 3.4659,-8.698347 -1.02671,-19.565817 -4.80938,-11.63372 -5.10278,-18.72321 -1.05985,-25.60966 3.61884,-6.16409 6.6602,-8.57351 18.21931,-14.4337 5.45236,-2.76421 12.24591,-7.20841 15.49758,-10.13819 5.50089,-4.95634 6.74673,-7.05198 10.57215,-17.7835 0.60241,-1.68998 1.08018,-1.22494 3.08208,3 1.33117,2.80939 2.37478,6.87583 2.38201,9.28154 0.0168,5.59788 -3.43222,15.69917 -7.03158,20.59354 -3.27356,4.45134 -11.30164,10.75312 -18.06482,14.18029 -5.74821,2.91284 -9.59975,7.37663 -10.4985,12.16738 -0.37804,2.01514 -0.16094,7.73939 0.48245,12.72057 2.78799,21.584967 -4.2902,41.202357 -21.44656,59.439677 -16.00285,17.01112 -33.51702,24.72459 -44.19185,19.46267 z m 13.02892,-18.75733 c 1.93581,-5.22559 2.81772,-13.25661 5.23506,-47.67269 2.03328,-28.948067 5.90992,-52.086617 19.25302,-114.915657 8.00207,-37.67959 7.81835,-46.76937 -1.07926,-53.39547 -3.45272,-2.57127 -11.65952,-2.76318 -16.19452,-0.37869 -6.89032,3.6229 -23.9477,23.74523 -36.25896,42.77416 -11.38746,17.60102 -28.11054,47.17543 -30.7723,54.42012 -0.90704,2.46874 -1.25743,0.61384 -2.26682,-12 -1.61848,-20.2253 -7.09776,-69.06836 -8.24747,-73.51909 -1.51939,-5.88179 -5.06551,-10.29234 -9.08036,-11.29388 -9.24617,-2.30652 -14.925742,3.34344 -24.018062,23.89285 -12.25871,27.70573 -30.84086,75.50197 -44.33817,114.04476 -3.30966,9.45104 -2.95325,12.5654 1.77949,15.5497 4.41785,2.78575 15.06382,2.22329 19.64365,-1.03784 4.09813,-2.91812 5.90322,-6.65633 11.6164,-24.05661 6.80655,-20.73029 17.4973,-50.27635 26.956602,-74.50001 0.49114,-1.25774 1.62682,5.97937 3.06003,19.50001 4.63768,43.75092 4.93516,45.25512 10.01527,50.64162 2.67937,2.84095 3.85822,3.35838 7.6514,3.35838 8.58721,0 13.15043,-4.90747 27.28813,-29.34673 19.79724,-34.2227 40.58451,-67.65328 42.06707,-67.65328 0.29845,0 0.32116,0.35837 0.0504,0.79638 -1.80821,2.92574 -12.90493,51.70508 -16.68755,73.35562 -8.30388,47.52895 -7.45276,88.944807 2.2243,108.235327 4.98836,9.94395 9.19275,11.05597 12.1026,3.20102 z"
         id="path178" />
      <path
         style="fill:#4c4d4c"
         d="m 143.96426,-1.7003525 c 1.7875,-0.22183 4.7125,-0.22183 6.5,0 1.7875,0.22183 0.325,0.40332 -3.25,0.40332 -3.575,0 -5.0375,-0.18149 -3.25,-0.40332 z m -16.9375,-0.95972 c 0.72187,-0.28887 1.58437,-0.25334 1.91667,0.0789 0.33229,0.33229 -0.25834,0.56864 -1.3125,0.52522 -1.16495,-0.048 -1.4019,-0.28494 -0.60417,-0.60417 z m 10.6875,-12.9038105 c -1.65,-0.23223 -7.3875,-0.9208 -12.75,-1.53015 -5.3625,-0.60935 -9.7487,-1.39479 -9.7471,-1.74542 0.002,-0.35063 4.38909,-1.92263 9.75,-3.49334 5.3609,-1.57071 15.05731,-4.4348 21.54757,-6.36464 l 11.80048,-3.5088 5.43115,6.00162 c 2.98713,3.30089 6.67692,6.35091 8.19953,6.77783 2.44909,0.68669 2.01872,0.92484 -3.73163,2.06495 -7.00688,1.38924 -25.61163,2.48598 -30.5,1.79795 z m -68.012312,-19.70968 c -2.75677,-1.21187 -7.91011,-3.71823 -11.45186,-5.56969 -6.35218,-3.32062 -6.40615,-3.38379 -3.97785,-4.6561 1.35393,-0.7094 4.93227,-1.96864 7.95186,-2.79833 3.01959,-0.82968 11.11516,-3.06807 17.99016,-4.97418 6.875,-1.90612 16.1,-4.24614 20.500002,-5.20006 6.60511,-1.43198 33.65613,-8.3134 39.63107,-10.08162 1.31974,-0.39056 1.76466,0.58644 2.33089,5.1184 0.38489,3.08061 1.3487,7.15412 2.14179,9.05226 1.14667,2.74436 1.1813,3.54403 0.16912,3.90471 -3.01686,1.07501 -27.99061,7.65483 -33.85295,8.91922 -3.53096,0.76156 -12.781712,3.00405 -20.557242,4.98332 -7.77552,1.97927 -14.52552,3.5777 -15,3.55207 -0.47447,-0.0256 -3.11822,-1.03813 -5.87499,-2.25 z m 6.89387,-14.25533 c 0.34149,-0.88993 0.17384,-1.29132 -0.39302,-0.94098 -0.5437,0.33602 -0.98854,1.03439 -0.98854,1.55193 0,1.43844 0.71677,1.12147 1.38156,-0.61095 z m 15.19088,-2.19806 c 1.03589,-1.40211 1.54486,-1.50151 2.56024,-0.5 2.21038,2.18016 3.03492,1.34627 0.91683,-0.92723 -1.11561,-1.19748 -2.15044,-1.98498 -2.29961,-1.75 -0.14917,0.23497 -1.12366,1.43973 -2.16555,2.67723 -1.04188,1.2375 -1.53669,2.25 -1.09958,2.25 0.43711,0 1.37656,-0.7875 2.08767,-1.75 z m -3.07244,-0.25 c 0.33992,-0.55 0.14148,-1 -0.44098,-1 -0.58246,0 -1.05902,0.45 -1.05902,1 0,0.55 0.19844,1 0.44098,1 0.24254,0 0.7191,-0.45 1.05902,-1 z m 24.000002,-2 c 0.33992,-0.55 0.14148,-1 -0.44098,-1 -0.58246,0 -1.05902,0.45 -1.05902,1 0,0.55 0.19844,1 0.44098,1 0.24254,0 0.7191,-0.45 1.05902,-1 z m -10.77083,-2.60417 c -0.3323,-0.33229 -1.1948,-0.36782 -1.91667,-0.0789 -0.797732,0.31923 -0.560782,0.55618 0.60417,0.60417 1.05416,0.0434 1.64479,-0.19293 1.3125,-0.52522 z m 7.27083,-0.39583 c 0,-0.55 -0.47656,-1 -1.05902,-1 -0.58246,0 -0.7809,0.45 -0.44098,1 0.33992,0.55 0.81648,1 1.05902,1 0.24254,0 0.44098,-0.45 0.44098,-1 z m 4,-1.5 c 0,-0.825 -0.45,-1.5 -1,-1.5 -0.55,0 -1,0.675 -1,1.5 0,0.825 0.45,1.5 1,1.5 0.55,0 1,-0.675 1,-1.5 z m 112,18.68701 c 0,-1.20929 8.61923,-8.09175 11.51019,-9.19089 3.44311,-1.30906 3.73881,-1.26329 2.7895,0.43183 -1.75662,3.13669 -14.29969,10.81976 -14.29969,8.75906 z m 33,-1.56457 c 0,-0.20765 0.7875,-0.99515 1.75,-1.75 1.58605,-1.24387 1.62143,-1.2085 0.37755,0.37756 -1.30637,1.66574 -2.12755,2.19547 -2.12755,1.37244 z m 18,-18 c 0,-0.20765 0.7875,-0.99515 1.75,-1.75 1.58605,-1.24387 1.62143,-1.2085 0.37755,0.37756 -1.30637,1.66574 -2.12755,2.19547 -2.12755,1.37244 z M 24.293848,-70.713073 c -3.34377,-3.70487 -6.07959,-7.316 -6.07959,-8.02475 0,-3.00353 5.13791,-3.54569 17.5,-1.84665 14.27372,1.96177 22.77642,2.01429 31.26558,0.19309 3.48478,-0.74759 6.50677,-0.95391 6.80902,-0.46487 0.29889,0.48361 1.92756,0.8793 3.61927,0.8793 h 3.07585 l -2.63486,-2.07258 c -1.44917,-1.13992 -2.63486,-2.56492 -2.63486,-3.16667 0,-0.60175 0.27595,-0.81814 0.61322,-0.48086 0.33728,0.33727 2.34304,-1.57516 4.45726,-4.24984 6.55459,-8.29219 11.70729,-11.152027 24.429522,-13.558837 3.85,-0.72835 13.525,-2.89396 21.5,-4.81246 7.975,-1.91851 14.57378,-3.41407 14.66395,-3.32347 0.0902,0.0906 0.24266,2.41472 0.33886,5.16472 0.5095,14.564707 -0.0783,15.857177 -7.70327,16.938987 -2.63975,0.37452 -9.97454,1.98569 -16.29954,3.58036 -6.325,1.59468 -15.775,3.83758 -21.000002,4.98423 -9.14366,2.00661 -18.76736,4.51843 -50,13.05021 -7.975,2.17852 -14.80168,3.95763 -15.17041,3.95357 -0.36872,-0.004 -3.40622,-3.03862 -6.75,-6.74348 z m 59.92041,-10.26388 c 0,-0.55 -0.675,-1 -1.5,-1 -0.825,0 -1.5,0.45 -1.5,1 0,0.55 0.675,1 1.5,1 0.825,0 1.5,-0.45 1.5,-1 z m 12.92105,-3.86664 c -0.0501,-1.03677 -0.26317,-1.1768 -0.58333,-0.38336 -0.27741,0.6875 -1.39345,1.25 -2.48007,1.25 -1.08663,0 -1.72368,0.40775 -1.41567,0.90612 0.90351,1.4619 4.56537,0.0126 4.47907,-1.77276 z m -14.92105,0.86664 c 0,-0.55 -0.45,-1 -1,-1 -0.55,0 -1,0.45 -1,1 0,0.55 0.45,1 1,1 0.55,0 1,-0.45 1,-1 z m 0,-4 c 0,-0.55 -0.19844,-1 -0.44098,-1 -0.24254,0 -0.7191,0.45 -1.05902,1 -0.33992,0.55 -0.14148,1 0.44098,1 0.58246,0 1.05902,-0.45 1.05902,-1 z m 35.071492,-2.45582 c 0.51068,0.31562 0.92851,0.1026 0.92851,-0.47338 0,-0.57597 -1.0125,-0.94003 -2.25,-0.80901 -1.52292,0.16123 -2.21402,-0.27393 -2.13864,-1.34662 0.0803,-1.14278 -0.54402,-1.45954 -2.23835,-1.13565 -2.73797,0.5234 -2.19973,1.95566 1.22413,3.25741 1.32157,0.50246 2.46414,1.7122 2.53904,2.68832 0.0924,1.20442 0.27607,1.04694 0.5715,-0.49008 0.23942,-1.24566 0.85314,-2.0066 1.36381,-1.69099 z m -23.071492,2.01483 c 0,-0.24254 -0.45,-0.7191 -1,-1.05901 -0.55,-0.33992 -1,-0.14148 -1,0.44098 0,0.58246 0.45,1.05902 1,1.05902 0.55,0 1,-0.19845 1,-0.44099 z m 31.683112,-2.74651 c -0.31922,-0.79774 -0.55618,-0.56078 -0.60416,0.60416 -0.0434,1.05417 0.19292,1.64479 0.52522,1.3125 0.33229,-0.33229 0.36781,-1.19479 0.0789,-1.91666 z m -30.861402,-5.0625 c -3.41693,-3.03828 -4.7891,-3.62056 -2.75432,-1.1688 1.08114,1.30269 1.08199,1.9632 0.005,3.75 -1.08136,1.79377 -1.07961,1.95265 0.0102,0.9188 1.57203,-1.49137 3.29492,-1.66953 2.41761,-0.25 -1.21445,1.96502 0.66072,3.16127 2.05322,1.30984 1.20373,-1.60045 1.0034,-2.12801 -1.73151,-4.55984 z m 2.17829,-2.80902 c 0,-0.51754 -0.45,-0.94098 -1,-0.94098 -0.55,0 -1,0.70155 -1,1.55901 0,0.85746 0.45,1.2809 1,0.94099 0.55,-0.33992 1,-1.04148 1,-1.55902 z m 10.000002,-0.32435 c 0,-0.21086 -0.9,-0.61873 -2,-0.906377 -1.1,-0.28766 -2,-0.11514 -2,0.383367 0,0.4985 0.9,0.90638 2,0.90638 1.1,0 2,-0.17252 2,-0.38337 z m 3.98469,-0.36663 c -0.0251,-1.230637 -1.39794,-2.732557 -2.74539,-3.003567 -1.0114,-0.20342 -1.01327,0.14264 -0.009,1.75 1.24239,1.989377 2.78419,2.690957 2.75485,1.253567 z m 8.62931,-4.969327 c -0.3377,-0.33771 -0.614,-0.13114 -0.614,0.45904 0,0.59018 -0.84921,0.85097 -1.88714,0.57955 -2.40603,-0.62919 -3.60593,1.23732 -1.94111,3.01951 1.06584,1.140987 1.58339,0.970927 3.16522,-1.04004 1.04007,-1.32223 1.61474,-2.68036 1.27703,-3.01806 z m -3.614,2.71933 c 0,-0.55 0.47656,-1 1.05902,-1 0.58246,0 0.7809,0.45 0.44098,1 -0.33992,0.55 -0.81648,1 -1.05902,1 -0.24254,0 -0.44098,-0.45 -0.44098,-1 z m 6,1.999997 c 0,-0.549997 -0.45,-0.999997 -1,-0.999997 -0.55,0 -1,0.45 -1,0.999997 0,0.55 0.45,1 1,1 0.55,0 1,-0.45 1,-1 z m -9,-0.999997 c 0,-0.55 -0.47656,-1 -1.05902,-1 -0.58246,0 -0.7809,0.45 -0.44098,1 0.33992,0.55 0.81648,0.999997 1.05902,0.999997 0.24254,0 0.44098,-0.449997 0.44098,-0.999997 z m 259.75,32.294257 c 1.2375,-0.23835 3.2625,-0.23835 4.5,0 1.2375,0.23836 0.225,0.43337 -2.25,0.43337 -2.475,0 -3.4875,-0.19501 -2.25,-0.43337 z m -120.7371,-5.04426 c 0.007,-0.4125 0.9071,-3.6026 2,-7.0891 1.0929,-3.4865 1.99399,-7.7615 2.00241,-9.5 0.008,-1.7385 0.4333,-3.8218 0.94416,-4.62957 0.84309,-1.33306 29.98875,-9.293327 30.92357,-8.445837 0.66033,0.59864 -9.22658,17.358647 -12.58164,21.328047 -2.75902,3.26421 -4.48245,4.14862 -12.54044,6.43537 -10.23496,2.90454 -10.76694,2.99864 -10.74806,1.90109 z m 95.91141,-5 -2.42431,-2.75 2.75,2.42431 c 1.5125,1.33337 2.75,2.57087 2.75,2.75 0,0.78427 -0.8098,0.14598 -3.07569,-2.42431 z m 216.07569,-0.64302 c 0,-0.21615 0.69837,-0.661 1.55194,-0.98854 0.88992,-0.3415 1.29132,-0.17385 0.94098,0.39301 -0.58726,0.9502 -2.49292,1.40545 -2.49292,0.59553 z m -97.92105,-6.19032 c 0.048,-1.16494 0.28494,-1.4019 0.60416,-0.60416 0.28887,0.72187 0.25335,1.58437 -0.0789,1.91666 -0.3323,0.33229 -0.56864,-0.25833 -0.52522,-1.3125 z m -84.26645,-0.0998 c 0.72187,-0.28887 1.58437,-0.25334 1.91667,0.0789 0.33229,0.33229 -0.25834,0.56864 -1.3125,0.52522 -1.16495,-0.048 -1.4019,-0.28494 -0.60417,-0.60417 z m 547.18752,-0.69444 c 0,-0.20765 0.7875,-0.99515 1.75,-1.75 1.586,-1.24387 1.6214,-1.2085 0.3775,0.37756 -1.3064,1.66574 -2.1275,2.19547 -2.1275,1.37244 z m -448.92107,-3.20578 c 0.048,-1.16494 0.28494,-1.4019 0.60416,-0.60416 0.28887,0.72187 0.25335,1.58437 -0.0789,1.91666 -0.3323,0.33229 -0.56864,-0.25833 -0.52522,-1.3125 z m 339.67107,0.92106 c 0.6875,-0.27742 1.8125,-0.27742 2.5,0 0.6875,0.27741 0.125,0.50438 -1.25,0.50438 -1.375,0 -1.9375,-0.22697 -1.25,-0.50438 z m -264.67107,-5.92106 c 0.048,-1.16494 0.28494,-1.4019 0.60416,-0.60416 0.28887,0.72187 0.25335,1.58437 -0.0789,1.91666 -0.3323,0.33229 -0.56864,-0.25833 -0.52522,-1.3125 z m 351.92107,1.20578 c 0,-0.20765 0.7875,-0.99515 1.75,-1.75 1.586,-1.24387 1.6214,-1.2085 0.3775,0.37756 -1.3064,1.66574 -2.1275,2.19547 -2.1275,1.37244 z m -457.66381,-8.622437 c 0,-4.125 0.17651,-5.8125 0.39226,-3.75 0.21574,2.0625 0.21574,5.4375 0,7.499997 -0.21575,2.0625 -0.39226,0.375 -0.39226,-3.749997 z m 16.74274,3.416657 c 0.048,-1.16494 0.28494,-1.4019 0.60416,-0.60416 0.28887,0.72187 0.25335,1.58437 -0.0789,1.91666 -0.3323,0.33229 -0.56864,-0.25833 -0.52522,-1.3125 z m 251.99999,-1 c 0.048,-1.164937 0.2849,-1.401897 0.6042,-0.604157 0.2888,0.721867 0.2533,1.584367 -0.079,1.916657 -0.3323,0.33229 -0.5686,-0.25833 -0.5252,-1.3125 z m 231.42108,-2.416657 c 0.9954,-1.1 2.0349,-2 2.3099,-2 0.275,0 -0.3145,0.9 -1.3099,2 -0.9955,1.1 -2.035,1.999997 -2.31,1.999997 -0.275,0 0.3145,-0.899997 1.31,-1.999997 z m -946.8248522,-0.75 c -1.00529,-1.70249 -6.70571,-16.5527 -6.45122,-16.80612 0.41854,-0.41677 16.4519002,-4.44388 17.6926602,-4.44388 0.70476,0 1.08339,3.45339 1.08339,9.88128 v 9.88129 l -4.44282,1.11871 c -5.1968502,1.30858 -7.2697702,1.40555 -7.8820102,0.36872 z m 334.5197822,-1.75 c 0.0204,-1.65 0.2445,-2.20394 0.49804,-1.23097 0.25354,0.97297 0.23687,2.32297 -0.0371,3 -0.27393,0.67703 -0.48137,-0.11903 -0.46099,-1.76903 z m 606.05717,-1 c 0.011,-2.2 0.2159,-2.98226 0.4551,-1.73834 0.2392,1.24391 0.2301,3.04391 -0.02,4 -0.2503,0.95608 -0.446,-0.0617 -0.4349,-2.26166 z m -409.09423,-0.5 c 0,-1.375 0.22698,-1.9375 0.50439,-1.25 0.27741,0.6875 0.27741,1.8125 0,2.5 -0.27741,0.6875 -0.50439,0.125 -0.50439,-1.25 z m -67.07894,-0.58334 c 0.048,-1.16494 0.28494,-1.4019 0.60416,-0.60416 0.28887,0.72187 0.25335,1.58437 -0.0789,1.91666 -0.3323,0.33229 -0.56864,-0.25833 -0.52522,-1.3125 z m -39.07895,-3.91666 c 1.86578,-1.925 3.61733,-3.5 3.89233,-3.5 0.275,0 -1.02655,1.575 -2.89233,3.5 -1.86578,1.925 -3.61733,3.5 -3.89233,3.5 -0.275,0 1.02655,-1.575 2.89233,-3.5 z m 177.87244,-0.25 c -1.24387,-1.58606 -1.2085,-1.62143 0.37756,-0.37756 1.66575,1.30637 2.19548,2.12756 1.37244,2.12756 -0.20765,0 -0.99515,-0.7875 -1.75,-1.75 z m -268.64044,-2.25 c 0,-1.925 0.2058,-2.7125 0.45732,-1.75 0.25153,0.9625 0.25153,2.5375 0,3.5 -0.25152,0.9625 -0.45732,0.175 -0.45732,-1.75 z m 394.84694,1.41666 c 0.048,-1.16494 0.2849,-1.4019 0.6042,-0.60416 0.2888,0.72187 0.2533,1.58437 -0.079,1.91666 -0.3323,0.33229 -0.5686,-0.25833 -0.5252,-1.3125 z m 46.42108,-0.41666 c 0.9954,-1.1 2.0349,-2 2.3099,-2 0.275,0 -0.3145,0.9 -1.3099,2 -0.9955,1.1 -2.035,2 -2.31,2 -0.275,0 0.3145,-0.9 1.31,-2 z m -279.34213,-1 c 0,-1.375 0.22698,-1.9375 0.50439,-1.25 0.27741,0.6875 0.27741,1.8125 0,2.5 -0.27741,0.6875 -0.50439,0.125 -0.50439,-1.25 z m 219.11445,-3 c 0,-2.475 0.195,-3.4875 0.4334,-2.25 0.2383,1.2375 0.2383,3.2625 0,4.5 -0.2384,1.2375 -0.4334,0.225 -0.4334,-2.25 z m 81.92258,1.5 c 0.02,-1.65 0.2445,-2.20394 0.498,-1.23097 0.2536,0.97297 0.2369,2.32297 -0.037,3 -0.2739,0.67703 -0.4814,-0.11903 -0.461,-1.76903 z m 16.884,0.91666 c 0.048,-1.16494 0.2849,-1.4019 0.6042,-0.60416 0.2888,0.72187 0.2533,1.58437 -0.079,1.91666 -0.3323,0.33229 -0.5686,-0.25833 -0.5252,-1.3125 z m -244.07892,-0.31822 c 0,-1.03844 1.90221,-2.54173 2.46567,-1.94858 0.18294,0.19258 -0.297,0.93038 -1.06653,1.63956 -0.76953,0.70919 -1.39914,0.84824 -1.39914,0.30902 z m 371.07892,-4.68178 c 0.048,-1.16494 0.2849,-1.4019 0.6042,-0.60416 0.2888,0.72187 0.2533,1.58437 -0.079,1.91666 -0.3323,0.33229 -0.5686,-0.25833 -0.5252,-1.3125 z m -687.06361,-1.74727 c 0.0279,-2.13171 1.43092,-3.37998 6.89966,-6.13869 5.10494,-2.5752 16.22464,-12.71238 20.60142,-18.78112 1.60386,-2.22387 3.40012,-3.04088 9.38267,-4.26761 4.06949,-0.83445 7.62921,-1.28703 7.91051,-1.00574 0.55654,0.55654 -1.13598,9.02363 -3.42105,17.11432 l -1.43773,5.09054 -16.7254,3.76006 c -9.19896,2.06804 -18.18789,4.12852 -19.97539,4.57885 -2.2826,0.57506 -3.24544,0.4707 -3.23469,-0.35061 z m 449.79719,0.64749 c 0.72184,-0.28887 1.58434,-0.25334 1.91664,0.0789 0.3323,0.33229 -0.2583,0.56864 -1.3125,0.52522 -1.16492,-0.048 -1.40187,-0.28494 -0.60414,-0.60417 z m -207.73355,-3.90022 c 0.048,-1.16494 0.28494,-1.4019 0.60416,-0.60416 0.28887,0.72187 0.25335,1.58437 -0.0789,1.91666 -0.3323,0.33229 -0.56864,-0.25833 -0.52522,-1.3125 z m 259.67107,0.8776 c 1.2375,-0.23835 3.2625,-0.23835 4.5,0 1.2375,0.23836 0.225,0.43337 -2.25,0.43337 -2.475,0 -3.4875,-0.19501 -2.25,-0.43337 z m 102.3289,-0.8776 c 0.048,-1.16494 0.2849,-1.4019 0.6042,-0.60416 0.2888,0.72187 0.2533,1.58437 -0.079,1.91666 -0.3323,0.33229 -0.5686,-0.25833 -0.5252,-1.3125 z m -127.88398,-3.91666 c 0.02,-1.65 0.2445,-2.20394 0.498,-1.23097 0.2536,0.97297 0.2369,2.32297 -0.037,3 -0.2739,0.67703 -0.4814,-0.11903 -0.461,-1.76903 z m 211.88398,-0.0833 c 0.048,-1.16494 0.2849,-1.4019 0.6042,-0.60416 0.2888,0.72187 0.2533,1.58437 -0.079,1.91666 -0.3323,0.33229 -0.5686,-0.25833 -0.5252,-1.3125 z m -489.32892,-0.0789 c 0.6875,-0.27742 1.8125,-0.27742 2.5,0 0.6875,0.27741 0.125,0.50438 -1.25,0.50438 -1.375,0 -1.9375,-0.22697 -1.25,-0.50438 z m 11.0625,-1.02084 c 0.72187,-0.28887 1.58437,-0.25334 1.91667,0.0789 0.33229,0.33229 -0.25834,0.56864 -1.3125,0.52522 -1.16495,-0.048 -1.4019,-0.28494 -0.60417,-0.60417 z m -63.0625,-1.97916 c 0.6875,-0.27742 1.8125,-0.27742 2.5,0 0.6875,0.27741 0.125,0.50438 -1.25,0.50438 -1.375,0 -1.9375,-0.22697 -1.25,-0.50438 z m 309.06254,-0.0208 c 0.7218,-0.28887 1.5843,-0.25334 1.9166,0.0789 0.3323,0.33229 -0.2583,0.56864 -1.3125,0.52522 -1.1649,-0.048 -1.4019,-0.28494 -0.6041,-0.60417 z m 213.26638,-3.90022 c 0.048,-1.16494 0.2849,-1.4019 0.6042,-0.60416 0.2888,0.72187 0.2533,1.58437 -0.079,1.91666 -0.3323,0.33229 -0.5686,-0.25833 -0.5252,-1.3125 z m -314.07892,0.27043 c 0,-0.1721 1.4625,-1.6346 3.25,-3.25 l 3.25,-2.93709 -2.93709,3.25 c -2.73778,3.02945 -3.56291,3.70965 -3.56291,2.93709 z m 334.07892,-2.27043 c 0.048,-1.16494 0.2849,-1.4019 0.6042,-0.60416 0.2888,0.72187 0.2533,1.58437 -0.079,1.91666 -0.3323,0.33229 -0.5686,-0.25833 -0.5252,-1.3125 z m -481.26642,-3.09978 c 0.72187,-0.28887 1.58437,-0.25334 1.91667,0.0789 0.33229,0.33229 -0.25834,0.56864 -1.3125,0.52522 -1.16495,-0.048 -1.4019,-0.28494 -0.60417,-0.60417 z m 197.1875,0.37021 c 0,-0.1721 1.4625,-1.6346 3.25,-3.25 l 3.25,-2.93709 -2.93709,3.25 c -2.73778,3.02945 -3.56291,3.70965 -3.56291,2.93709 z m 56.15794,-3.68709 c 0,-1.375 0.2269,-1.9375 0.5043,-1.25 0.2775,0.6875 0.2775,1.8125 0,2.5 -0.2774,0.6875 -0.5043,0.125 -0.5043,-1.25 z m -730.734432,-5.75 c -0.39622,-3.1625 -0.7661,-8.19868 -0.82196,-11.1915 -0.0981,-5.25715 8e-5,-5.46488 2.89845,-6.13192 1.6499998,-0.37973 6.9374998,-1.5947 11.7499998,-2.69992 l 8.7500002,-2.00948 v 2.34592 c 0,1.29025 1.15388,5.40389 2.56418,9.14141 1.41031,3.73752 2.64781,7.3884 2.75,8.11307 0.12635,0.89589 -4.13492,2.41381 -13.3141802,4.7427 -7.425,1.88381 -13.5801198,3.4284 -13.6780398,3.43241 -0.0979,0.004 -0.50223,-2.58019 -0.89845,-5.74269 z m 569.734382,-0.25 c 0,-1.375 0.22698,-1.9375 0.50439,-1.25 0.27741,0.6875 0.27741,1.8125 0,2.5 -0.27741,0.6875 -0.50439,0.125 -0.50439,-1.25 z m -239.07894,-3.58334 c 0.048,-1.16494 0.28494,-1.4019 0.60416,-0.60416 0.28887,0.72187 0.25335,1.58437 -0.0789,1.91666 -0.3323,0.33229 -0.56864,-0.25833 -0.52522,-1.3125 z m 306.15305,-3.41666 c 0,-1.925 0.2058,-2.7125 0.45732,-1.75 0.25153,0.9625 0.25153,2.5375 0,3.5 -0.25152,0.9625 -0.45732,0.175 -0.45732,-1.75 z m 213.58052,1.31688 c 0.7218,-0.28887 1.5843,-0.25334 1.9166,0.0789 0.3323,0.33229 -0.2583,0.56864 -1.3125,0.52522 -1.1649,-0.048 -1.4019,-0.28494 -0.6041,-0.60417 z m -203.81252,-1.02777 c 0,-0.57432 0.7875,-1.66182 1.75,-2.41667 1.61875,-1.26951 1.63998,-1.22245 0.28297,0.62756 -0.80687,1.1 -1.59437,2.1875 -1.75,2.41666 -0.15564,0.22917 -0.28297,-0.0532 -0.28297,-0.62755 z m -87.1875,-2.97223 c 0.72187,-0.28887 1.58437,-0.25334 1.91667,0.0789 0.33229,0.33229 -0.25834,0.56864 -1.3125,0.52522 -1.16495,-0.048 -1.4019,-0.28494 -0.60417,-0.60417 z m 23.1875,0.30556 c 0,-0.20765 0.7875,-0.99515 1.75,-1.75 1.58605,-1.24387 1.62143,-1.2085 0.37755,0.37756 -1.30637,1.66574 -2.12755,2.19547 -2.12755,1.37244 z m 39.56429,-1.32932 c -0.54268,-1.42519 -0.42782,-1.54006 0.5598,-0.55979 0.68342,0.67833 0.99067,1.48524 0.68278,1.79313 -0.30789,0.30788 -0.86705,-0.24712 -1.24258,-1.23334 z m 95.43571,1.32932 c 0,-0.20765 0.7875,-0.99515 1.75,-1.75 1.58604,-1.24387 1.62144,-1.2085 0.37755,0.37756 -1.30637,1.66574 -2.12755,2.19547 -2.12755,1.37244 z m -385.84211,-4.62244 c 0,-1.375 0.22698,-1.9375 0.50439,-1.25 0.27741,0.6875 0.27741,1.8125 0,2.5 -0.27741,0.6875 -0.50439,0.125 -0.50439,-1.25 z m 176.03706,-0.5 c 0.0204,-1.65 0.2445,-2.20394 0.49804,-1.23097 0.25354,0.97297 0.23687,2.32297 -0.0371,3 -0.27393,0.67703 -0.48137,-0.11903 -0.46099,-1.76903 z m 383.80507,-1 c 1.2917,-1.375 2.5736,-2.5 2.8486,-2.5 0.275,0 -0.5569,1.125 -1.8486,2.5 -1.2918,1.375 -2.5737,2.5 -2.8487,2.5 -0.275,0 0.5569,-1.125 1.8487,-2.5 z m -162.24998,-0.16228 c 0.6875,-0.27742 1.8125,-0.27742 2.5,0 0.6875,0.27741 0.125,0.50438 -1.25,0.50438 -1.375,0 -1.9375,-0.22697 -1.25,-0.50438 z m -747.384812,-9.83772 c 0.003,-5.5 0.17053,-7.62242 0.37317,-4.71648 0.20265,2.90593 0.20052,7.40593 -0.005,10 -0.20525,2.59406 -0.37104,0.21648 -0.36844,-5.28352 z m 865.384792,8.83772 c 0.6875,-0.27742 1.8125,-0.27742 2.5,0 0.6875,0.27741 0.125,0.50438 -1.25,0.50438 -1.375,0 -1.9375,-0.22697 -1.25,-0.50438 z m -400.51802,-3.33772 c 0,-1.925 0.2058,-2.7125 0.45732,-1.75 0.25153,0.9625 0.25153,2.5375 0,3.5 -0.25152,0.9625 -0.45732,0.175 -0.45732,-1.75 z m 29.84695,0.41666 c 0.048,-1.16494 0.28494,-1.4019 0.60416,-0.60416 0.28887,0.72187 0.25335,1.58437 -0.0789,1.91666 -0.3323,0.33229 -0.56864,-0.25833 -0.52522,-1.3125 z m 28.79349,-0.16666 c -1.24387,-1.58606 -1.2085,-1.62143 0.37756,-0.37756 0.9625,0.75485 1.75,1.54235 1.75,1.75 0,0.82303 -0.82119,0.2933 -2.12756,-1.37244 z m 288.89548,0.0253 c 1.7973,-0.22256 4.4973,-0.21796 6,0.0102 1.5026,0.22817 0.032,0.41027 -3.2679,0.40466 -3.3,-0.006 -4.5295,-0.1923 -2.7321,-0.41487 z m 114.5011,-3.96825 c 0.973,-0.25355 2.323,-0.23687 3,0.037 0.677,0.27392 -0.119,0.48137 -1.769,0.46099 -1.65,-0.0204 -2.204,-0.2445 -1.231,-0.49804 z m 6.5435,0.01 c 0.7218,-0.28887 1.5843,-0.25334 1.9166,0.079 0.3323,0.33229 -0.2583,0.56864 -1.3125,0.52522 -1.1649,-0.048 -1.4019,-0.28494 -0.6041,-0.60417 z m -613.20589,-1.14435 c -1.05992,-1.71498 -3.8326,-17.14128 -3.3207,-18.47528 0.44616,-1.16269 5.54459,-2.71097 13.94064,-4.23346 2.39881,-0.43499 2.50764,-0.21565 3.12233,6.29276 1.38305,14.64402 1.52906,14.28194 -6.3489,15.74345 -1.925,0.35712 -4.24963,0.85902 -5.16584,1.11533 -0.91622,0.25631 -1.9186,0.0571 -2.22753,-0.4428 z m 76.39337,-3.55009 c 0,-0.20765 0.7875,-0.99515 1.75,-1.75 1.58605,-1.24387 1.62143,-1.2085 0.37755,0.37756 -1.30637,1.66574 -2.12755,2.19547 -2.12755,1.37244 z m 89.8125,-1.30556 c 0.72187,-0.28887 1.58437,-0.25334 1.91667,0.079 0.33229,0.33229 -0.25834,0.56864 -1.3125,0.52522 -1.16495,-0.048 -1.4019,-0.28494 -0.60417,-0.60417 z m -136.5805,-3.31688 c 0,-1.925 0.2058,-2.7125 0.45732,-1.75 0.25153,0.9625 0.25153,2.5375 0,3.5 -0.25152,0.9625 -0.45732,0.175 -0.45732,-1.75 z m 50.768,0.62244 c 0,-0.20765 0.7875,-0.99515 1.75,-1.75 1.58605,-1.24387 1.62143,-1.2085 0.37755,0.37756 -1.30637,1.66574 -2.12755,2.19547 -2.12755,1.37244 z m 176.07895,-1.20578 c 0.048,-1.16494 0.28494,-1.4019 0.60416,-0.60416 0.28887,0.72187 0.25335,1.58437 -0.0789,1.91666 -0.3323,0.33229 -0.56864,-0.25833 -0.52522,-1.3125 z m 405.99997,-1 c 0.048,-1.16494 0.2849,-1.4019 0.6042,-0.60416 0.2888,0.72187 0.2533,1.58437 -0.079,1.91666 -0.3323,0.33229 -0.5686,-0.25833 -0.5252,-1.3125 z m -966.078922,-5.48015 c 0,-0.58491 0.72893,-5.74367 1.61984,-11.46388 l 1.61983,-10.4004 5.1301698,-1.48313 c 8.66321,-2.50454 26.6798002,-6.58911 29.0638402,-6.58911 1.24099,0 3.10422,0.93689 4.14052,2.08198 1.83742,2.03033 1.83787,2.10791 0.018,3.12634 -4.00575,2.24173 -9.8044,8.33396 -13.25801,13.92926 -3.08012,4.99018 -4.22892,6.01897 -7.7261602,6.91905 -2.25943,0.58152 -7.37558002,1.93166 -11.36922,3.00034 -8.3829798,2.24323 -9.2388398,2.32471 -9.2388398,0.87955 z m 967.078922,-3.51986 c 0.048,-1.16494 0.2849,-1.4019 0.6042,-0.60416 0.2888,0.72188 0.2533,1.58438 -0.079,1.91667 -0.3323,0.33229 -0.5686,-0.25833 -0.5252,-1.31251 z m -982.999972,-1 c 0.048,-1.16494 0.28494,-1.4019 0.60416,-0.60416 0.28887,0.72187 0.25335,1.58437 -0.0789,1.91667 -0.3323,0.33229 -0.56864,-0.25833 -0.52522,-1.31251 z m 348.000002,0 c 0.048,-1.16494 0.28494,-1.4019 0.60416,-0.60416 0.28887,0.72187 0.25335,1.58437 -0.0789,1.91667 -0.3323,0.33229 -0.56864,-0.25833 -0.52522,-1.31251 z m 83.17105,-2.10599 c 0.9625,-0.25153 2.5375,-0.25153 3.5,0 0.9625,0.25153 0.175,0.45732 -1.75,0.45732 -1.925,0 -2.7125,-0.20579 -1.75,-0.45732 z m 552.75002,-6.25166 c 0,-0.51754 0.4448,-1.21591 0.9885,-1.55193 0.5669,-0.35034 0.7345,0.051 0.393,0.94098 -0.6648,1.73242 -1.3815,2.04939 -1.3815,0.61095 z m -425.84213,-4.05901 c 0,-1.375 0.22698,-1.9375 0.50439,-1.25 0.27741,0.6875 0.27741,1.8125 0,2.5 -0.27741,0.6875 -0.50439,0.125 -0.50439,-1.25 z m 18.03706,-9.5 c 0.0204,-1.65 0.2445,-2.20394 0.49804,-1.23097 0.25354,0.97297 0.23687,2.32297 -0.0371,3 -0.27393,0.67703 -0.48137,-0.11903 -0.46099,-1.76903 z m -258.23008,-8.18262 c -0.0318,-6.16647 -1.58121,-15.5881 -3.42353,-20.81738 l -0.70461,-2 1.70189,2 c 2.04729,2.4059 10.05986,18.93173 10.96851,22.62242 0.56039,2.27616 0.27245,2.71155 -2.18074,3.29748 -1.55452,0.37129 -3.61389,0.90903 -4.57639,1.19497 -1.54415,0.45875 -1.75413,-0.28202 -1.78513,-6.29749 z m 161.03513,4.30506 c 0,-0.20765 0.7875,-0.99515 1.75,-1.75 1.58605,-1.24387 1.62143,-1.2085 0.37755,0.37756 -1.30637,1.66574 -2.12755,2.19547 -2.12755,1.37244 z m 158.8125,-4.30556 c 0.72187,-0.28887 1.58437,-0.25334 1.91667,0.079 0.33229,0.33229 -0.25834,0.56864 -1.3125,0.52522 -1.16495,-0.048 -1.4019,-0.28494 -0.60417,-0.60417 z m 206.43752,-3.00621 c 0.9625,-0.25153 2.5375,-0.25153 3.5,0 0.9625,0.25153 0.175,0.45732 -1.75,0.45732 -1.925,0 -2.7125,-0.20579 -1.75,-0.45732 z m -286.01802,-3.31067 c 0,-1.925 0.2058,-2.7125 0.45732,-1.75 0.25153,0.9625 0.25153,2.5375 0,3.5 -0.25152,0.9625 -0.45732,0.175 -0.45732,-1.75 z m 83.92589,0 c 0,-1.375 0.22698,-1.9375 0.50439,-1.25 0.27741,0.6875 0.27741,1.8125 0,2.5 -0.27741,0.6875 -0.50439,0.125 -0.50439,-1.25 z m 11.07411,-2 c 0,-1.925 0.2058,-2.7125 0.45732,-1.75 0.25153,0.9625 0.25153,2.5375 0,3.5 -0.25152,0.9625 -0.45732,0.175 -0.45732,-1.75 z m 14.84695,1.41666 c 0.048,-1.16494 0.28494,-1.4019 0.60416,-0.60416 0.28887,0.72187 0.25335,1.58437 -0.0789,1.91666 -0.3323,0.33229 -0.56864,-0.25833 -0.52522,-1.3125 z m 166.32597,-0.66666 -1.9049,-2.25 2.25,1.90498 c 2.1144,1.79022 2.7052,2.59502 1.9049,2.59502 -0.1897,0 -1.2022,-1.0125 -2.25,-2.25 z m -103.11891,-4.25 c 0.008,-2.75 0.20172,-3.75632 0.43157,-2.23625 0.22985,1.52006 0.22371,3.77006 -0.0136,5 -0.23736,1.22993 -0.42542,-0.0138 -0.41792,-2.76375 z m 49.79291,1.91666 c 0.048,-1.16494 0.2849,-1.4019 0.6042,-0.60416 0.2888,0.72187 0.2533,1.58437 -0.079,1.91666 -0.3323,0.33229 -0.5686,-0.25833 -0.5252,-1.3125 z m -75.99997,-1 c 0.048,-1.16494 0.28494,-1.4019 0.60416,-0.60416 0.28887,0.72187 0.25335,1.58437 -0.0789,1.91666 -0.3323,0.33229 -0.56864,-0.25833 -0.52522,-1.3125 z m -678.0789522,-0.93483 c 0,-1.5104 10.23341,-20.60578 12.46262,-23.25504 2.5862402,-3.07358 2.9378502,-3.19649 16.6907302,-5.83433 l 2.65335,-0.50892 -2.08358,4.21127 c -1.14596,2.3162 -3.29539,7.82301 -4.77651,12.23736 l -2.69294,8.0261 -10.3768402,2.79554 c -11.0413,2.97456 -11.87683,3.13833 -11.87683,2.32802 z m 616.1949522,-4.98183 c 0.0204,-1.65 0.2445,-2.20394 0.49804,-1.23097 0.25354,0.97297 0.23687,2.32297 -0.0371,3 -0.27393,0.67703 -0.48137,-0.11903 -0.46099,-1.76903 z m 210.30507,0.5 c 0.9954,-1.1 2.0349,-2 2.3099,-2 0.275,0 -0.3145,0.9 -1.3099,2 -0.9955,1.1 -2.035,2 -2.31,2 -0.275,0 0.3145,-0.9 1.31,-2 z m -199.42107,-1.58334 c 0.048,-1.16494 0.28494,-1.4019 0.60416,-0.60416 0.28887,0.72187 0.25335,1.58437 -0.0789,1.91666 -0.3323,0.33229 -0.56864,-0.25833 -0.52522,-1.3125 z m 128.20707,-2.91666 c 0.01,-2.75 0.2017,-3.75632 0.4315,-2.23625 0.2299,1.52006 0.2238,3.77006 -0.014,5 -0.2374,1.22993 -0.4254,-0.0138 -0.4179,-2.76375 z m -223.20707,1.91666 c 0.048,-1.16494 0.28494,-1.4019 0.60416,-0.60416 0.28887,0.72187 0.25335,1.58437 -0.0789,1.91666 -0.3323,0.33229 -0.56864,-0.25833 -0.52522,-1.3125 z m 20,0 c 0.048,-1.16494 0.28494,-1.4019 0.60416,-0.60416 0.28887,0.72187 0.25335,1.58437 -0.0789,1.91666 -0.3323,0.33229 -0.56864,-0.25833 -0.52522,-1.3125 z m 217.99997,0 c 0.048,-1.16494 0.2849,-1.4019 0.6042,-0.60416 0.2888,0.72187 0.2533,1.58437 -0.079,1.91666 -0.3323,0.33229 -0.5686,-0.25833 -0.5252,-1.3125 z m 32,-1 c 0.048,-1.16494 0.2849,-1.4019 0.6042,-0.60416 0.2888,0.72187 0.2533,1.58437 -0.079,1.91666 -0.3323,0.33229 -0.5686,-0.25833 -0.5252,-1.3125 z m -301.32892,-0.0789 c 0.6875,-0.27742 1.8125,-0.27742 2.5,0 0.6875,0.27741 0.125,0.50438 -1.25,0.50438 -1.375,0 -1.9375,-0.22697 -1.25,-0.50438 z m 8.75,-3.33772 c 0.99549,-1.1 2.03497,-2 2.30997,-2 0.275,0 -0.31448,0.9 -1.30997,2 -0.99549,1.1 -2.03498,2 -2.30998,2 -0.275,0 0.31449,-0.9 1.30998,-2 z m 346.65792,0 c 0,-1.375 0.2269,-1.9375 0.5043,-1.25 0.2775,0.6875 0.2775,1.8125 0,2.5 -0.2774,0.6875 -0.5043,0.125 -0.5043,-1.25 z m -253.90574,-4.5 c 0.0111,-2.2 0.21589,-2.98226 0.45508,-1.73834 0.23919,1.24391 0.23011,3.04391 -0.0202,4 -0.25029,0.95608 -0.446,-0.0617 -0.4349,-2.26166 z m 14.97982,-2.5 c 0,-1.925 0.2058,-2.7125 0.45732,-1.75 0.25153,0.9625 0.25153,2.5375 0,3.5 -0.25152,0.9625 -0.45732,0.175 -0.45732,-1.75 z m 133.58052,2.31688 c 0.7218,-0.28887 1.5843,-0.25334 1.9166,0.079 0.3323,0.33229 -0.2583,0.56864 -1.3125,0.52522 -1.1649,-0.048 -1.4019,-0.28494 -0.6041,-0.60417 z m 120.1875,-3.3759 c 0,-0.58246 0.45,-0.7809 1,-0.44098 0.55,0.33991 1,0.81647 1,1.05901 0,0.24254 -0.45,0.44099 -1,0.44099 -0.55,0 -1,-0.47656 -1,-1.05902 z m -281.18752,-0.6241 c 0.72187,-0.28887 1.58437,-0.25334 1.91667,0.079 0.33229,0.33229 -0.25834,0.56864 -1.3125,0.52522 -1.16495,-0.048 -1.4019,-0.28494 -0.60417,-0.60417 z m 152.00004,-5 c 0.7218,-0.28887 1.5843,-0.25334 1.9166,0.079 0.3323,0.33229 -0.2583,0.56864 -1.3125,0.52522 -1.1649,-0.048 -1.4019,-0.28494 -0.6041,-0.60417 z m -73.61759,-2.81688 c 0.0204,-1.65 0.2445,-2.20394 0.49804,-1.23097 0.25354,0.97297 0.23687,2.32297 -0.0371,3 -0.27393,0.67703 -0.48137,-0.11903 -0.46099,-1.76903 z m 80.55507,1.83772 c 0.6875,-0.27742 1.8125,-0.27742 2.5,0 0.6875,0.27741 0.125,0.50438 -1.25,0.50438 -1.375,0 -1.9375,-0.22697 -1.25,-0.50438 z m -246.59213,-2.33772 c 0,-1.375 0.22698,-1.9375 0.50439,-1.25 0.27741,0.6875 0.27741,1.8125 0,2.5 -0.27741,0.6875 -0.50439,0.125 -0.50439,-1.25 z m 144.92106,-0.58334 c 0.048,-1.16494 0.28494,-1.4019 0.60416,-0.60416 0.28887,0.72187 0.25335,1.58437 -0.0789,1.91666 -0.3323,0.33229 -0.56864,-0.25833 -0.52522,-1.3125 z m 123.07897,-2.41666 c 0,-1.375 0.2269,-1.9375 0.5043,-1.25 0.2775,0.6875 0.2775,1.8125 0,2.5 -0.2774,0.6875 -0.5043,0.125 -0.5043,-1.25 z m 53.8421,-1.37756 c 0,-0.20765 0.7875,-0.99515 1.75,-1.75 1.586,-1.24387 1.6214,-1.2085 0.3775,0.37756 -1.3064,1.66574 -2.1275,2.19547 -2.1275,1.37244 z m -68.8421,-3.62244 c 0,-1.375 0.2269,-1.9375 0.5043,-1.25 0.2775,0.6875 0.2775,1.8125 0,2.5 -0.2774,0.6875 -0.5043,0.125 -0.5043,-1.25 z m -136.88556,-3 c 0,-2.475 0.19502,-3.4875 0.43337,-2.25 0.23836,1.2375 0.23836,3.2625 0,4.5 -0.23835,1.2375 -0.43337,0.225 -0.43337,-2.25 z m 195.22766,-1 c 0.9954,-1.1 2.0349,-2 2.3099,-2 0.275,0 -0.3145,0.9 -1.3099,2 -0.9955,1.1 -2.035,2 -2.31,2 -0.275,0 0.3145,-0.9 1.31,-2 z M 37.214258,-291.48277 c 9.92081,-10.30595 30.40506,-23.01466 45.32085,-28.11768 13.45876,-4.60454 32.859512,-8.11364 30.129152,-5.44958 -0.5225,0.50981 -5.225,2.1156 -10.45,3.56842 -9.708662,2.69952 -21.234262,8.23144 -27.534672,13.21576 -1.9389,1.53389 -5.52684,5.32572 -7.9732,8.4263 l -4.44793,5.63741 -11.73761,2.21928 c -6.45569,1.2206 -12.87813,2.65053 -14.2721,3.17762 -2.32905,0.88067 -2.25079,0.66363 0.96551,-2.67753 z m 701.000042,3.12825 c 0,-0.20765 0.7875,-0.99515 1.75,-1.75 1.586,-1.24387 1.6214,-1.2085 0.3775,0.37756 -1.3064,1.66574 -2.1275,2.19547 -2.1275,1.37244 z m -241.92109,-4.20578 c 0.048,-1.16494 0.28494,-1.4019 0.60416,-0.60416 0.28887,0.72187 0.25335,1.58437 -0.0789,1.91666 -0.3323,0.33229 -0.56864,-0.25833 -0.52522,-1.3125 z m 146.19008,0.89035 c 0.97297,-0.25355 2.32297,-0.23687 3,0.037 0.67703,0.27392 -0.11903,0.48137 -1.76903,0.46099 -1.65,-0.0204 -2.20394,-0.2445 -1.23097,-0.49804 z m -621.769032,-5.30701 c 2.14824,-2.2 4.13089,-4 4.40589,-4 0.275,0 -1.25765,1.8 -3.40589,4 -2.14824,2.2 -4.1309,4 -4.4059,4 -0.275,0 1.25766,-1.8 3.4059,-4 z m 474.657892,-6 c 0,-1.375 0.22698,-1.9375 0.50439,-1.25 0.27741,0.6875 0.27741,1.8125 0,2.5 -0.27741,0.6875 -0.50439,0.125 -0.50439,-1.25 z m 228.92105,-5.58334 c 0.048,-1.16494 0.2849,-1.4019 0.6042,-0.60416 0.2888,0.72187 0.2533,1.58437 -0.079,1.91666 -0.3323,0.33229 -0.5686,-0.25833 -0.5252,-1.3125 z m -2.2065,-4.16666 c -1.2439,-1.58606 -1.2085,-1.62143 0.3776,-0.37756 0.9625,0.75485 1.75,1.54235 1.75,1.75 0,0.82303 -0.8212,0.2933 -2.1276,-1.37244 z m -227.79349,-0.83334 c 0.048,-1.16494 0.28494,-1.4019 0.60416,-0.60416 0.28887,0.72187 0.25335,1.58437 -0.0789,1.91666 -0.3323,0.33229 -0.56864,-0.25833 -0.52522,-1.3125 z m -356.45037,-2.25365 c -1.02929,-0.4259 -2.66288,-2.85936 -3.6302,-5.40768 -1.61605,-4.25731 -1.62648,-4.6905 -0.12858,-5.33809 3.73438,-1.61449 25.73856,-1.59189 36.59714,0.0376 6.03182,0.90515 11.13001,1.80879 11.32931,2.00809 0.1993,0.1993 -2.26083,0.88462 -5.46695,1.52294 -3.20611,0.63832 -10.7793,2.45 -16.8293,4.02595 -12.69783,3.30763 -19.22181,4.2476 -21.87142,3.15121 z m 142.24386,-4.91301 c -1.24387,-1.58606 -1.2085,-1.62143 0.37756,-0.37756 0.9625,0.75485 1.75,1.54235 1.75,1.75 0,0.82303 -0.82119,0.2933 -2.12756,-1.37244 z m 285.20651,-1.83334 c 0.048,-1.16494 0.28494,-1.4019 0.60416,-0.60416 0.28887,0.72187 0.25335,1.58437 -0.0789,1.91666 -0.3323,0.33229 -0.56864,-0.25833 -0.52522,-1.3125 z m -76.20651,-6.16666 c -1.24387,-1.58606 -1.2085,-1.62143 0.37756,-0.37756 1.66575,1.30637 2.19548,2.12756 1.37244,2.12756 -0.20765,0 -0.99515,-0.7875 -1.75,-1.75 z m -9.05994,-3.93312 c 0.72187,-0.28887 1.58437,-0.25334 1.91667,0.079 0.33229,0.33229 -0.25834,0.56864 -1.3125,0.52522 -1.16495,-0.048 -1.4019,-0.28494 -0.60417,-0.60417 z m 70.45653,-2.00987 c 0.97297,-0.25355 2.32297,-0.23687 3,0.037 0.67703,0.27392 -0.11903,0.48137 -1.76903,0.46099 -1.65,-0.0204 -2.20394,-0.2445 -1.23097,-0.49804 z m -429.45653,-9.99013 c 0.72187,-0.28887 1.58437,-0.25334 1.91667,0.079 0.33229,0.33229 -0.25834,0.56864 -1.3125,0.52522 -1.16495,-0.048 -1.4019,-0.28494 -0.60417,-0.60417 z m 40,0 c 0.72187,-0.28887 1.58437,-0.25334 1.91667,0.079 0.33229,0.33229 -0.25834,0.56864 -1.3125,0.52522 -1.16495,-0.048 -1.4019,-0.28494 -0.60417,-0.60417 z m -24.02898,-1.05529 c 2.90594,-0.20264 7.40594,-0.20051 10,0.005 2.59406,0.20524 0.21648,0.37104 -5.28352,0.36844 -5.5,-0.003 -7.62242,-0.17054 -4.71648,-0.37318 z"
         id="path177" />
      <path
         style="fill:#030303"
         d="m 125.71426,-2.6702725 c -8.14509,-0.72717 -26.195072,-4.53637 -35.454412,-7.4821605 -50.71215,-16.1337 -95.0901802,-59.57638 -111.53685,-109.185997 -6.71064,-20.24193 -8.01479,-29.3604 -7.95759,-55.63852 0.0441,-20.24747 0.35149,-24.88407 2.22107,-33.50001 6.95329,-32.04415 21.4851798,-60.07948 42.611,-82.20639 21.59704,-22.62046 43.04784,-36.49661 70.61678,-45.68076 17.749492,-5.91296 28.337062,-7.70659 49.108212,-8.31936 26.15453,-0.77159 43.07081,1.41506 63.5431,8.21377 10.57625,3.5123 23.00584,9.3558 29.83299,14.02534 l 3.9843,2.72512 4.5157,-1.7487 c 16.36784,-6.33842 35.93542,-5.75468 43.35573,1.29338 2.47045,2.34651 2.77867,3.256 2.36829,6.98818 -0.58767,5.34438 -2.43947,7.41682 -10.68245,11.9552 -3.58923,1.97615 -6.66045,3.68885 -6.82493,3.806 -0.16448,0.11715 2.4764,2.85343 5.86862,6.08061 13.51401,12.8565 28.4603,35.86916 36.13581,55.63795 13.54395,34.88339 15.91182,71.08883 6.91481,105.72967 -6.88762,26.51917 -20.99463,52.138167 -40.70867,73.928877 -25.40444,28.08056 -62.80123,47.4931605 -101.38947,52.6310905 -9.47049,1.26097 -35.99337,1.68668 -46.52204,0.74671 z m 42.5,-14.6915605 c 5.75035,-1.14011 6.18072,-1.37826 3.73163,-2.06495 -1.52261,-0.42692 -5.2124,-3.47694 -8.19953,-6.77783 l -5.43115,-6.00162 -11.80048,3.5088 c -6.49026,1.92984 -16.18667,4.79393 -21.54757,6.36464 -5.36091,1.57071 -9.74841,3.14271 -9.75,3.49334 -0.002,0.35063 4.3846,1.13607 9.7471,1.74542 5.3625,0.60935 11.1,1.29792 12.75,1.53015 4.88837,0.68803 23.49312,-0.40871 30.5,-1.79795 z m 26.92159,-13.49333 c 12.61525,-4.79342 29.95706,-20.33488 38.23105,-34.26207 8.73725,-14.70696 11.73122,-28.18557 9.76243,-43.949697 -0.65873,-5.27449 -0.8912,-11.22374 -0.51659,-13.22056 0.89305,-4.7604 4.75678,-9.22771 10.4965,-12.13625 8.33497,-4.22364 16.43273,-11.08443 19.93198,-16.88727 5.86723,-9.72966 6.60677,-22.92552 1.67911,-29.96074 -1.39673,-1.99411 -1.45365,-1.99764 -2.06613,-0.1279 -4.75565,14.51765 -9.06996,18.97329 -27.93994,28.85525 -10.35749,5.42408 -12.67969,7.35207 -16.34155,13.56745 -3.96203,6.72486 -3.64169,13.90943 1.1354,25.46505 4.49261,10.86747 4.7188,15.178017 1.02671,19.565817 -2.40898,2.86292 -3.08973,3.1293 -6.74439,2.6391 -7.71749,-1.03513 -10.57617,-7.77973 -10.57617,-24.952827 0,-17.34892 5.53106,-33.90612 15.32244,-45.86765 2.54395,-3.10778 10.1496,-10.35487 16.90146,-16.10465 19.45303,-16.5659 25.1685,-23.69342 28.94631,-36.09774 2.68173,-8.80536 2.15164,-16.11109 -2.03955,-28.10933 -3.33144,-9.53699 -4.21808,-20.54745 -2.10268,-26.11137 1.64006,-4.3137 0.26649,-4.12648 -4.66594,0.63595 -8.09939,7.82026 -9.79997,14.3531 -6.88204,26.43764 2.02908,8.40339 1.86104,13.79625 -0.59252,19.01598 -5.21133,11.08664 -22.14526,17.46717 -29.52069,11.12309 l -2.74474,-2.36092 1.70718,-4.47017 c 0.93894,-2.45859 3.74286,-6.85504 6.23093,-9.76989 13.90915,-16.29499 17.17647,-28.18794 12.43984,-45.28065 -2.70816,-9.77271 -2.57305,-15.2148 0.53246,-21.44674 3.09497,-6.2108 11.27342,-14.12862 18.55021,-17.95907 l 5.41733,-2.85163 -9.37404,-0.28917 c -12.11572,-0.37374 -17.51909,1.3477 -23.94175,7.62752 -3.28994,3.21679 -5.65687,6.83127 -7.63658,11.66165 -1.5779,3.85 -3.66601,8.90049 -4.64024,11.22332 -2.7996,6.67499 -10.5031,10.16896 -15.96987,7.24324 -3.16718,-1.69503 -5.93752,-8.3169 -5.93752,-14.19233 0,-6.76271 2.53681,-11.60267 7.6041,-14.50778 l 3.8959,-2.23355 -6.71249,-0.0165 c -9.58422,-0.0235 -16.09951,2.70185 -24.19669,10.12144 -10.78879,9.88596 -13.0308,15.19789 -16.61362,39.36211 -3.07748,20.75598 -7.47731,28.12575 -17.46335,29.25132 -3.63939,0.41022 -4.6706,0.0499 -7.85174,-2.74314 -2.87884,-2.52765 -3.66211,-3.94868 -3.66211,-6.64389 0,-4.51551 2.14932,-9.47944 6.34496,-14.65394 9.62724,-11.87331 13.27861,-28.32976 8.58277,-38.68191 -2.38883,-5.26629 -6.31369,-10.63011 -8.71838,-11.91479 -1.54642,-0.82616 -1.71194,-0.13641 -1.73649,7.23657 -0.0218,6.5493 -0.48527,9.0335 -2.36002,12.64978 -4.2181,8.13648 -10.49094,13 -16.76708,13 -3.23977,0 -9.30693,-2.6149 -12.05309,-5.19478 -5.84078,-5.48713 -5.02989,-12.98559 2.4714,-22.85355 8.52606,-11.21605 9.47068,-12.85479 9.97158,-17.29874 0.59681,-5.29486 -1.05603,-6.86104 -3.09805,-2.93563 -2.99926,5.76553 -10.30961,10.48788 -20.6875,13.36374 -14.382482,3.98559 -21.836332,9.32877 -26.322092,18.86859 -3.46752,7.37432 -3.74898,11.48591 -2.20396,32.19543 0.82896,11.11139 0.76598,11.81139 -1.37418,15.27425 -4.49335,7.27039 -12.03406,8.3401 -17.62471,2.50022 -2.55631,-2.67028 -2.91669,-3.77204 -2.85797,-8.73755 0.0452,-3.82551 0.84994,-7.31564 2.46289,-10.68198 2.89042,-6.03253 3.58287,-19 1.01458,-19 -2.25751,0 -13.74909,14.25607 -17.33079,21.5 -2.87588,5.81642 -3.20898,7.39391 -3.16733,15 0.0574,10.47642 2.151,15.46538 11.96014,28.5 8.70091,11.56198 9.8736,14.36959 9.183,21.98564 -0.47703,5.26076 -0.97769,6.3902 -4.10183,9.25326 -3.086,2.82811 -4.26586,3.26111 -8.88607,3.26111 -4.61378,0 -5.71257,-0.40182 -8.20081,-2.99899 -2.32553,-2.42733 -2.95061,-4.09521 -3.2793,-8.75 -0.24793,-3.51105 0.16849,-7.40636 1.06915,-10.00102 1.85641,-5.34809 0.18075,-5.78758 -3.84141,-1.00752 -8.92373,10.60527 -9.1431,26.38794 -0.55501,39.92996 1.5565,2.45434 3.3964,6.17867 4.08868,8.2763 1.85961,5.63467 0.7967,17.6413 -2.34381,26.4756 -3.08829,8.68742 -3.31847,15.00886 -0.74923,20.57567 4.0759,8.831267 12.13303,12.811627 26.10996,12.898787 8.39067,0.0523 10.08782,-0.24862 14.53398,-2.57716 11.22154,-5.876937 19.14728,-18.008627 23.52458,-36.008327 2.90385,-11.94081 2.81419,-11.8134 4.95245,-7.03745 2.85427,6.37523 6.791192,11.02392 11.843532,13.98479 3.72768,2.18457 5.80533,2.66851 11.59351,2.70044 6.11123,0.0337 8.08311,-0.45348 14.78193,-3.65229 8.92311,-4.26094 16.3381,-10.76465 22.01426,-19.30879 3.76594,-5.66874 3.94964,-5.80676 3.32724,-2.5 -2.74796,14.59968 -3.79131,25.35081 -4.27971,44.10006 -0.74721,28.684557 1.45164,42.716517 8.99826,57.422407 3.00876,5.86309 8.9892,12.24052 13.20997,14.0869 4.31797,1.88889 11.71183,1.68195 17.42159,-0.48758 z m -104.558912,-5.72047 c 7.77553,-1.97927 17.026282,-4.22176 20.557242,-4.98332 5.86234,-1.26439 30.83609,-7.84421 33.85295,-8.91922 1.01218,-0.36068 0.97755,-1.16035 -0.16912,-3.90471 -0.79309,-1.89814 -1.7569,-5.97165 -2.14179,-9.05226 -0.56623,-4.53196 -1.01115,-5.50896 -2.33089,-5.1184 -5.97494,1.76822 -33.02596,8.64964 -39.63107,10.08162 -4.400002,0.95392 -13.625002,3.29394 -20.500002,5.20006 -6.875,1.90611 -14.97057,4.1445 -17.99016,4.97418 -3.01959,0.82969 -6.59793,2.08893 -7.95186,2.79833 -2.4283,1.27231 -2.37433,1.33548 3.97785,4.6561 7.24203,3.78579 16.02444,7.74934 17.32685,7.81969 0.47448,0.0256 7.22448,-1.5728 15,-3.55207 z m -15.36268,-12.34231 c 0,-0.51754 0.44484,-1.21591 0.98854,-1.55193 0.56686,-0.35034 0.73451,0.0511 0.39302,0.94098 -0.66479,1.73242 -1.38156,2.04939 -1.38156,0.61095 z m 15.58435,-3.30901 c 1.04189,-1.2375 2.01638,-2.44226 2.16555,-2.67723 0.14917,-0.23498 1.184,0.55252 2.29961,1.75 2.11809,2.2735 1.29355,3.10739 -0.91683,0.92723 -1.01538,-1.00151 -1.52435,-0.90211 -2.56024,0.5 -0.71111,0.9625 -1.65056,1.75 -2.08767,1.75 -0.43711,0 0.0577,-1.0125 1.09958,-2.25 z m -3.58435,0.25 c 0,-0.55 0.47656,-1 1.05902,-1 0.58246,0 0.7809,0.45 0.44098,1 -0.33992,0.55 -0.81648,1 -1.05902,1 -0.24254,0 -0.44098,-0.45 -0.44098,-1 z m 24.000002,-2 c 0,-0.55 0.47656,-1 1.05902,-1 0.58246,0 0.7809,0.45 0.44098,1 -0.33992,0.55 -0.81648,1 -1.05902,1 -0.24254,0 -0.44098,-0.45 -0.44098,-1 z m -11.1875,-2.68312 c 0.72187,-0.28887 1.58437,-0.25334 1.91667,0.0789 0.33229,0.33229 -0.25834,0.56864 -1.3125,0.52522 -1.164952,-0.048 -1.401902,-0.28494 -0.60417,-0.60417 z m 7.6875,-0.31688 c -0.33992,-0.55 -0.14148,-1 0.44098,-1 0.58246,0 1.05902,0.45 1.05902,1 0,0.55 -0.19844,1 -0.44098,1 -0.24254,0 -0.7191,-0.45 -1.05902,-1 z m 3.5,-1.5 c 0,-0.825 0.45,-1.5 1,-1.5 0.55,0 1,0.675 1,1.5 0,0.825 -0.45,1.5 -1,1.5 -0.55,0 -1,-0.675 -1,-1.5 z m 123.19631,14.47311 c 3.83362,-2.77672 6.7332,-5.97311 5.41848,-5.97311 -2.83698,0 -14.61479,8.20953 -14.61479,10.18701 0,1.23409 4.55852,-0.85469 9.19631,-4.2139 z M 46.214258,-67.923163 c 31.23264,-8.53178 40.85634,-11.0436 50,-13.05021 5.225002,-1.14665 14.675002,-3.38955 21.000002,-4.98423 6.325,-1.59467 13.65979,-3.20584 16.29954,-3.58036 7.625,-1.08181 8.21277,-2.37428 7.70327,-16.938987 -0.0962,-2.75 -0.24868,-5.07413 -0.33886,-5.16472 -0.0902,-0.0906 -6.68895,1.40496 -14.66395,3.32347 -7.975,1.9185 -17.65,4.08411 -21.5,4.81246 -12.722232,2.40681 -17.874932,5.266647 -24.429522,13.558837 -2.11422,2.67468 -4.11998,4.58711 -4.45726,4.24984 -0.33727,-0.33728 -0.61322,-0.12089 -0.61322,0.48086 0,0.60175 1.18569,2.02675 2.63486,3.16667 l 2.63486,2.07258 h -3.07585 c -1.69171,0 -3.32038,-0.39569 -3.61927,-0.8793 -0.30225,-0.48904 -3.32424,-0.28272 -6.80902,0.46487 -8.48916,1.8212 -16.99186,1.76868 -31.26558,-0.19309 -12.36209,-1.69904 -17.5,-1.15688 -17.5,1.84665 0,1.34114 11.65327,14.75531 12.82959,14.76823 0.36873,0.004 7.19541,-1.77505 15.17041,-3.95357 z m 35,-13.05379 c 0,-0.55 0.675,-1 1.5,-1 0.825,0 1.5,0.45 1.5,1 0,0.55 -0.675,1 -1.5,1 -0.825,0 -1.5,-0.45 -1.5,-1 z m 11.44198,-2.09388 c -0.30801,-0.49837 0.32904,-0.90612 1.41567,-0.90612 1.08662,0 2.20266,-0.5625 2.48007,-1.25 0.32016,-0.79344 0.53322,-0.65341 0.58333,0.38336 0.0863,1.78535 -3.57556,3.23466 -4.47907,1.77276 z m -12.44198,-0.90612 c 0,-0.55 0.45,-1 1,-1 0.55,0 1,0.45 1,1 0,0.55 -0.45,1 -1,1 -0.55,0 -1,-0.45 -1,-1 z m 0.5,-4 c 0.33992,-0.55 0.81648,-1 1.05902,-1 0.24254,0 0.44098,0.45 0.44098,1 0,0.55 -0.47656,1 -1.05902,1 -0.58246,0 -0.7809,-0.45 -0.44098,-1 z m 34.636182,-0.27475 c -0.0749,-0.97612 -1.21747,-2.18586 -2.53904,-2.68832 -3.42386,-1.30175 -3.9621,-2.73401 -1.22413,-3.25741 1.69433,-0.32389 2.31865,-0.007 2.23835,1.13565 -0.0754,1.07269 0.61572,1.50785 2.13864,1.34662 1.2375,-0.13102 2.25,0.23304 2.25,0.80901 0,0.57598 -0.41783,0.789 -0.92851,0.47338 -0.51067,-0.31561 -1.12439,0.44533 -1.36381,1.69099 -0.29543,1.53702 -0.47908,1.6945 -0.5715,0.49008 z m -23.136182,-0.78427 c 0,-0.58246 0.45,-0.7809 1,-0.44098 0.55,0.33991 1,0.81647 1,1.05901 0,0.24254 -0.45,0.44099 -1,0.44099 -0.55,0 -1,-0.47656 -1,-1.05902 z m 33.078952,-1.52432 c 0.048,-1.16494 0.28494,-1.4019 0.60416,-0.60416 0.28887,0.72187 0.25335,1.58437 -0.0789,1.91666 -0.3323,0.33229 -0.56864,-0.25833 -0.52522,-1.3125 z m -30.541972,-0.35682 c -0.36026,-0.58292 -0.3769,-1.50984 -0.037,-2.05984 0.87731,-1.41953 -0.84558,-1.24137 -2.41761,0.25 -1.08978,1.03385 -1.09153,0.87497 -0.0102,-0.9188 1.07716,-1.7868 1.07631,-2.44731 -0.005,-3.75 -2.03478,-2.45176 -0.66261,-1.86948 2.75432,1.1688 2.73491,2.43183 2.93524,2.95939 1.73151,4.55984 -0.8598,1.14316 -1.6025,1.41943 -2.01624,0.75 z m 0.46302,-7.50083 c 0,-0.85746 0.45,-1.55901 1,-1.55901 0.55,0 1,0.42344 1,0.94098 0,0.51754 -0.45,1.2191 -1,1.55902 -0.55,0.33991 -1,-0.0835 -1,-0.94099 z m 8.000002,-1.46539 c 0,-0.498507 0.9,-0.671027 2,-0.383367 1.1,0.287647 2,0.695517 2,0.906377 0,0.21085 -0.9,0.38337 -2,0.38337 -1.1,0 -2,-0.40788 -2,-0.90638 z m 5.22984,-1.097187 c -1.00381,-1.60736 -1.00194,-1.95342 0.009,-1.75 1.34745,0.27101 2.72026,1.77293 2.74539,3.003567 0.0293,1.43739 -1.51246,0.73581 -2.75485,-1.253567 z m 6.94191,0.34234 c -1.66482,-1.78219 -0.46492,-3.6487 1.94111,-3.01951 1.03793,0.27142 1.88714,0.0106 1.88714,-0.57955 0,-0.59018 0.2763,-0.79675 0.614,-0.45904 0.33771,0.3377 -0.23696,1.69583 -1.27703,3.01806 -1.58183,2.010967 -2.09938,2.181027 -3.16522,1.04004 z m 2.32825,-1.33877 c 0.33992,-0.55 0.14148,-1 -0.44098,-1 -0.58246,0 -1.05902,0.45 -1.05902,1 0,0.55 0.19844,1 0.44098,1 0.24254,0 0.7191,-0.45 1.05902,-1 z m 2.5,1.999997 c 0,-0.549997 0.45,-0.999997 1,-0.999997 0.55,0 1,0.45 1,0.999997 0,0.55 -0.45,1 -1,1 -0.55,0 -1,-0.45 -1,-1 z m -8.5,-0.999997 c -0.33992,-0.55 -0.14148,-1 0.44098,-1 0.58246,0 1.05902,0.45 1.05902,1 0,0.55 -0.19844,0.999997 -0.44098,0.999997 -0.24254,0 -0.7191,-0.449997 -1.05902,-0.999997 z m 151.26096,25.348907 c 8.05799,-2.28675 9.78142,-3.17116 12.54044,-6.43537 3.35506,-3.9694 13.24197,-20.729407 12.58164,-21.328047 -0.93482,-0.84749 -30.08048,7.112777 -30.92357,8.445837 -0.51086,0.80777 -0.93574,2.89107 -0.94416,4.62957 -0.008,1.7385 -0.90951,6.0135 -2.00241,9.5 -2.20004,7.01842 -2.33649,7.8391 -1.30334,7.8391 0.39026,0 4.91339,-1.19299 10.0514,-2.65109 z m -252.203782,-27.467627 4.44282,-1.11871 v -9.88129 c 0,-6.42789 -0.37863,-9.88128 -1.08339,-9.88128 -1.24076,0 -17.2741202,4.02711 -17.6926602,4.44388 -0.25449,0.25342 5.44593,15.10363 6.45122,16.80612 0.61224,1.03683 2.68516,0.93986 7.8820102,-0.36872 z m 269.668212,-21.44013 16.7254,-3.76006 1.43773,-5.09054 c 2.28507,-8.09069 3.97759,-16.55778 3.42105,-17.11432 -0.2813,-0.28129 -3.84102,0.17129 -7.91051,1.00574 -5.98255,1.22673 -7.77881,2.04374 -9.38267,4.26761 -4.37678,6.06874 -15.49648,16.20592 -20.60142,18.78112 -5.46874,2.75871 -6.87174,4.00698 -6.89966,6.13869 -0.0108,0.82131 0.95209,0.92567 3.23469,0.35061 1.7875,-0.45033 10.77643,-2.51081 19.97539,-4.57885 z M 2.2142578,-146.41667 c 9.1792602,-2.32889 13.4405302,-3.84681 13.3141802,-4.7427 -0.10219,-0.72467 -1.33969,-4.37555 -2.75,-8.11307 -1.4103,-3.73752 -2.56418,-7.85116 -2.56418,-9.14141 v -2.34592 l -8.7500002,2.00948 c -4.8125,1.10522 -10.1,2.32019 -11.7499998,2.69992 -2.89837,0.66704 -2.99656,0.87477 -2.89845,6.13192 0.0935,5.00924 1.30671,16.95116 1.72041,16.93419 0.0979,-0.004 6.2530398,-1.5486 13.6780398,-3.43241 z M 297.21426,-174.47695 c 7.87796,-1.46151 7.73195,-1.09943 6.3489,-15.74345 -0.61469,-6.50841 -0.72352,-6.72775 -3.12233,-6.29276 -8.39605,1.52249 -13.49448,3.07077 -13.94064,4.23346 -0.5119,1.334 2.26078,16.7603 3.3207,18.47528 0.30893,0.49985 1.31131,0.69911 2.22753,0.4428 0.91621,-0.25631 3.24084,-0.75821 5.16584,-1.11533 z M -4.5469022,-189.91999 c 3.99363998,-1.06868 9.10979,-2.41882 11.36922,-3.00034 3.4972402,-0.90008 4.6460402,-1.92887 7.7261602,-6.91905 3.45361,-5.5953 9.25226,-11.68753 13.25801,-13.92926 1.81984,-1.01843 1.81939,-1.09601 -0.018,-3.12634 -1.0363,-1.14509 -2.89953,-2.08198 -4.14052,-2.08198 -2.38404,0 -20.4006302,4.08457 -29.0638402,6.58911 l -5.1301698,1.48313 -1.61983,10.4004 c -1.90335,12.22071 -1.91879,12.52737 -0.631,12.52737 0.54386,0 4.2563598,-0.87437 8.2499998,-1.94304 z M 294.54065,-218.55706 c 2.45319,-0.58593 2.74113,-1.02132 2.18074,-3.29748 -0.90865,-3.69069 -8.92122,-20.21652 -10.96851,-22.62242 l -1.70189,-2 0.70461,2 c 1.84232,5.22928 3.39175,14.65091 3.42353,20.81738 0.031,6.01547 0.24098,6.75624 1.78513,6.29749 0.9625,-0.28594 3.02187,-0.82368 4.57639,-1.19497 z m -285.4495622,-19.26609 10.3768402,-2.79554 2.69294,-8.0261 c 1.48112,-4.41435 3.63055,-9.92116 4.77651,-12.23736 l 2.08358,-4.21127 -2.65335,0.50892 c -13.75288,2.63784 -14.10449,2.76075 -16.6907302,5.83433 -2.22921,2.64926 -12.46262,21.74464 -12.46262,23.25504 0,0.81031 0.83553,0.64654 11.87683,-2.32802 z m 41.4297602,-54.15971 11.73761,-2.21928 4.44793,-5.63741 c 2.44636,-3.10058 6.0343,-6.89241 7.9732,-8.4263 6.30041,-4.98432 17.82601,-10.51624 27.534672,-13.21576 5.225,-1.45282 9.9275,-3.05861 10.45,-3.56842 2.73036,-2.66406 -16.670392,0.84504 -30.129152,5.44958 -14.91579,5.10302 -35.40004,17.81173 -45.32085,28.11768 -3.2163,3.34116 -3.29456,3.5582 -0.96551,2.67753 1.39397,-0.52709 7.81641,-1.95702 14.2721,-3.17762 z m 109.193412,-26.9823 c 6.05,-1.57595 13.62319,-3.38763 16.8293,-4.02595 3.20612,-0.63832 5.66625,-1.32364 5.46695,-1.52294 -0.1993,-0.1993 -5.29749,-1.10294 -11.32931,-2.00809 -10.85858,-1.62947 -32.86276,-1.65207 -36.59714,-0.0376 -1.4979,0.64759 -1.48747,1.08078 0.12858,5.33809 0.96732,2.54832 2.60091,4.98178 3.6302,5.40768 2.64961,1.09639 9.17359,0.15642 21.87142,-3.15121 z m 201.85297,247.927377 c -10.669,-3.38188 -19.06204,-12.74836 -22.36229,-24.95592 -1.51135,-5.590437 -1.49574,-20.683327 0.0301,-29.097717 2.32692,-12.83221 11.60189,-32.48459 20.96054,-44.41249 5.32457,-6.78634 15.17205,-16.36411 19.95065,-19.40425 7.20662,-4.58484 14.88786,-6.35898 25.51853,-5.89403 7.46486,0.32649 10.21223,0.91476 14.83511,3.17653 10.46891,5.12196 14.2677,12.34122 13.50354,25.66227 -0.33988,5.92498 -1.13295,8.93941 -3.75101,14.25744 -7.88419,16.01506 -23.84944,25.26705 -31.44839,18.22458 -3.05184,-2.82835 -3.21978,-2.34123 4.05709,-11.76781 7.14789,-9.2595 10.65552,-16.75951 11.17099,-23.88577 0.58904,-8.14337 -1.24806,-10.842 -7.3807,-10.842 -6.15617,0 -10.83447,2.63814 -17.99444,10.14728 -7.92905,8.3157 -11.575,13.77928 -17.56988,26.32901 -9.29581,19.45994 -12.51665,40.43078 -7.72868,50.321387 7.18408,14.84034 36.25692,8.46248 61.4747,-13.486007 8.90375,-7.74945 10.82935,-11.11926 14.28085,-24.99148 5.96125,-23.95938 10.86419,-39.78464 13.63714,-44.0167 3.5722,-5.45187 13.28717,-0.59835 11.95853,5.97438 -0.69579,3.44207 -7.18193,26.74183 -8.13765,29.23242 -0.65263,1.70071 2.33304,1.90945 12.34448,0.86305 l 5.99555,-0.62666 3.22716,-13.87794 c 1.77495,-7.63286 3.9372,-14.58795 4.80501,-15.45576 1.15225,-1.15226 2.54779,-1.39792 5.17398,-0.9108 7.8235,1.45117 8.51937,4.55363 4.65676,20.76178 -10.09322,42.35279 -11.65827,50.809467 -12.44116,67.224997 -0.72047,15.10701 -1.4362,15.99642 -7.89848,9.81527 -3.52819,-3.3747 -4.11466,-4.62594 -5.19412,-11.08175 -1.40074,-8.37732 -0.9079,-14.50326 2.58302,-32.106277 1.35073,-6.81108 2.29878,-12.54087 2.10679,-12.73287 -0.7831,-0.7831 -16.85029,0.99639 -18.20154,2.01588 -1.78456,1.34641 -4.50549,17.46861 -4.51111,26.729467 -0.004,6.37491 -0.1154,6.67481 -2.91329,7.83374 -5.22839,2.16566 -9.83936,-2.04441 -10.76089,-9.825277 -0.33463,-2.82543 -0.9124,-5.13714 -1.28392,-5.13714 -0.37152,0 -1.37991,1.4625 -2.24086,3.25 -5.0234,10.429577 -26.57924,27.355467 -40.98138,32.179037 -9.58095,3.20886 -20.36782,3.39557 -29.47071,0.51013 z m 574.71805,0.30927 c -4.5932,-2.34213 -7.271,-6.22767 -7.271,-10.55018 0,-4.56597 2.6945,-8.20549 7.5408,-10.18554 10.3454,-4.22677 20.523,5.69741 16.2734,15.86818 -2.5609,6.12904 -9.8584,8.27619 -16.5432,4.86754 z m -375.78216,-10.74825 c -4.28014,-3.0181 -5.47574,-13.84102 -2.78819,-25.239477 0.80911,-3.4316 4.21141,-15.45768 7.56067,-26.72461 3.44514,-11.58951 5.82442,-21.32068 5.47901,-22.40898 -0.81504,-2.56796 4.74103,-7.16991 13.95965,-11.56241 21.73408,-10.35588 39.49299,-5.08711 39.49845,11.71853 0.004,11.35562 -10.18633,22.35265 -30.24845,32.64403 -1.5125,0.77588 -2.73724,1.67214 -2.72164,1.99171 0.0156,0.31956 2.46063,2.05271 5.4334,3.85144 11.57498,7.00366 20.83521,16.32201 19.06562,19.185267 -0.90519,1.46463 -5.10028,-0.21822 -23.40695,-9.389617 -9.55876,-4.78881 -17.73429,-8.33774 -18.16784,-7.8865 -1.47367,1.53378 -6.19707,20.780967 -6.82617,27.815667 -0.53605,5.99422 -0.91495,7.0451 -2.62642,7.28443 -1.1,0.15383 -2.99501,-0.42194 -4.21114,-1.27948 z m 30.38135,-53.850147 c 13.1931,-8.16091 21.98407,-18.89667 19.90661,-24.31044 -0.98583,-2.56903 -11.0611,-1.34223 -18.17819,2.21346 -5.2642,2.62998 -6.05214,3.43093 -7.32585,7.44694 -0.78497,2.475 -2.68096,8.26066 -4.21332,12.85704 -3.33907,10.01568 -3.44955,9.99549 9.81075,1.793 z m 35.61858,50.549597 c -1.67426,-1.064 -4.28879,-7.59284 -4.28879,-10.70968 0,-4.0081 2.56062,-15.463687 8.00344,-35.805427 2.74811,-10.27065 4.99656,-20.17286 4.99656,-22.00491 0,-4.12355 2.39441,-6.50041 10.68585,-10.60751 12.23483,-6.06043 24.28021,-7.63311 31.91308,-4.16668 9.56635,4.34451 11.80064,14.88811 5.39474,25.45779 -1.89287,3.12321 -4.80329,6.98026 -6.46762,8.57121 -4.07336,3.89378 -17.55429,13.06557 -19.20411,13.06557 -2.91183,0 -0.88516,2.28567 8.42806,9.50514 12.28729,9.52494 22.79599,14.900227 32.2462,16.494217 3.9553,0.66714 6.81173,1.57118 6.34762,2.00896 -1.6841,1.5886 -10.51495,3.99168 -14.66867,3.99168 -10.69829,0 -21.35284,-4.67343 -38.61663,-16.938477 -8.5051,-6.04245 -11.63411,-7.78439 -12.19206,-6.78739 -0.70003,1.2509 -5.91339,19.829617 -7.28905,25.975867 -0.61563,2.75049 -2.77552,3.54673 -5.28862,1.94964 z m 33.4421,-52.699637 c 7.92933,-5.97423 13.26911,-13.26177 13.26911,-18.1092 0,-3.16108 -0.22019,-3.39007 -3.25,-3.37998 -4.00322,0.0133 -11.80623,2.31861 -15.76638,4.65792 -2.51093,1.48325 -3.56096,3.56076 -6.96996,13.79026 -2.20751,6.62417 -4.01366,12.40673 -4.01366,12.85015 0,1.23766 9.32618,-4.23019 16.73089,-9.80915 z m 91.02813,48.077057 c -5.507,-1.9655 -8.72168,-4.34855 -9.84238,-7.29639 -1.286,-3.382427 0.034,-4.240717 6.58338,-4.280137 16.5008,-0.0993 35.5,-9.90708 35.5,-18.32587 0,-3.37785 -0.7479,-3.52716 -19.5,-3.89306 -17.1942,-0.33549 -20.6006,-1.4934 -23.85608,-8.10912 -3.9115,-7.94866 0.7934,-18.31561 11.91358,-26.25081 10.1662,-7.25442 17.1272,-9.65101 29.4425,-10.13663 9.2987,-0.36668 10.8728,-0.17891 13.7591,1.64131 5.3674,3.38495 10.2833,13.67256 5.4909,11.49101 -6.4612,-2.9412 -23.5819,-0.59045 -34.1457,4.68837 -8.3379,4.16649 -15.1753,12.41243 -10.8543,13.09039 0.6875,0.10787 7.55,0.22037 15.25,0.25 13.3815,0.0515 14.204,0.17384 18.6198,2.76977 14.7728,8.68452 9.323,31.47535 -9.8339,41.124687 -8.9017,4.48379 -21.1413,5.87242 -28.5269,3.23648 z m 68.741,0.47096 c -11.4925,-1.92615 -17.5344,-9.72806 -18.292,-23.620447 -0.736,-13.49653 4.3229,-29.17228 13.4248,-41.59841 8.8229,-12.04525 26.9145,-14.51714 36.4512,-4.98039 4.7997,4.79967 5.9429,10.54079 3.1694,15.91597 -2.2337,4.32886 -7.46,8.23526 -11.0179,8.23526 -2.1795,0 -2.3947,-0.32215 -1.8374,-2.75 0.3473,-1.5125 0.9044,-5.25073 1.238,-8.30717 0.6299,-5.77001 -0.8506,-8.94283 -4.1728,-8.94283 -4.6005,0 -13.7544,13.90419 -18.434,28 -2.8072,8.45591 -3.0581,19.20578 -0.5138,22.01713 2.9677,3.27931 10.5666,2.68941 19.3057,-1.49872 13.7814,-6.60456 23.1788,-14.12713 23.1788,-18.55462 0,-4.66562 3.7506,-17.49449 7.1574,-24.4817 6.3647,-13.05352 15.9107,-21.2365 26.1874,-22.44822 10.2243,-1.20555 18.4828,1.06653 24.0265,6.61017 6.0139,6.01396 7.1396,9.68066 7.0168,22.85596 -0.093,9.93603 -0.576,13.54335 -2.8103,20.97311 -4.744,15.77537 -12.2873,26.744827 -21.4227,31.152607 -7.8433,3.78437 -23.12,2.38375 -30.3792,-2.78526 -3.9346,-2.80168 -7.6623,-9.667767 -9.1148,-16.788457 l -1.2477,-6.11665 -1.7395,3.94265 c -2.6949,6.10804 -13.0742,15.718267 -21.1739,19.604887 -7.5886,3.64137 -12.7579,4.61132 -19,3.56513 z m 71.7849,-13.057537 c 9.6445,-7.58638 19.9698,-44.29962 15.6525,-55.65503 -1.2811,-3.36953 -2.5913,-4.29993 -6.0838,-4.32014 -11.9284,-0.069 -25.9595,49.98036 -16.7754,59.83834 2.4853,2.667557 3.954,2.695437 7.2067,0.13683 z M 721.3322,-91.882903 c -2.1318,-1.3502 -3.2414,-10.612007 -2.5151,-20.994737 l 0.6576,-9.40068 -2.3802,0.64408 c -1.3091,0.35424 -5.3052,1.14328 -8.8802,1.75341 -7.39516,1.2621 -8.65061,2.3909 -9.58434,8.61744 -0.84735,5.65056 -3.59966,7.27691 -8.24744,4.87344 -6.43086,-3.32552 -6.37579,-7.07251 0.34667,-23.587 4.44603,-10.9222 9.83308,-21.11622 14.18108,-26.83514 7.77543,-10.22705 20.53633,-9.424 25.61273,1.61181 1.8899,4.10844 2.2181,6.8619 2.521,21.15106 0.5091,24.00801 -2.2448,39.083297 -7.6699,41.986737 -2.4105,1.29006 -2.2965,1.28499 -4.0419,0.17958 z m -6.8679,-38.600727 4.75,-0.61587 -0.1184,-6.68873 c -0.1425,-8.05823 -0.9878,-12.39274 -2.5159,-12.90098 -1.079,-0.35887 -11.36574,18.327 -11.36574,20.64582 0,0.6164 0.99437,0.89928 2.25004,0.64008 1.2375,-0.25545 4.3875,-0.74159 7,-1.08032 z m -174.51363,34.814727 c -2.58776,-0.67488 -4.73641,-5.560167 -4.73641,-10.768977 0,-3.88978 2.32079,-16.1045 4.64462,-24.44545 1.25745,-4.51338 -1.57238,-1.18758 -5.30159,6.23078 -5.74277,11.42383 -12.95496,22.02042 -16.35087,24.02369 -5.52369,3.258457 -13.03939,0.24956 -16.70144,-6.68639 -2.5563,-4.84164 -2.08784,-17.94127 1.06428,-29.76053 5.60229,-21.00647 8.11486,-24.55222 15.05338,-21.24347 5.27677,2.51632 5.7971,4.82516 2.90982,12.91183 -5.13605,14.38501 -7.3182,22.91501 -7.3182,28.60669 0,9.8732 0.96714,8.83124 16.40697,-17.67622 6.40718,-11 12.58658,-20.7875 13.73201,-21.75 2.40628,-2.022 6.04505,-2.25462 9.17676,-0.58666 5.72509,3.0492 5.88817,6.4227 1.19542,24.72773 -2.77619,10.82912 -7.51116,32.04025 -7.51116,33.647577 0,0.17517 -0.70714,1.02563 -1.57143,1.88992 -1.6242,1.6242 -1.7478,1.64737 -4.69216,0.87948 z m 404.93021,-4.974717 c -1.7895,-1.78951 -0.9663,-10.92785 6.8309,-75.83333 3.4342,-28.58781 2.9248,-27.06226 8.9308,-26.74464 5.6913,0.30098 13.9614,4.44786 16.9376,8.49306 2.0017,2.72057 2.0042,2.86252 0.2425,14.00001 -2.1861,13.82043 -8.3976,38.44667 -12.4596,49.39721 -7.4695,20.1366 -16.9016,34.268297 -20.4822,30.68769 z m -404.71662,-76.26523 c -8.83444,-9.28693 -12.61297,-24.89935 -11.51246,-47.56811 0.81897,-16.86948 2.16509,-28.69777 4.60707,-40.48227 2.13449,-10.30059 9.19173,-38.26567 10.47737,-41.51773 2.90781,-7.35538 -7.62631,10.10382 -25.5361,42.32343 -8.66746,15.59271 -12.96403,20.17657 -18.91204,20.17657 -4.94552,0 -9.2195,-3.40752 -11.53617,-9.19747 -2.00595,-5.01334 -5.16997,-21.66518 -6.13033,-32.26306 -0.37853,-4.17728 -1.0388,-7.8117 -1.46726,-8.07651 -0.42847,-0.2648 -2.20932,4.1352 -3.95744,9.77779 -4.76899,15.39328 -16.79326,48.4436 -20.10425,55.25925 -4.57079,9.40891 -11.85295,13.20877 -19.32808,10.08546 -3.52354,-1.47223 -3.77028,-1.83708 -3.27237,-4.83888 0.84014,-5.06501 33.2934,-90.23066 38.00947,-99.74658 3.92784,-7.92544 4.44029,-8.52178 7.58117,-8.82221 6.20976,-0.59396 11.80478,3.17148 13.85433,9.32393 0.54997,1.65095 2.28235,15.94427 3.84972,31.76293 1.80903,18.25754 3.22914,28.63803 3.88857,28.42392 0.57134,-0.1855 3.21045,-4.35382 5.86469,-9.26293 14.67164,-27.13566 33.71254,-56.89269 38.65755,-60.41386 5.72741,-4.07827 15.22111,-1.37023 18.70231,5.33476 2.45025,4.71933 1.98193,9.35295 -2.99867,29.66933 -4.92126,20.07428 -10.69664,48.85208 -12.8409,63.98413 -0.84188,5.94111 -1.34618,18.95921 -1.34618,34.75019 0,28.30102 0.0227,28.22723 -6.55,21.31792 z m 90.45376,-37.49433 c -8.56035,-3.72671 -8.36137,-23.66698 0.57013,-57.13417 4.63165,-17.35525 6.08905,-19.43961 13.59229,-19.43961 6.22377,0 9.44316,4.49243 14.48145,20.20787 3.84403,11.99029 5.92041,16.944 5.9697,14.24213 0.20352,-11.15718 4.77289,-34.073 8.10884,-40.66657 2.97266,-5.87551 8.4404,-7.57449 12.85977,-3.9959 l 2.20751,1.78753 -3.60377,12.96699 c -4.61272,16.59741 -7.44952,31.22187 -8.62378,44.45795 -0.98472,11.09962 -1.93625,13 -6.50915,13 -6.83118,0 -13.55985,-9.99037 -19.1847,-28.4844 -1.83746,-6.04141 -3.72758,-11.37113 -4.20027,-11.84382 -0.47924,-0.47924 -1.38222,2.38929 -2.04121,6.48439 -0.64999,4.03911 -2.23542,13.19383 -3.52318,20.34383 -1.28777,7.15 -2.6157,16.03184 -2.95096,19.73743 -0.94598,10.45592 -1.30984,10.88 -7.15267,8.33635 z m 123.46866,-9.23778 c -1.0405,-1.26152 -1.3165,-4.91273 -1.1413,-15.096 l 0.2312,-13.432 -5.8929,0.68394 c -3.2411,0.37616 -8.29508,1.21683 -11.23108,1.86815 -5.333,1.18302 -5.3404,1.1901 -7.4242,7.05542 -3.1499,8.86642 -7.9892,11.10036 -13.0605,6.02905 -3.2241,-3.22416 -2.8258,-5.86111 2.9084,-19.25383 12.5696,-29.35717 26.10338,-42.38194 38.11548,-36.68182 4.3748,2.07599 7.0466,6.1974 9.1073,14.04853 2.1365,8.14013 3.0384,28.25155 1.6604,37.02834 -2.2401,14.26842 -8.8517,23.11043 -13.2728,17.75022 z m -4.6224,-37.95067 3.75,-0.56113 -0.056,-5.6621 c -0.06,-6.0509 -1.7627,-12.2902 -3.5085,-12.85864 -1.5215,-0.49541 -13.43498,17.50119 -13.43498,20.29493 0,0.57738 3.3096,0.27437 13.24998,-1.21306 z m 87.1106,37.57266 c -1.2624,-0.47897 -2.8419,-2.65122 -3.8532,-5.29943 l -1.7139,-4.48774 -4.4734,3.41459 c -3.7852,2.88932 -5.2849,3.41459 -9.7489,3.41459 -8.9841,0 -14.8028,-5.3533 -16.6266,-15.29682 -2.1511,-11.72705 4.748,-28.7422 14.7168,-36.29616 6.316,-4.78597 16.3164,-5.60176 21.8111,-1.77925 2.5433,1.76932 3.5275,1.73525 3.5275,-0.12211 0,-2.84627 8.7476,-28.06284 11.9043,-34.31614 3.6018,-7.13513 5.0555,-8.10105 8.6489,-5.74659 5.4512,3.57178 5.3628,4.82065 -1.8624,26.31423 -9.7581,29.02831 -17.6908,58.70668 -17.6908,66.18577 0,3.5137 -1.8168,5.08597 -4.6394,4.01506 z m -11.8092,-16.4439 c 6.6563,-7.05771 12.9962,-24.82194 10.6761,-29.91403 -0.958,-2.10252 -1.8768,-2.60006 -4.8017,-2.60006 -4.7578,0 -8.4243,2.74393 -11.6939,8.75126 -2.9504,5.42072 -5.7319,14.99835 -5.7319,19.73633 0,7.71261 6.0771,9.83094 11.5514,4.0265 z m -221.25973,14.97766 c -3.18265,-2.22921 -4.65565,-10.80954 -3.80454,-22.1617 0.8073,-10.76794 1.53793,-10.19076 -10.48715,-8.28459 -10.67012,1.69139 -10.15985,1.10103 -13.70001,15.8503 -0.44828,1.86767 -1.52952,3.84644 -2.40275,4.39726 -2.34819,1.4812 -6.75029,0.008 -10.15806,-3.4 -2.7299,-2.7299 -2.9529,-3.44072 -2.43946,-7.77592 1.27537,-10.76847 14.18626,-35.33475 23.75777,-45.20525 6.68119,-6.88989 11.8903,-8.84329 18.38965,-6.89603 8.66079,2.59483 12.55286,10.35655 12.55286,25.0334 0,5.56195 0.30466,6.95078 1.52475,6.95078 1.81889,0 3.6707,4.32707 2.81081,6.56792 -0.33458,0.8719 -1.67196,1.98967 -2.97195,2.48393 -2.06896,0.78662 -2.36577,1.5562 -2.38094,6.1734 -0.0197,6.00282 -1.73347,23.39058 -2.56501,26.02475 -0.69148,2.19046 -5.15424,2.32323 -8.12597,0.24175 z m -3.29169,-48.54657 c 0,-8.28464 -0.91358,-13.13813 -2.38281,-12.65892 -2.37656,0.77516 -13.61719,18.04287 -13.61719,20.91854 0,0.18189 3.6,-0.0957 8,-0.61686 l 8,-0.94758 z m 94.4202,43.91027 c -1.14389,-0.55506 -2.94389,-2.4371 -4,-4.18232 -4.11093,-6.79331 -1.40813,-29.40547 5.71681,-47.82791 1.28146,-3.31337 3.7829,-4.02441 7.62008,-2.166 5.65285,2.73774 5.88865,4.66122 2.40301,19.60099 -1.7174,7.36097 -3.63448,17.84672 -4.26018,23.30168 -0.6257,5.45496 -1.29503,10.48061 -1.48739,11.16811 -0.41257,1.47446 -3.07445,1.5213 -5.99233,0.10545 z m 170.55922,-0.18667 c -7.2057,-3.3413 -10.9794,-9.10697 -10.9794,-16.77489 0,-10.4121 7.3943,-25.95189 15.5459,-32.67115 8.2488,-6.79934 20.3836,-6.42605 25.267,0.77726 7.4932,11.05269 -7.1864,31.24231 -23.9304,32.91276 l -5.8863,0.58724 1.7519,3.47441 c 2.2096,4.38222 6.3544,5.41037 13.894,3.44654 5.5576,-1.44757 14.5867,-5.67627 17.614,-8.24937 2.8245,-2.40075 2.931,-0.81414 0.1946,2.90003 -8.1195,11.02079 -24.5943,17.71342 -33.4713,13.59717 z m 9.0944,-26.50068 c 5.1496,-3.26575 9.6413,-8.265 11.5777,-12.88599 1.9216,-4.58558 1.7149,-5.28211 -1.5675,-5.28211 -2.1908,0 -3.678,0.96212 -5.9802,3.8689 -2.7095,3.42101 -10.1038,15.66254 -10.1038,16.72716 0,0.97447 1.9173,0.20803 6.0738,-2.42796 z M 707.4548,-297.9634 c -2.69043,-4.30806 -1.1599,-11.76921 3.1265,-15.24133 4.4704,-3.62118 13.638,-0.56043 13.6292,4.55035 -0.014,7.91742 -13.2239,16.34628 -16.7557,10.69098 z"
         id="path176" />
    </g>
  </g>
</svg>
