<?xml version="1.0" encoding="UTF-8" standalone="no"?>
<!-- Created with Inkscape (http://www.inkscape.org/) -->

<svg
   version="1.1"
   id="svg1"
   width="1448"
   height="663"
   viewBox="0 0 1448 663"
   sodipodi:docname="Reconhece.vc.svg"
   inkscape:version="1.4.3 (0d15f75, 2025-12-25)"
   xmlns:inkscape="http://www.inkscape.org/namespaces/inkscape"
   xmlns:sodipodi="http://sodipodi.sourceforge.net/DTD/sodipodi-0.dtd"
   xmlns="http://www.w3.org/2000/svg"
   xmlns:svg="http://www.w3.org/2000/svg">
  <defs
     id="defs1" />
  <sodipodi:namedview
     id="namedview1"
     pagecolor="#ffffff"
     bordercolor="#000000"
     borderopacity="0.25"
     inkscape:showpageshadow="2"
     inkscape:pageopacity="0.0"
     inkscape:pagecheckerboard="0"
     inkscape:deskcolor="#d1d1d1"
     inkscape:zoom="0.21034727"
     inkscape:cx="656.05796"
     inkscape:cy="-97.457885"
     inkscape:window-width="1366"
     inkscape:window-height="697"
     inkscape:window-x="-8"
     inkscape:window-y="-8"
     inkscape:window-maximized="1"
     inkscape:current-layer="g38" />
  <g
     inkscape:groupmode="layer"
     inkscape:label="Image"
     id="g1">
    <g
       id="g38"
       transform="translate(6.7232323,-60.509091)">
      <path
         style="fill:#fd4a2e;stroke-width:8.85613"
         d="M 34.896304,496.07723 C 26.365284,473.6812 24.291852,391.43752 31.585046,364.73464 c 5.286909,-19.35713 25.350894,-22.52913 25.350894,-4.00779 0,9.79751 1.992395,9.79751 8.965801,0 12.890245,-18.11057 43.334709,-15.89815 43.334709,3.14921 0,8.66033 -6.20326,15.74605 -13.785018,15.74605 -22.289767,0 -38.515492,34.36007 -38.515492,81.56156 0,48.99676 -10.397199,65.45778 -22.039636,34.89356 z m 121.836466,9.60162 c -20.38971,-11.56065 -40.02482,-50.67823 -40.02482,-79.73871 0,-12.37061 7.10578,-35.18401 15.79062,-50.69638 21.66728,-38.70105 68.89766,-35.49032 90.95458,6.18305 23.28326,43.99035 13.04324,61.17947 -36.44629,61.17947 -37.44312,0 -41.14238,1.86255 -32.55906,16.39331 6.23258,10.55122 18.99349,15.26643 35.80779,13.23109 32.07592,-3.88266 40.42874,18.37395 12.49553,33.29522 -22.91304,12.23961 -24.6905,12.24549 -46.01835,0.15326 z m 40.29382,-107.68636 c -1.71222,-7.21694 -10.95821,-13.1217 -20.54663,-13.1217 -9.58843,0 -18.83441,5.90476 -20.54663,13.1217 -2.05357,8.6557 4.93949,13.1217 20.54663,13.1217 15.60714,0 22.60019,-4.466 20.54663,-13.1217 z m 86.41068,107.5247 c -33.65484,-19.05135 -43.81298,-99.14109 -17.29929,-136.39244 22.55482,-31.68924 82.18651,-26.46092 82.18651,7.20591 0,11.75946 -5.43496,13.77978 -22.72054,8.44576 -27.01278,-8.33586 -44.52297,8.21513 -44.52297,42.08382 0,33.86879 17.51019,50.41967 44.52297,42.08392 17.65884,-5.44928 22.72054,-3.39988 22.72054,9.19947 0,17.10157 -22.13254,38.4025 -38.7342,37.27887 -5.40681,-0.36636 -17.17566,-4.82333 -26.15302,-9.90531 z m 119.54402,0 C 369.32645,486.46584 359.16831,406.3761 385.682,369.12475 c 19.04431,-26.75705 59.93642,-27.42447 82.85309,-1.35249 25.56914,29.08977 23.9147,90.5133 -3.32467,123.43251 -21.72651,26.25694 -35.52331,29.43009 -62.22913,14.31242 z m 50.09525,-52.81003 c 16.4752,-43.25134 -16.09112,-91.91722 -41.60283,-62.16958 -11.0322,12.86389 -14.93742,63.81976 -5.86772,76.56252 10.60601,14.90131 39.66837,6.08962 47.47055,-14.39294 z m 60.14203,43.75385 c -9.88008,-25.93762 -10.29702,-116.49228 -0.63463,-137.83363 5.83011,-12.87691 9.83032,-13.39432 21.95376,-2.83932 9.32525,8.11897 16.50245,9.09239 19.34767,2.62433 8.20453,-18.65161 47.44708,-11.58782 55.67874,10.02226 9.44405,24.79288 10.29692,133.69168 1.10951,141.66936 -12.00633,10.42546 -22.26828,-19.96892 -24.65109,-73.01294 -2.14829,-47.82452 -3.91806,-52.22028 -21.0245,-52.22028 -17.22614,0 -18.85276,4.21941 -20.91601,54.25646 -2.56938,62.31213 -18.02823,91.02935 -30.86347,57.33376 z m 137.40794,6.59056 c -2.22054,-8.1301 -3.06287,-59.30391 -1.87177,-113.71961 1.74213,-79.59384 4.35671,-98.93744 13.3728,-98.93744 7.4715,0 12.45252,13.99645 14.943,41.98945 2.36279,26.5578 5.95718,37.16707 9.78034,28.86775 8.45012,-18.34372 46.2276,-16.39647 57.66886,2.97265 13.67053,23.1429 18.73942,116.69372 7.36608,135.94756 -14.1443,23.94501 -22.51477,8.9131 -22.51477,-40.4328 0,-101.88855 -45.54082,-107.4467 -52.30051,-6.38303 -3.59701,53.77789 -17.9579,80.76598 -26.44403,49.69547 z m 163.28734,2.46562 c -33.65486,-19.05135 -43.81296,-99.14109 -17.29929,-136.39244 31.71854,-44.56415 101.47913,-11.57965 95.72106,45.25926 -2.01118,19.85272 -7.72209,23.40786 -42.03952,26.17025 -48.21128,3.88077 -50.47776,28.79206 -2.49197,27.3894 33.71455,-0.9857 42.15137,18.02345 16.54512,37.2775 -17.02098,12.79849 -28.23324,12.86431 -50.4354,0.29603 z m 42.47272,-110.14904 c -5.11566,-8.66033 -13.5211,-15.74604 -18.67875,-15.74604 -5.15766,0 -13.56309,7.08571 -18.67876,15.74604 -7.98613,13.51977 -5.34518,15.74604 18.67876,15.74604 24.02394,0 26.66489,-2.22627 18.67875,-15.74604 z m 92.32534,110.3107 c -20.38973,-11.56065 -40.02483,-50.67823 -40.02483,-79.73871 0,-12.37061 6.96837,-34.93858 15.48528,-50.15104 11.88163,-21.22241 22.10108,-27.65909 43.91413,-27.65909 28.3205,0 50.51561,21.41651 42.07681,40.60066 -2.7395,6.22766 -13.12273,5.40834 -27.39726,-2.16173 -20.03789,-10.62658 -24.34588,-9.57695 -33.5894,8.18396 -24.41022,46.90263 -5.15855,84.76957 37.39486,73.55345 30.8503,-8.13137 35.5314,6.42428 10.11111,31.44023 -18.5477,18.2526 -24.86351,19.03371 -47.9707,5.93227 z m 113.14099,-1.83767 c -36.41,-30.39092 -43.76,-82.28474 -18.1365,-128.05208 33.2213,-59.33834 102.5227,-21.16174 97.4724,53.69548 -0.5932,8.79406 -14.74,13.1217 -42.8933,13.1217 -37.6362,0 -40.9769,1.7456 -32.1004,16.77269 6.9086,11.69574 17.3212,15.0824 34.3997,11.18861 25.942,-5.91474 34.7946,1.72692 25.7692,22.24434 -8.1663,18.56468 -47.4391,25.27901 -64.5111,11.02926 z m 46.7342,-105.84869 c -4.6087,-19.66156 -31.7587,-21.65238 -42.6993,-3.13095 -8.373,14.1747 -6.0604,16.25265 18.0873,16.25265 18.8096,0 26.7015,-4.20755 24.612,-13.1217 z m 223.9885,-35.15861 c -10.9797,-15.4264 -5.3801,-33.69475 8.7383,-28.50748 9.9174,3.64384 15.7764,-1.65218 19.3554,-17.49532 4.9927,-22.10147 5.5514,-22.19919 20.4906,-3.58412 11.2115,13.97032 16.2441,15.57662 18.6402,5.94991 4.0837,-16.40675 16.9491,-6.46364 16.9491,13.09924 0,7.93055 -5.8838,16.84753 -13.0752,19.81556 -30.3025,12.50645 -65.9971,17.8895 -71.0984,10.72221 z m -20.4275,-56.69332 c 0,-5.77354 3.3622,-10.49736 7.4715,-10.49736 4.1094,0 7.4716,4.72382 7.4716,10.49736 0,5.77356 -3.3622,10.49737 -7.4716,10.49737 -4.1093,0 -7.4715,-4.72381 -7.4715,-10.49737 z"
         id="path39" />
      <path
         style="fill:#a821a9;stroke-width:8.85613"
         d="m 1170.7725,501.32842 c -10.5339,-17.83271 -4.9313,-37.72742 10.6244,-37.72742 16.1775,0 21.5497,21.45998 9.5816,38.27497 -9.506,13.35579 -12.0338,13.28735 -20.206,-0.54797 z m 63.0826,-61.25819 c -13.7595,-41.73647 -23.4282,-79.49695 -21.4859,-83.91236 9.0178,-20.5003 24.4942,-3.6936 38.5203,41.83116 l 15.3614,49.859 15.2116,-49.859 c 13.9641,-45.76987 38.1558,-69.0609 38.158,-36.73731 0,24.49549 -40.4593,143.76443 -50.6314,149.24867 -6.8124,3.67282 -18.2875,-19.33037 -35.134,-70.43016 z m 134.0699,66.02914 c -24.8115,-14.13008 -34.471,-38.58117 -31.9766,-80.94286 2.3066,-39.17196 3.1096,-40.14569 43.4433,-52.68059 42.0968,-13.08276 63.632,-4.57559 47.1254,18.61603 -5.9039,8.2949 -12.6542,8.09325 -24.3864,-0.72852 -22.7278,-17.0895 -39.1333,3.80518 -36.1957,46.1 2.1512,30.97226 3.6357,32.29944 34.0033,30.39879 36.5073,-2.28495 43.2939,17.47349 12.7236,37.04321 -21.7244,13.90701 -23.9756,14.01733 -44.7369,2.19383 z"
         id="path38" />
    </g>
  </g>
</svg>
